<svg width="83" height="100" viewBox="0 0 83 100" fill="none" xmlns="http://www.w3.org/2000/svg">
<g clip-path="url(#clip0_1_55)">
<path fill-rule="evenodd" clip-rule="evenodd" d="M21.5497 3.09655L20.5631 6.19377C14.5266 6.19377 14.0693 6.20557 14.0814 6.28206C14.0895 6.33011 15.2123 7.17514 16.5721 8.15652C17.936 9.14211 19.107 9.98781 19.1712 10.0317C19.2917 10.1117 19.2675 10.1923 18.2769 13.2089C17.7192 14.9073 17.278 16.3137 17.2981 16.3297C17.3182 16.3499 17.3944 16.3213 17.4665 16.2775C17.543 16.2295 18.702 15.3921 20.0499 14.4149C21.3933 13.4328 22.5245 12.6114 22.5567 12.5836C22.5925 12.5593 23.7157 13.3368 25.1838 14.4108C26.5955 15.4401 27.7868 16.2977 27.8309 16.3214C27.8708 16.3415 27.9191 16.3499 27.9392 16.3297C27.9593 16.3137 27.5222 14.9032 26.9686 13.1929C26.4151 11.486 25.9698 10.0839 25.9817 10.0839C25.994 10.0797 27.1769 9.22214 28.617 8.18095C30.057 7.13905 31.2122 6.26614 31.1881 6.24181C31.16 6.21748 29.6838 6.18961 27.9071 6.18129L24.6743 6.16527C22.9818 0.837529 22.693 9.56138e-05 22.6247 9.56138e-05C22.5604 9.56138e-05 22.2677 0.845178 21.5497 3.09655ZM59.3125 3.08058L58.3259 6.16522C53.3242 6.18956 51.8483 6.21743 51.8201 6.24176C51.7882 6.2661 52.9432 7.139 54.3832 8.18091C55.8232 9.22209 57.0064 10.0797 57.0185 10.0839C57.0304 10.0839 56.5851 11.486 56.0315 13.1928C55.478 14.9032 55.0409 16.3137 55.061 16.3297C55.0811 16.3499 55.1293 16.3415 55.1693 16.3213C55.2134 16.2977 56.4048 15.4401 57.8164 14.4107C59.2844 13.3368 60.4076 12.5593 60.4438 12.5835C60.4756 12.6114 61.607 13.4328 62.9507 14.4148C64.2982 15.3921 65.4575 16.2295 65.5336 16.2774C65.6057 16.3213 65.6819 16.3498 65.702 16.3296C65.7222 16.3136 65.2809 14.9072 64.7234 13.2088C63.7327 10.1922 63.7084 10.1116 63.8289 10.0316C63.8932 9.98777 65.0641 9.14202 66.4281 8.15648C67.7878 7.17505 68.9106 6.33001 68.9189 6.28202C68.9308 6.20553 68.4735 6.19372 65.6861 6.19372H62.4371C60.7567 0.89724 60.4439 0 60.3834 0C60.3234 0 60.0105 0.897335 59.3125 3.08058Z" fill="#FEDD21"/>
<path fill-rule="evenodd" clip-rule="evenodd" d="M38.7526 17.1792C38.3517 17.2112 37.5093 17.2913 36.8755 17.3636C36.2458 17.4318 35.2551 17.5673 34.6735 17.6682C34.092 17.7642 33.1775 17.9401 32.6479 18.0563C32.1145 18.1725 31.2723 18.3811 30.7748 18.5133C30.2776 18.6454 29.3631 18.9216 28.7494 19.1226C28.1359 19.3229 27.2934 19.6151 26.8765 19.7715C26.4633 19.9273 25.7534 20.2118 25.3039 20.4044C24.859 20.5922 24.0285 20.9734 23.463 21.2453C22.8975 21.518 21.9588 22.0069 21.3773 22.331C20.7958 22.6559 19.8734 23.2046 19.3239 23.5531C18.7741 23.9015 17.9321 24.4705 17.4506 24.8113C16.9694 25.1556 16.1953 25.7405 15.7301 26.1133C15.2647 26.4854 14.5708 27.0627 14.186 27.3952C13.8049 27.7318 13.0348 28.4524 12.473 29.0012C11.9154 29.5507 11.1495 30.3359 10.7724 30.7523C10.3955 31.165 9.80977 31.8461 9.46899 32.2588C9.12787 32.6754 8.56237 33.3926 8.21336 33.8572C7.86449 34.3221 7.24692 35.2073 6.84166 35.8202C6.4366 36.433 5.83904 37.3987 5.51424 37.9635C5.19323 38.5246 4.68378 39.478 4.38296 40.0749C4.0821 40.6718 3.7171 41.4331 3.56887 41.7615C3.42025 42.0941 3.13547 42.7752 2.93507 43.2719C2.73864 43.7688 2.40954 44.6502 2.21311 45.2311C2.01649 45.8119 1.72386 46.7492 1.55931 47.3144C1.39906 47.8792 1.15836 48.8285 1.02583 49.4254C0.889516 50.0226 0.708978 50.9039 0.628713 51.3845C0.544618 51.8693 0.432284 52.5585 0.38423 52.9229C0.336081 53.2915 0.251699 53.9966 0.203597 54.4935C0.151666 54.9901 0.0792976 56.1038 0.0391887 56.9692C-0.0129815 58.1712 -0.0129815 58.9004 0.0391887 60.1061C0.0792976 60.9677 0.151666 62.0813 0.203597 62.578C0.251699 63.0749 0.336081 63.784 0.38423 64.1486C0.432332 64.5129 0.544666 65.206 0.628713 65.6869C0.708978 66.1675 0.889516 67.0489 1.02583 67.6458C1.15836 68.243 1.37489 69.1121 1.50737 69.577C1.63569 70.0416 1.88022 70.8428 2.05272 71.3558C2.22115 71.8726 2.47377 72.6058 2.6142 72.9861C2.7586 73.3668 3.01538 74.02 3.1919 74.4326C3.3644 74.8492 3.68919 75.5822 3.91381 76.0631C4.13446 76.5437 4.53942 77.3531 4.81229 77.8578C5.08099 78.3627 5.55832 79.208 5.87115 79.7288C6.18398 80.2496 6.70138 81.0709 7.02641 81.5556C7.35116 82.0366 7.92077 82.8377 8.29377 83.3344C8.67068 83.8313 9.3287 84.6605 9.76171 85.1732C10.195 85.6902 10.921 86.5034 11.3782 86.984C11.8355 87.4649 12.5934 88.2221 13.0628 88.6669C13.532 89.1076 14.3383 89.8246 14.8515 90.2574C15.369 90.6899 16.1953 91.3468 16.6965 91.7196C17.1941 92.0962 18.0485 92.6972 18.5979 93.0618C19.1474 93.4261 19.9615 93.9391 20.4108 94.2075C20.8599 94.4719 21.606 94.8924 22.0712 95.141C22.5367 95.3894 23.3828 95.81 23.9445 96.0744C24.51 96.3428 25.4645 96.7595 26.0621 96.9997C26.6597 97.2401 27.6664 97.6089 28.2964 97.8252C28.9298 98.0375 29.8806 98.3299 30.4099 98.4782C30.9436 98.6264 31.7858 98.8426 32.2871 98.9548C32.7846 99.067 33.5707 99.2313 34.0358 99.3153C34.5012 99.3955 35.1549 99.5077 35.4878 99.5557C35.8207 99.6079 36.4747 99.6881 36.9397 99.74C37.4051 99.7922 38.151 99.8603 38.6004 99.8924C39.0494 99.9245 39.944 99.9685 40.5939 99.9886C41.2516 100.013 42.4147 99.9965 43.221 99.9604C44.019 99.9204 45.082 99.8484 45.5793 99.8003C46.0767 99.7523 46.7826 99.668 47.1517 99.6199C47.5164 99.5718 48.2103 99.4596 48.6918 99.3757C49.173 99.2955 50.0554 99.1151 50.653 98.983C51.2547 98.8467 52.2053 98.6062 52.7708 98.4462C53.3363 98.2859 54.2709 97.9895 54.8526 97.7931C55.434 97.5968 56.2523 97.3002 56.6655 97.1321C57.0828 96.9679 57.7483 96.6873 58.1495 96.5151C58.5467 96.3428 59.4571 95.9062 60.1711 95.5497C60.8851 95.1889 62.0001 94.576 62.6499 94.1874C63.2994 93.8027 64.0336 93.346 64.2823 93.1819C64.5308 93.0137 65.1005 92.617 65.5499 92.3005C65.9989 91.984 66.7651 91.4031 67.2583 91.0146C67.7477 90.6217 68.4016 90.0811 68.7062 89.8126C69.0152 89.5442 69.6329 88.9794 70.0778 88.5626C70.5235 88.142 71.2693 87.3929 71.7345 86.8919C72.1996 86.3953 72.9141 85.5899 73.3228 85.0971C73.7358 84.6083 74.3618 83.8231 74.7149 83.3504C75.0679 82.8776 75.6493 82.0563 76.0024 81.5235C76.3554 80.9948 76.8645 80.1936 77.1333 79.7447C77.402 79.2962 77.8073 78.5909 78.0315 78.1743C78.2606 77.7617 78.6416 77.0126 78.8824 76.5157C79.1185 76.019 79.48 75.2297 79.6763 74.7649C79.8769 74.3003 80.2174 73.4468 80.4345 72.866C80.6512 72.2851 80.952 71.4038 81.108 70.903C81.2646 70.4061 81.5375 69.4286 81.7138 68.7317C81.8941 68.0345 82.1351 66.9649 82.2513 66.3479C82.3677 65.735 82.516 64.8417 82.5843 64.3566C82.6524 63.876 82.7486 63.0748 82.7966 62.5779C82.8488 62.0812 82.9212 60.9676 82.9609 60.106C83.0132 58.9003 83.0132 58.1711 82.9609 56.9691C82.9212 56.1037 82.8488 54.99 82.7966 54.4934C82.7485 53.9965 82.6405 53.1151 82.5564 52.5343C82.4721 51.9534 82.3078 50.9997 82.1908 50.4189C82.0752 49.8421 81.8984 49.0409 81.798 48.6401C81.6978 48.2437 81.5091 47.5384 81.3726 47.0738C81.2403 46.6089 80.9958 45.8197 80.8273 45.323C80.6588 44.8263 80.3461 43.9689 80.1296 43.4201C79.913 42.8751 79.5078 41.9258 79.2271 41.3088C78.9465 40.6959 78.473 39.7343 78.168 39.1695C77.8672 38.6046 77.4138 37.8031 77.1652 37.3865C76.9166 36.9739 76.4355 36.2126 76.0943 35.6999C75.7573 35.1832 75.1521 34.3298 74.7552 33.797C74.3576 33.268 73.7281 32.4668 73.3514 32.0183C72.9782 31.5694 72.2561 30.7603 71.7547 30.2154C71.2491 29.6742 70.387 28.8132 69.8411 28.3041C69.2918 27.7998 68.4777 27.0786 68.0284 26.7016C67.5793 26.3295 66.7771 25.6958 66.2437 25.2994C65.7141 24.9029 64.8157 24.2742 64.2501 23.9013C63.6846 23.5327 62.9225 23.0521 62.5574 22.8358C62.1927 22.6195 61.4586 22.2113 60.9292 21.9267C60.3958 21.6423 59.5533 21.2215 59.0561 20.9891C58.5545 20.7604 57.8767 20.4564 57.5438 20.3117C57.2111 20.1719 56.5972 19.9271 56.1843 19.7713C55.767 19.6148 54.9249 19.3226 54.311 19.1224C53.6973 18.9213 52.7829 18.6452 52.2855 18.5131C51.7884 18.3809 50.946 18.1722 50.4126 18.0561C49.8829 17.9399 49.0529 17.7758 48.5716 17.6916C48.0901 17.6074 47.26 17.4879 46.7266 17.419C46.197 17.355 45.4471 17.2708 45.0661 17.2354C44.685 17.1992 43.2691 17.1588 41.9214 17.147C40.5779 17.1352 39.1497 17.1514 38.7526 17.1792Z" fill="white"/>
<path fill-rule="evenodd" clip-rule="evenodd" d="M39.8074 17.391C39.5909 17.4028 38.9933 17.4431 38.48 17.4793C37.9624 17.5155 37.1082 17.5996 36.5745 17.6637C36.0453 17.7277 35.1308 17.864 34.5492 17.9641C33.9676 18.0643 33.0733 18.236 32.5556 18.3529C32.0424 18.4691 31.2122 18.6728 30.7148 18.8092C30.2174 18.9455 29.2507 19.2377 28.5688 19.4665C27.8869 19.6911 26.9365 20.0312 26.4551 20.2239C25.9738 20.4159 25.0754 20.7963 24.4618 21.0773C23.844 21.3534 22.8653 21.8382 22.2838 22.1463C21.7022 22.4593 20.8479 22.9399 20.3825 23.2202C19.9173 23.5004 19.1272 24.0013 18.6299 24.3337C18.1283 24.6703 17.3343 25.2316 16.8611 25.5836C16.3877 25.9362 15.5975 26.5615 15.1082 26.974C14.6189 27.3822 13.7846 28.1237 13.2552 28.6168C12.7215 29.1092 11.8753 29.9627 11.3699 30.5114C10.8605 31.0565 10.1987 31.8055 9.89409 32.1701C9.59328 32.5347 9.09981 33.1436 8.80311 33.5283C8.51019 33.9089 8.02108 34.5741 7.71615 35.0066C7.41534 35.4353 6.93379 36.1564 6.64929 36.6052C6.36451 37.0537 5.91116 37.811 5.63446 38.2916C5.36165 38.7725 4.89245 39.658 4.5957 40.2548C4.29484 40.8518 3.87374 41.7491 3.65697 42.2458C3.44044 42.7427 3.10334 43.5839 2.90299 44.1169C2.70249 44.6456 2.39761 45.5151 2.22516 46.0478C2.05266 46.5765 1.76381 47.582 1.58758 48.2792C1.40695 48.9763 1.1662 50.0221 1.05009 50.603C0.937656 51.1838 0.78507 52.0491 0.717105 52.5339C0.648805 53.0148 0.552602 53.7716 0.504404 54.2205C0.456302 54.6691 0.384221 55.5385 0.343968 56.1514C0.299935 56.8486 0.283757 58.0065 0.308071 59.2283C0.324058 60.3061 0.368187 61.5159 0.408152 61.9126C0.444336 62.3131 0.528622 63.0863 0.596635 63.6351C0.664983 64.1802 0.789234 65.0213 0.869452 65.506C0.949766 65.9869 1.11422 66.812 1.23043 67.3451C1.3509 67.8737 1.55547 68.719 1.68766 69.2159C1.82417 69.7126 2.10876 70.6621 2.32558 71.3273C2.54201 71.992 2.93918 73.0778 3.20381 73.7391C3.4726 74.4038 3.89365 75.3814 4.14259 75.9104C4.39496 76.4432 4.81635 77.2844 5.08098 77.7813C5.34571 78.282 5.78279 79.0552 6.0478 79.5038C6.31651 79.9486 6.82567 80.7498 7.1787 81.2826C7.53179 81.8116 8.14931 82.681 8.55054 83.2137C8.95144 83.7425 9.52919 84.4758 9.83412 84.8404C10.1388 85.2047 10.6963 85.8459 11.0734 86.2586C11.4504 86.6752 12.1764 87.4204 12.6858 87.9211C13.1951 88.4178 13.9411 89.1109 14.3383 89.4594C14.7354 89.808 15.3369 90.3129 15.666 90.5813C15.9989 90.8456 16.6407 91.3385 17.0897 91.671C17.535 92.0035 18.3812 92.5885 18.963 92.9729C19.5446 93.3535 20.3987 93.8863 20.8641 94.1588C21.3292 94.4313 22.2679 94.9321 22.9498 95.2766C23.6314 95.6211 24.4739 96.0297 24.8229 96.1819C25.1718 96.3381 25.8497 96.6226 26.3349 96.8149C26.8162 97.0073 27.6585 97.3197 28.208 97.508C28.7536 97.6963 29.5719 97.9568 30.0209 98.0851C30.4663 98.213 31.2162 98.4135 31.6816 98.5295C32.1467 98.6459 32.9328 98.8221 33.4344 98.9222C33.9316 99.0224 34.7901 99.1707 35.3355 99.2547C35.8849 99.339 36.7274 99.4511 37.2085 99.4992C37.69 99.5511 38.5201 99.6193 39.0535 99.6513C39.5831 99.6875 40.726 99.7155 41.5924 99.7155C42.4547 99.7114 43.5579 99.6875 44.0391 99.6554C44.5203 99.6193 45.2142 99.5633 45.5793 99.5313C45.9442 99.4951 46.7344 99.3949 47.332 99.3148C47.9297 99.2308 48.8964 99.0706 49.478 98.9542C50.0595 98.8382 51.1064 98.5977 51.8041 98.4214C52.5022 98.2412 53.5491 97.9407 54.1305 97.7525C54.7122 97.5602 55.6509 97.2317 56.2123 97.0152C56.7778 96.7989 57.6643 96.4342 58.1776 96.202C58.6949 95.9738 59.6575 95.5089 60.3235 95.1644C60.9894 94.824 61.9118 94.3192 62.3771 94.0427C62.8423 93.7663 63.6605 93.2534 64.19 92.9048C64.7235 92.5524 65.5939 91.9394 66.1232 91.5387C66.6566 91.142 67.4189 90.5451 67.8118 90.2126C68.209 89.8803 68.8227 89.3513 69.1717 89.0348C69.5206 88.7183 70.1865 88.0814 70.6517 87.6165C71.1126 87.1519 71.8347 86.3906 72.2484 85.926C72.6613 85.4612 73.3026 84.704 73.6759 84.2394C74.049 83.7746 74.5784 83.0815 74.8589 82.7008C75.1361 82.3164 75.6417 81.5831 75.978 81.0704C76.315 80.5577 76.8247 79.7402 77.1053 79.2595C77.386 78.7786 77.8233 77.9934 78.076 77.5128C78.3288 77.0281 78.7173 76.243 78.9381 75.762C79.1589 75.2814 79.5398 74.3959 79.7807 73.7991C80.0209 73.2021 80.374 72.2526 80.5627 71.6877C80.7507 71.1228 81.0278 70.2415 81.172 69.7285C81.3169 69.2118 81.5173 68.4546 81.6177 68.0381C81.7138 67.6254 81.8663 66.9242 81.9505 66.4835C82.039 66.0468 82.1587 65.3538 82.2234 64.9451C82.2917 64.5406 82.3997 63.7193 82.4636 63.1224C82.5319 62.5254 82.6162 61.5998 82.6482 61.0711C82.6845 60.5383 82.7123 59.3964 82.7123 58.5351C82.7123 57.6738 82.6845 56.5319 82.6482 56.0032C82.6162 55.4704 82.5319 54.5488 82.4636 53.9519C82.3996 53.3509 82.2631 52.3734 82.1629 51.7764C82.0625 51.1795 81.8739 50.202 81.7423 49.6051C81.6092 49.0082 81.3767 48.0867 81.2325 47.5539C81.0842 47.0251 80.775 46.0315 80.5425 45.3504C80.31 44.6734 79.9728 43.748 79.7926 43.2991C79.6122 42.8546 79.3072 42.1333 79.1143 41.7008C78.9179 41.2721 78.537 40.4828 78.2682 39.954C77.9994 39.4212 77.5503 38.5917 77.2739 38.1112C76.9968 37.6303 76.5274 36.8574 76.2266 36.3924C75.93 35.9279 75.437 35.1946 75.1277 34.762C74.8227 34.3333 74.3054 33.6402 73.9808 33.2235C73.6516 32.8107 73.0742 32.1057 72.6891 31.6572C72.3041 31.2083 71.4859 30.331 70.8682 29.7064C70.2547 29.077 69.3441 28.2118 68.8506 27.775C68.3575 27.3382 67.5711 26.6732 67.1019 26.3004C66.6286 25.9242 65.8506 25.3392 65.3692 24.9949C64.888 24.65 64.1139 24.1255 63.6484 23.8292C63.1832 23.5323 62.4212 23.0718 61.956 22.8075C61.4906 22.5425 60.8247 22.1746 60.4757 21.9861C60.127 21.8018 59.4049 21.4491 58.8715 21.2009C58.3421 20.9567 57.4317 20.5638 56.8499 20.3273C56.2683 20.095 55.3822 19.7625 54.8847 19.59C54.3874 19.4224 53.5692 19.1615 53.0716 19.0176C52.5744 18.8694 51.8242 18.6649 51.411 18.5606C50.994 18.4562 50.1236 18.2685 49.4779 18.1398C48.828 18.0118 47.7933 17.8352 47.1797 17.7552C46.5661 17.671 45.5874 17.559 45.0058 17.5069C44.4242 17.4547 43.1045 17.4025 42.0738 17.3907C41.0429 17.3789 40.0241 17.3791 39.8074 17.391Z" fill="#006BB4"/>
<path fill-rule="evenodd" clip-rule="evenodd" d="M39.928 20.2318C39.6794 20.2444 38.9732 20.2958 38.3595 20.3438C37.7418 20.396 36.8474 20.492 36.3622 20.5601C35.8807 20.6241 34.9864 20.7764 34.3687 20.8926C33.755 21.0094 32.8726 21.2014 32.4075 21.3175C31.942 21.4337 31.1399 21.65 30.6226 21.8023C30.1093 21.9505 29.1985 22.251 28.6009 22.4672C27.9992 22.6836 27.089 23.0404 26.5756 23.2567C26.058 23.4729 25.0393 23.9536 24.3092 24.3264C23.5795 24.695 22.5444 25.2556 22.0111 25.5763C21.4817 25.8927 20.6916 26.3894 20.2582 26.678C19.8292 26.9701 19.0671 27.5112 18.5696 27.8833C18.0683 28.2603 17.3624 28.8174 16.9974 29.1214C16.6324 29.426 15.9104 30.0631 15.3971 30.54C14.8795 31.0128 14.0613 31.834 13.5719 32.3587C13.0867 32.8836 12.4369 33.6129 12.1281 33.9812C11.8233 34.3459 11.2417 35.0789 10.8445 35.6079C10.4436 36.1407 9.83778 36.9941 9.50102 37.5108C9.16406 38.0235 8.6627 38.825 8.38984 39.2896C8.11712 39.7544 7.57579 40.7719 7.18652 41.553C6.79754 42.3304 6.33251 43.3239 6.1559 43.7527C5.97536 44.1852 5.67072 44.9745 5.474 45.5035C5.27767 46.0363 4.9847 46.9177 4.82044 47.4664C4.65579 48.0112 4.4271 48.8407 4.30682 49.3052C4.19042 49.77 4.00198 50.6231 3.88582 51.2043C3.77339 51.7852 3.60889 52.7627 3.52867 53.3756C3.44453 53.9923 3.34411 54.8737 3.30018 55.3386C3.24801 55.8796 3.21991 57.0733 3.21991 58.6557C3.22403 60.5668 3.24801 61.3639 3.32822 62.1573C3.38456 62.7221 3.50072 63.6437 3.58491 64.2085C3.66924 64.7734 3.81747 65.6387 3.91794 66.1394C4.01792 66.6364 4.22656 67.5338 4.37507 68.1307C4.52752 68.7276 4.84844 69.8132 5.09301 70.5425C5.33367 71.2714 5.65851 72.1968 5.8189 72.5935C5.97541 72.9942 6.2601 73.6712 6.45269 74.1038C6.64529 74.5325 6.99019 75.2658 7.22271 75.7304C7.45527 76.1953 7.91255 77.0365 8.23357 77.6013C8.55827 78.1661 9.12788 79.0877 9.50107 79.6525C9.87401 80.2174 10.5038 81.1148 10.905 81.6437C11.3059 82.1766 11.9758 83.0099 12.3969 83.4986C12.818 83.9873 13.532 84.7725 13.9893 85.2413C14.4465 85.714 15.1482 86.3992 15.5495 86.7676C15.9507 87.1363 16.5883 87.6971 16.9694 88.0177C17.3504 88.3341 18.0683 88.9031 18.5696 89.2756C19.0671 89.6522 19.8973 90.2371 20.4108 90.5737C20.9282 90.9141 21.634 91.3627 21.983 91.5711C22.332 91.7795 23.0659 92.1881 23.6154 92.4805C24.161 92.7772 25.1155 93.2418 25.7291 93.5221C26.3427 93.7987 27.3095 94.2032 27.8751 94.4196C28.4406 94.6361 29.2549 94.9285 29.688 95.0686C30.1173 95.2088 30.9474 95.4533 31.5289 95.6134C32.1108 95.7699 33.1174 96.0101 33.7672 96.1464C34.413 96.2785 35.4197 96.4589 36.0013 96.5429C36.5828 96.6271 37.5335 96.7434 38.1151 96.7993C38.9292 96.8795 39.7313 96.9074 41.5924 96.9074C43.4695 96.9074 44.2436 96.8835 45.066 96.7993C45.6474 96.7433 46.5858 96.6271 47.1516 96.5469C47.7131 96.4668 48.6515 96.3027 49.2334 96.1864C49.8149 96.0662 50.7011 95.862 51.1986 95.7337C51.6958 95.6055 52.514 95.3733 53.0115 95.2208C53.5088 95.0645 54.3953 94.7641 54.9768 94.5437C55.5584 94.3274 56.5211 93.9349 57.1187 93.6705C57.7204 93.4062 58.6307 92.9734 59.1443 92.7049C59.6616 92.4365 60.3675 92.0559 60.7165 91.8515C61.0655 91.6513 61.7313 91.2427 62.1965 90.9503C62.6619 90.6536 63.436 90.1331 63.9172 89.7883C64.3986 89.44 65.1086 88.9109 65.4894 88.6026C65.8705 88.2981 66.4681 87.8014 66.8171 87.501C67.166 87.2005 67.8279 86.5875 68.2933 86.1386C68.7543 85.6901 69.4481 84.9848 69.8292 84.5724C70.2143 84.1556 70.7999 83.4905 71.1328 83.0938C71.4656 82.6934 72.0193 81.9883 72.3681 81.5235C72.717 81.0588 73.3067 80.2174 73.68 79.6526C74.0525 79.0877 74.5783 78.2463 74.8512 77.7818C75.1235 77.3168 75.6576 76.3154 76.0344 75.5503C76.4153 74.789 76.8964 73.7433 77.1087 73.2265C77.3219 72.7138 77.6346 71.9004 77.8072 71.4157C77.9792 70.9351 78.2278 70.1778 78.365 69.729C78.4966 69.2805 78.7013 68.5591 78.8134 68.1307C78.9304 67.6979 79.1309 66.8005 79.2632 66.1394C79.3956 65.4743 79.5599 64.553 79.624 64.0882C79.6923 63.6236 79.7925 62.8224 79.8447 62.3056C79.9004 61.7486 79.9526 60.5186 79.9728 59.2607C79.9931 57.9506 79.9812 56.7568 79.9366 56.1238C79.9004 55.5589 79.8287 54.7297 79.7765 54.2809C79.7284 53.8361 79.6037 52.967 79.5034 52.35C79.4032 51.7371 79.227 50.8155 79.1107 50.2987C78.9986 49.786 78.7897 48.9566 78.6574 48.4599C78.5209 47.963 78.2522 47.0817 78.06 46.5008C77.867 45.9199 77.514 44.9544 77.2738 44.3574C77.0287 43.7605 76.6401 42.8631 76.4075 42.3665C76.1708 41.8696 75.7773 41.0803 75.5287 40.6157C75.2844 40.1508 74.8352 39.3656 74.5386 38.8649C74.2377 38.3682 73.7439 37.595 73.439 37.1461C73.1382 36.6976 72.6452 36.0083 72.3479 35.6078C72.0512 35.2112 71.5101 34.53 71.1487 34.1016C70.7923 33.6688 70.1098 32.8997 69.6404 32.3867C69.1675 31.878 68.3493 31.0608 67.8159 30.5679C67.2824 30.0749 66.5483 29.426 66.1832 29.1214C65.8184 28.8133 65.1123 28.2603 64.6151 27.8833C64.1138 27.5112 63.3516 26.9701 62.9224 26.678C62.4894 26.3894 61.6991 25.8927 61.1695 25.5763C60.6361 25.2556 59.6055 24.695 58.8714 24.3264C58.1415 23.9536 57.1226 23.4729 56.6053 23.2567C56.092 23.0404 55.1812 22.6836 54.5837 22.4672C53.9861 22.251 53.0716 21.9504 52.5583 21.8023C52.0448 21.65 51.2426 21.4337 50.7775 21.3175C50.3121 21.2014 49.4255 21.0094 48.812 20.8926C48.1983 20.7764 47.2999 20.6241 46.8187 20.5601C46.3372 20.4919 45.4669 20.3959 44.8852 20.3438C44.3037 20.2916 43.0525 20.2402 42.1058 20.2277C41.1593 20.2158 40.1766 20.2158 39.928 20.2318Z" fill="white"/>
<path fill-rule="evenodd" clip-rule="evenodd" d="M38.9933 22.6714C38.6282 22.6993 37.9464 22.7674 37.4812 22.8196C37.0158 22.8718 36.1736 22.9921 35.6081 23.0881C35.0426 23.1841 34.2562 23.3322 33.8554 23.4205C33.4582 23.5089 32.7243 23.689 32.2227 23.8211C31.7255 23.9575 30.8831 24.2058 30.3497 24.3824C29.8203 24.5585 28.9219 24.8825 28.3564 25.1072C27.7909 25.3311 26.9206 25.704 26.423 25.9363C25.9258 26.1686 25.1356 26.5615 24.6701 26.814C24.205 27.0623 23.4872 27.4706 23.0699 27.7231C22.6527 27.9714 22.0031 28.3845 21.618 28.6405C21.2369 28.8971 20.543 29.3903 20.0779 29.7346C19.6124 30.083 18.9469 30.6038 18.5979 30.8962C18.2489 31.1885 17.555 31.8017 17.0575 32.2584C16.5602 32.7152 15.766 33.5083 15.2968 34.0171C14.8235 34.526 14.2017 35.231 13.909 35.5796C13.6163 35.9282 13.0949 36.593 12.7459 37.0579C12.401 37.5225 11.9075 38.2118 11.6508 38.5962C11.3944 38.9768 10.9811 39.6296 10.7283 40.0424C10.4798 40.4591 10.0707 41.1761 9.81796 41.641C9.56524 42.1056 9.1641 42.9068 8.92737 43.4198C8.68672 43.9366 8.33766 44.7498 8.14128 45.2307C7.94868 45.7113 7.66395 46.4726 7.51165 46.9211C7.35901 47.37 7.11448 48.1432 6.97003 48.6398C6.82558 49.1368 6.6091 49.966 6.48892 50.4827C6.37247 50.9956 6.19207 51.8931 6.09582 52.4739C5.99545 53.0507 5.85919 54.0163 5.79089 54.6132C5.72264 55.2101 5.63859 56.3521 5.60241 57.1492C5.55009 58.2308 5.55009 58.9679 5.60241 60.0737C5.64237 60.8871 5.72666 62.0287 5.79496 62.6097C5.85919 63.1905 5.9955 64.1241 6.09166 64.6889C6.18796 65.2538 6.36041 66.1232 6.47279 66.6201C6.589 67.1168 6.8096 67.9742 6.96592 68.523C7.12238 69.0678 7.35901 69.8291 7.4915 70.2097C7.62398 70.59 7.9248 71.3916 8.16148 71.9923C8.40189 72.5895 8.88329 73.6591 9.23614 74.372C9.58917 75.0852 10.0905 76.0386 10.3473 76.4874C10.6079 76.9322 11.1013 77.7334 11.4503 78.2662C11.7992 78.795 12.3928 79.6364 12.7698 80.1371C13.143 80.634 13.6324 81.2589 13.8529 81.5233C14.0772 81.7876 14.5226 82.3047 14.8514 82.6689C15.1765 83.0336 15.8742 83.755 16.3998 84.2677C16.9291 84.7843 17.6472 85.4495 17.9962 85.7499C18.3451 86.0504 18.8345 86.459 19.0831 86.6593C19.3317 86.8596 19.8491 87.2562 20.2302 87.5407C20.6112 87.821 21.3611 88.3378 21.8907 88.6864C22.4241 89.0391 23.2263 89.5319 23.6757 89.7922C24.1248 90.0487 25.0474 90.5334 25.729 90.8699C26.411 91.2063 27.3214 91.631 27.7547 91.8073C28.1839 91.9878 28.9459 92.2801 29.4434 92.4605C29.9447 92.6405 30.839 92.9291 31.4407 93.1054C32.0384 93.2818 32.9488 93.5219 33.4623 93.6423C33.9797 93.7624 34.7938 93.9268 35.2753 94.0107C35.7564 94.095 36.5746 94.2191 37.0882 94.2832C37.6056 94.3473 38.4077 94.4315 38.8731 94.4715C39.3383 94.5155 40.5738 94.5476 41.6203 94.5476C42.916 94.5435 43.8826 94.5114 44.6407 94.4435C45.2585 94.3873 46.1409 94.2873 46.6061 94.2191C47.0714 94.155 47.8856 94.0189 48.419 93.9186C48.9524 93.8145 49.915 93.5981 50.5648 93.434C51.2106 93.2695 52.2576 92.9612 52.8914 92.7487C53.521 92.5407 54.4595 92.1958 54.9768 91.9878C55.4905 91.7834 56.3326 91.4147 56.8499 91.1743C57.3634 90.9341 58.1134 90.5614 58.5105 90.3452C58.9077 90.1329 59.5493 89.7721 59.9305 89.548C60.3114 89.3195 61.0334 88.8669 61.5309 88.5342C62.0322 88.2017 62.7661 87.689 63.1632 87.3885C63.5604 87.088 64.1177 86.6514 64.4025 86.4188C64.6834 86.1865 65.2408 85.7059 65.642 85.3492C66.0392 84.9968 66.8294 84.2356 67.3949 83.6587C67.9563 83.0778 68.7506 82.2123 69.1515 81.7316C69.5527 81.251 70.126 80.5337 70.4268 80.1371C70.7276 79.7366 71.2011 79.0716 71.4818 78.6588C71.7588 78.2424 72.208 77.537 72.4768 77.0884C72.7456 76.6396 73.1509 75.9346 73.3793 75.5219C73.6035 75.1054 73.9328 74.4523 74.1132 74.0716C74.2936 73.6912 74.5944 73.0262 74.779 72.5933C74.9634 72.1608 75.2559 71.4155 75.4327 70.9349C75.6096 70.454 75.8742 69.6647 76.0219 69.1841C76.1751 68.7032 76.4076 67.874 76.5399 67.3454C76.6723 66.8123 76.8645 65.9591 76.9606 65.4422C77.0616 64.9294 77.1855 64.2122 77.2377 63.8438C77.2899 63.4792 77.3742 62.8141 77.4223 62.3655C77.4744 61.9208 77.547 60.8873 77.5866 60.0739C77.6388 58.9401 77.6388 58.251 77.5866 57.1173C77.547 56.3041 77.4744 55.2744 77.4223 54.8259C77.3742 54.377 77.2899 53.7119 77.2377 53.3473C77.1855 52.983 77.0615 52.2617 76.9606 51.749C76.8645 51.2322 76.6597 50.3226 76.508 49.7257C76.3589 49.1288 76.0219 48.0032 75.7615 47.2218C75.5052 46.4447 75.1076 45.371 74.8869 44.8382C74.6669 44.3093 74.2337 43.36 73.921 42.7269C73.6118 42.098 73.1223 41.1764 72.8333 40.6756C72.545 40.179 72.0235 39.3375 71.6705 38.8048C71.3216 38.2758 70.8084 37.5428 70.5396 37.1781C70.2666 36.8136 69.7653 36.1726 69.4244 35.76C69.0836 35.3434 68.4176 34.5862 67.9484 34.0733C67.4752 33.5606 66.6851 32.7634 66.1834 32.3026C65.6862 31.8418 64.8759 31.1368 64.3827 30.732C63.8892 30.3273 63.067 29.6986 62.5575 29.3341C62.0442 28.9689 61.2783 28.4487 60.8531 28.1802C60.4279 27.9076 59.7419 27.4951 59.3247 27.2586C58.9117 27.018 58.0814 26.5854 57.4838 26.289C56.8861 25.9927 55.9597 25.5719 55.4304 25.3514C54.8966 25.131 54.0464 24.8027 53.541 24.6225C53.0317 24.4424 52.1494 24.1621 51.5757 23.9931C51.0021 23.8296 50.0998 23.5974 49.5661 23.477C49.0368 23.3567 48.1384 23.18 47.5729 23.0882C47.0074 22.9922 46.1769 22.8754 45.7319 22.8239C45.2825 22.7717 44.5327 22.7036 44.0672 22.6674C43.6021 22.6354 42.4189 22.611 41.4401 22.6152C40.4574 22.6194 39.3583 22.6471 38.9933 22.6714Z" fill="#006BB4"/>
<path fill-rule="evenodd" clip-rule="evenodd" d="M41.2676 24.5862C41.2634 24.7268 41.2034 26.3654 41.1392 28.2322C41.0709 30.099 41.0227 31.6295 41.0309 31.6333C41.0388 31.6373 42.182 31.6814 43.5738 31.7254C45.8119 31.7977 46.1047 31.7977 46.1528 31.7176C46.1849 31.6653 46.2129 31.389 46.2129 31.0964V30.5718C45.6272 30.5636 44.805 30.5397 44.007 30.5077C43.2088 30.4797 42.5508 30.4475 42.547 30.4357C42.5389 30.4273 42.5791 29.0856 42.6352 27.4511C42.6912 25.8201 42.7233 24.4701 42.7072 24.4499C42.6912 24.4304 42.3623 24.3984 41.9774 24.3741L41.2755 24.3379L41.2676 24.5862ZM35.2151 24.7225C34.9662 24.7907 34.6015 24.9305 34.4048 25.039C34.2084 25.1433 33.8953 25.3791 33.7109 25.5641C33.5223 25.7443 33.2858 26.0566 33.1816 26.2569C33.0771 26.4572 32.9488 26.7653 32.8927 26.9503C32.8404 27.134 32.7804 27.4866 32.7602 27.7356C32.7404 27.9839 32.7523 28.4165 32.7923 28.7003C32.8285 28.9813 32.9006 29.3736 32.9488 29.5739C33.001 29.7743 33.1495 30.1554 33.2779 30.4196C33.4582 30.788 33.6105 30.9924 33.9274 31.2928C34.1561 31.5091 34.493 31.7575 34.6735 31.8498C34.8541 31.9379 35.1669 32.0541 35.3673 32.106C35.5678 32.1581 35.9008 32.1982 36.1053 32.1982C36.3139 32.1982 36.6951 32.1581 36.9518 32.102C37.2123 32.05 37.5853 31.9338 37.7819 31.8376C37.9825 31.7455 38.2874 31.5292 38.4639 31.3611C38.6644 31.1646 38.857 30.8921 38.9933 30.6158C39.1098 30.3752 39.2419 30.0031 39.286 29.7868C39.3303 29.5698 39.3662 29.3862 39.3624 29.3778C39.3583 29.3701 39.0294 29.3096 38.6282 29.2456C38.0747 29.1573 37.8943 29.1454 37.8623 29.2018C37.8421 29.2414 37.8099 29.3938 37.794 29.5461C37.7779 29.6942 37.7138 29.9265 37.6457 30.0587C37.5815 30.1908 37.449 30.3751 37.3528 30.4715C37.2565 30.5677 37.072 30.7 36.9396 30.772C36.751 30.8723 36.5868 30.9003 36.2136 30.9003C35.7806 30.9003 35.6921 30.8801 35.3954 30.7119C35.1788 30.5916 34.9945 30.4231 34.866 30.2311C34.7537 30.0705 34.6014 29.7345 34.525 29.4863C34.4488 29.2338 34.3525 28.8011 34.3085 28.5208C34.2643 28.2357 34.2443 27.8156 34.2643 27.5825C34.2845 27.3224 34.3487 27.0581 34.429 26.8898C34.5052 26.7417 34.6496 26.5296 34.7537 26.4169C34.8579 26.3049 35.0386 26.1651 35.1548 26.1045C35.2712 26.0447 35.5159 25.9682 35.7004 25.9362C35.8807 25.9 36.1416 25.8966 36.2741 25.9202C36.4063 25.9446 36.6228 26.0204 36.7553 26.0886C36.8915 26.1525 37.0762 26.3007 37.1725 26.4134C37.2685 26.5253 37.377 26.6777 37.4129 26.7493C37.4812 26.878 37.4853 26.8738 38.115 26.6053C38.464 26.4571 38.7727 26.325 38.7969 26.3132C38.8209 26.2972 38.7686 26.1448 38.6805 25.9682C38.592 25.7964 38.3957 25.5279 38.2433 25.3756C38.0907 25.2233 37.822 25.0272 37.6496 24.9388C37.473 24.8505 37.1724 24.7385 36.9836 24.6864C36.7914 24.6384 36.4181 24.598 36.1534 24.598C35.8728 24.6022 35.4757 24.6544 35.2151 24.7225ZM49.4979 25.2115C49.4577 25.3235 49.1288 26.293 48.7638 27.3705C48.3987 28.452 48.0419 29.59 47.9698 29.9064C47.8777 30.291 47.8414 30.6076 47.8534 30.8723C47.8694 31.1367 47.9295 31.373 48.0378 31.5975C48.1262 31.7776 48.3307 32.0621 48.4913 32.2223C48.6836 32.4147 48.9646 32.6029 49.3256 32.779C49.6264 32.9233 50.0996 33.0997 50.3845 33.1719C50.7694 33.2678 51.022 33.2961 51.411 33.276C51.8081 33.2559 52.0008 33.2159 52.2575 33.0917C52.4379 33.0034 52.7107 32.8032 52.8592 32.6429C53.0075 32.4826 53.228 32.134 53.3524 31.8659C53.4728 31.6013 53.9178 30.3954 54.3351 29.1817C54.7521 27.9715 55.0973 26.958 55.0973 26.9344C55.0973 26.9101 54.7883 26.7939 54.4154 26.6736C54.0425 26.5533 53.7215 26.4809 53.7013 26.5095C53.6775 26.5331 53.3164 27.5507 52.8951 28.7609C52.47 29.9711 52.0609 31.1046 51.9806 31.2809C51.8683 31.5173 51.76 31.6415 51.5476 31.7776C51.3509 31.9018 51.1826 31.9618 51.018 31.9618C50.8857 31.9618 50.5928 31.9059 50.3684 31.8376C50.0515 31.7456 49.899 31.6575 49.6865 31.4451C49.5058 31.2649 49.3936 31.0887 49.3495 30.9164C49.3054 30.7319 49.3054 30.5596 49.3495 30.2994C49.3857 30.0991 49.7545 28.9612 50.1718 27.7635C50.5891 26.5693 50.9299 25.56 50.9299 25.5197C50.9339 25.4759 50.6652 25.3632 50.3122 25.2554C49.9672 25.1476 49.6586 25.051 49.6265 25.0392C49.5944 25.0274 49.5338 25.103 49.4979 25.2115ZM23.7559 29.2936C22.5525 30.0107 21.5056 30.6438 21.4294 30.696L21.2891 30.7922C24.1811 35.6475 25.0272 37.0658 25.0272 37.0739C25.0314 37.0819 26.1061 36.4488 27.4218 35.6636C28.7334 34.8825 29.8203 34.2294 29.8364 34.2174C29.8565 34.2054 29.7319 33.9731 29.5676 33.7006C29.3993 33.4322 29.2507 33.1999 29.2347 33.1917C29.2188 33.1839 28.4285 33.6365 27.4819 34.1973C26.5353 34.7583 25.7372 35.2151 25.7131 35.2151C25.689 35.2151 25.4645 34.8706 25.2199 34.4458C24.971 34.025 24.7544 33.6365 24.7343 33.5884C24.7144 33.5203 25.1235 33.2479 26.2665 32.5628L27.8309 31.6254C27.4579 31.0163 27.3094 30.7799 27.2653 30.7079C27.181 30.5718 27.1731 30.5756 25.6368 31.5051C24.7906 32.0181 24.0766 32.4427 24.0526 32.4427C24.0283 32.4427 23.8802 32.2303 23.7276 31.974C23.5711 31.7176 23.3867 31.405 23.3184 31.2809L23.1901 31.0525C25.8133 29.51 26.5755 29.0412 26.5714 29.0168C26.5714 28.9932 26.443 28.7491 26.2866 28.4722C26.1261 28.1996 25.9859 27.9798 25.9697 27.9798C25.9538 27.984 24.955 28.5731 23.7559 29.2936ZM56.4851 30.8279L58.0132 28.2802L58.2017 28.3922C58.3059 28.452 58.8635 28.7852 59.445 29.1253C60.0266 29.4661 60.7445 29.9105 61.0415 30.1109C61.3382 30.3153 61.6991 30.6158 61.8475 30.7799C62.0281 30.9842 62.1444 31.1926 62.2087 31.4169C62.2726 31.6414 62.2886 31.8576 62.2647 32.094C62.2446 32.2864 62.1605 32.5709 62.084 32.727C62.0041 32.8833 61.8235 33.1156 61.675 33.2438C61.5308 33.368 61.302 33.5082 61.1695 33.5563C61.0373 33.6003 60.7966 33.6565 60.3514 33.7084L60.5361 33.9649C60.6403 34.1051 60.7645 34.3697 60.8168 34.5539C60.8769 34.7702 60.897 34.9786 60.869 35.1549C60.8447 35.3071 60.7604 35.5715 60.6802 35.7437C60.6003 35.92 60.4197 36.1765 60.2752 36.3168C60.1348 36.4569 59.8941 36.6332 59.7459 36.7093C59.5973 36.7813 59.3286 36.8775 59.1441 36.9136C58.8673 36.9737 58.7429 36.9696 58.4182 36.8935C58.1733 36.8334 57.7522 36.6452 57.3032 36.3927C56.902 36.1684 56.0516 35.6676 55.41 35.2829C54.7682 34.8985 54.2469 34.5618 54.2469 34.5379C54.2508 34.5138 54.4071 34.2416 54.6038 33.9328C54.7964 33.6286 55.6426 32.2302 56.4851 30.8279Z" fill="white"/>
<path fill-rule="evenodd" clip-rule="evenodd" d="M58.2214 30.7842C57.9971 31.1648 57.8165 31.4974 57.8124 31.5213C57.8124 31.5454 58.0251 31.6857 58.2819 31.834C58.5425 31.9781 58.8874 32.1864 59.056 32.2907C59.2204 32.3988 59.4931 32.535 59.6575 32.595C59.9183 32.6871 59.9986 32.6952 60.2192 32.6352C60.3957 32.583 60.5239 32.495 60.6403 32.3385C60.7687 32.1703 60.8048 32.0503 60.8048 31.8299C60.8048 31.5775 60.7766 31.5093 60.5962 31.3292C60.4798 31.2129 59.9945 30.8885 59.5213 30.604C59.048 30.3197 58.6549 30.0867 58.6468 30.0909C58.6388 30.0909 58.4462 30.4032 58.2214 30.7842ZM57.0745 32.7553C57.1226 32.6792 57.1827 32.623 57.211 32.6352C57.235 32.643 57.6161 32.8675 58.0532 33.1359C58.4943 33.4003 58.9516 33.7008 59.068 33.797C59.1843 33.8972 59.3245 34.0613 59.3727 34.1615C59.4208 34.2616 59.4611 34.4498 59.4652 34.5821C59.4652 34.7425 59.4129 34.9106 59.3047 35.0788C59.2163 35.2231 59.0639 35.3793 58.9636 35.4274C58.8635 35.4755 58.6789 35.5195 58.5545 35.5157C58.4302 35.5157 58.1775 35.4475 57.9971 35.3633C57.8124 35.2793 57.3313 34.9989 56.9222 34.7465C56.513 34.4901 56.1801 34.2656 56.176 34.2418C56.176 34.2216 56.3567 33.9092 56.5772 33.5487C56.802 33.1881 57.0225 32.8314 57.0745 32.7553Z" fill="#006BB4"/>
<path fill-rule="evenodd" clip-rule="evenodd" d="M18.4534 32.7432C18.4654 32.7432 18.6819 32.9113 18.9308 33.1197C19.1794 33.3281 19.384 33.5082 19.384 33.5283C19.3881 33.5444 19.0871 33.9169 18.7222 34.3576C18.1164 35.0786 18.0642 35.1669 18.1406 35.2631C18.1887 35.3191 19.2194 36.1964 20.4347 37.206C21.6459 38.2197 22.6408 39.0689 22.6447 39.0931C22.6447 39.117 22.4642 39.3615 22.2436 39.6338C22.023 39.9103 21.8265 40.1546 21.8064 40.1826C21.7863 40.2109 20.7154 39.3615 19.428 38.2998C18.1406 37.2342 17.0656 36.3648 17.0415 36.3648C17.0174 36.3689 16.6965 36.7332 16.3315 37.178C15.9668 37.6228 15.6537 37.9874 15.6376 37.9874C15.6216 37.9874 15.4051 37.8069 14.7111 37.178L16.5682 34.9585C17.5911 33.7405 18.4373 32.7432 18.4534 32.7432ZM41.3799 33.2357C40.8622 33.2398 40.1284 33.264 39.7474 33.2919C39.3662 33.3159 38.7126 33.384 38.2995 33.4403C37.8825 33.4922 37.1886 33.6044 36.7553 33.6886C36.326 33.7688 35.7123 33.9008 35.3955 33.9809C35.0826 34.0611 34.497 34.2214 34.0961 34.3415C33.6989 34.4619 33.0051 34.6982 32.5557 34.8664C32.1066 35.0346 31.3486 35.3511 30.8633 35.5755C30.3818 35.7958 29.6359 36.1765 29.2026 36.417C28.7696 36.6571 27.9954 37.1339 27.4819 37.4743C26.9645 37.8151 26.2707 38.3077 25.9418 38.5641C25.6089 38.8246 25.1314 39.2132 24.8829 39.4294C24.6343 39.6457 24.2132 40.0345 23.9444 40.2869L23.463 40.7515C22.7612 40.8156 22.5164 40.8477 22.4642 40.8596C22.388 40.8839 22.3841 40.9559 22.4282 41.3245L22.4802 41.7611C21.638 42.7909 21.1566 43.4157 20.8639 43.8124C20.5751 44.2129 20.1178 44.8899 19.8491 45.3227C19.5803 45.7553 19.0951 46.6209 18.7782 47.2537C18.4574 47.8826 18.0282 48.8202 17.8278 49.3329C17.627 49.85 17.3503 50.6228 17.2179 51.0557C17.0816 51.4844 16.889 52.1652 16.7927 52.5619C16.6926 52.9627 16.5442 53.6517 16.4598 54.1005C16.3757 54.549 16.2593 55.3104 16.1992 55.791C16.1149 56.4761 16.091 57.1051 16.091 58.6874C16.091 60.27 16.1149 60.8991 16.1992 61.584C16.2593 62.0649 16.3758 62.8221 16.4598 63.2707C16.5401 63.7195 16.7165 64.5088 16.849 65.0215C16.9812 65.5344 17.2261 66.3555 17.3903 66.8483C17.559 67.3371 17.8558 68.1223 18.0602 68.5951C18.2608 69.0678 18.6378 69.8652 18.8946 70.3619C19.1512 70.8586 19.5802 71.6198 19.8491 72.0527C20.1177 72.4811 20.575 73.1622 20.8679 73.5589C21.1565 73.9556 21.626 74.5685 21.9146 74.9171C22.1994 75.2657 22.8292 75.9546 23.3106 76.4475C23.7918 76.9401 24.4457 77.5652 24.7626 77.8416C25.0795 78.1141 25.5927 78.5387 25.9096 78.783C26.2265 79.0313 26.5594 79.2837 26.6516 79.352L26.816 79.472C27.3818 84.3839 27.5542 85.8101 27.558 85.8141C27.5662 85.8179 28.4083 85.722 29.4312 85.6017C31.1759 85.3974 31.2883 85.3773 31.2883 85.2653C31.2883 85.1972 31.2039 84.412 31.1036 83.5145C31.0034 82.6171 30.9273 81.88 30.9392 81.8719C30.9471 81.864 31.1479 81.9401 31.3804 82.0442C31.613 82.1485 32.1905 82.3808 32.6637 82.5571C33.1371 82.7373 33.9395 83.0016 34.4449 83.146C34.95 83.2943 35.7604 83.4945 36.2418 83.5948C36.723 83.6989 37.5012 83.8349 37.9664 83.8991C38.4318 83.9672 39.2339 84.0553 39.7473 84.0955C40.3168 84.1354 41.2514 84.1515 42.1338 84.1317C42.9318 84.1115 43.9386 84.0515 44.3719 83.9993C44.8011 83.9471 45.4827 83.8509 45.8798 83.7831C46.2811 83.7148 47.0552 83.5505 47.6047 83.4185C48.1501 83.2824 49.0485 83.0258 49.5979 82.8417C50.1436 82.6571 50.9738 82.3447 51.4392 82.1445C51.9043 81.948 52.6664 81.5875 53.1315 81.347C53.5969 81.1069 54.3107 80.7103 54.716 80.4619C55.1252 80.2174 55.7909 79.7808 56.1961 79.4922C56.6051 79.204 57.287 78.679 57.708 78.3304C58.1332 77.9778 58.7951 77.385 59.1761 77.0124C59.561 76.6397 59.8741 76.3153 59.87 76.2911C59.87 76.2632 59.7416 76.2273 59.5811 76.2072C59.4247 76.1871 58.7909 76.083 58.1773 75.9709L57.0582 75.7706C56.4527 76.3113 56.0034 76.6799 55.6705 76.9364C55.3374 77.1967 54.7518 77.6172 54.371 77.8737C53.99 78.1261 53.4043 78.4948 53.0713 78.691C52.7384 78.8834 52.0325 79.2518 51.4991 79.5082C50.9696 79.7647 50.2756 80.0731 49.959 80.1972C49.6421 80.3217 49.0726 80.526 48.6915 80.6502C48.3104 80.7784 47.6688 80.9626 47.2715 81.0626C46.8704 81.1628 46.1925 81.3112 45.7595 81.3951C45.3262 81.4794 44.5681 81.5957 44.0668 81.6516C43.417 81.7277 42.7032 81.7597 41.5319 81.7597C40.3487 81.7597 39.6549 81.7277 39.021 81.6516C38.5399 81.5956 37.7777 81.4793 37.3286 81.3951C36.8833 81.3149 36.1532 81.155 35.712 81.0387C35.275 80.9224 34.6211 80.7341 34.2641 80.614C33.9074 80.4939 33.2735 80.2575 32.8603 80.0932C32.443 79.925 31.7574 79.6126 31.3322 79.4042C30.6905 79.0836 30.5621 78.9956 30.5621 78.8834C30.5581 78.811 30.5059 78.3264 30.4457 77.8137C30.3815 77.2969 30.3333 76.8682 30.3415 76.8601C30.3455 76.8521 30.7466 77.0606 31.228 77.329C31.7092 77.5933 32.4833 77.9819 32.9485 78.1862C33.4139 78.3905 34.1358 78.679 34.5489 78.8233C34.966 78.9714 35.712 79.1958 36.2134 79.324C36.7108 79.4523 37.4167 79.6126 37.7817 79.6764C38.1506 79.7405 38.8166 79.8367 39.2658 79.8848C39.7109 79.9369 40.473 79.9929 40.9545 80.013C41.4397 80.0372 42.2818 80.025 42.8274 79.9891C43.377 79.9529 44.2071 79.8687 44.6725 79.8008C45.1376 79.7326 45.8315 79.6084 46.2126 79.5242C46.5937 79.4402 47.2193 79.28 47.6045 79.1678C47.9855 79.0556 48.6392 78.8393 49.0524 78.6868C49.4696 78.5306 50.2434 78.1943 50.7771 77.9418C51.3065 77.6855 52.0123 77.3167 52.3453 77.1206C52.6782 76.9282 53.1556 76.6318 53.4042 76.4674C53.6528 76.2993 54.1101 75.9787 54.415 75.7505C54.7237 75.5261 54.9686 75.3258 54.9604 75.3098C54.9525 75.2937 54.2665 75.1055 53.4323 74.8851C52.602 74.6686 51.0258 74.264 49.9307 73.9836C48.8318 73.7032 47.3918 73.3626 46.7261 73.2305C46.0603 73.0941 45.0574 72.9181 44.4918 72.8379C43.9263 72.7537 43.1362 72.6615 42.739 72.6295C42.3382 72.5975 41.6483 72.5535 41.1989 72.5334C40.7499 72.5095 39.9074 72.5254 39.326 72.5613C38.7443 72.5975 37.9423 72.6657 37.5411 72.7176C37.1439 72.7698 36.41 72.8939 35.9088 72.9942C35.4112 73.0941 34.5971 73.2946 34.0958 73.4427C33.5982 73.587 32.8644 73.8234 32.4672 73.9717C32.066 74.1198 31.4404 74.3683 31.0754 74.5247C30.7103 74.6809 30.2531 74.8892 30.0645 74.9852C29.7476 75.1414 29.7197 75.1735 29.7476 75.3259C29.7637 75.4139 30.0205 77.6333 30.3213 80.2576C30.6222 82.8775 30.8589 85.025 30.8506 85.029C30.8428 85.0329 30.181 85.1092 29.3829 85.1973C28.5887 85.2893 27.9269 85.3535 27.9188 85.3456C27.9109 85.3334 26.7597 75.4139 25.3638 63.303C23.968 51.192 22.8411 41.2647 22.861 41.2487C22.8852 41.2326 23.5429 41.1444 24.329 41.0522C25.1151 40.9601 25.7649 40.8919 25.7689 40.9C25.7769 40.912 26.6152 48.1553 27.6339 56.9972C28.6569 65.8429 29.499 73.0903 29.511 73.1063C29.5232 73.1223 29.5472 73.1223 29.5591 73.1063C29.5752 73.0903 29.6155 72.8059 29.6516 72.4733C29.6876 72.1408 29.7558 71.3396 29.8081 70.6945C29.8562 70.0454 29.9242 68.6873 29.9604 67.6776C29.9965 66.6642 30.0085 65.2378 29.9883 64.5089C29.9683 63.7797 29.9283 62.666 29.892 62.0371C29.8599 61.404 29.792 60.3985 29.7438 59.8016C29.6916 59.2044 29.5953 58.2432 29.5312 57.662C29.4628 57.0811 29.3386 56.1438 29.2584 55.5789C29.1783 55.0141 29.0299 54.0925 28.9336 53.5277C28.8332 52.9628 28.6409 51.9611 28.5084 51.2963C28.3721 50.6311 28.1635 49.6816 28.0434 49.185C27.9269 48.6881 27.6982 47.7746 27.5379 47.1616C27.3774 46.5487 27.0844 45.5033 26.884 44.8382C26.6876 44.1771 26.4107 43.2798 26.2704 42.8469C26.13 42.4182 26.0057 42.0177 25.9938 41.9577C25.9777 41.8935 26.0259 41.8254 26.1219 41.7772C26.2384 41.7213 26.2745 41.6572 26.2745 41.5208C26.2705 41.3686 26.3425 41.2807 26.7116 40.976C26.9524 40.7758 27.3655 40.4473 27.6302 40.2468C27.8989 40.0466 28.4003 39.6901 28.7492 39.4576C29.0982 39.2253 29.6276 38.8927 29.9284 38.7164C30.2292 38.5441 30.8388 38.2156 31.2882 37.9915C31.7372 37.7713 32.4431 37.4506 32.8604 37.2824C33.2736 37.1139 33.9152 36.8776 34.2803 36.7575C34.6453 36.6333 35.3512 36.4291 35.8484 36.3049C36.35 36.1766 37.1761 36.0003 37.6934 35.9161C38.207 35.8321 38.9169 35.7318 39.2659 35.6998C39.6149 35.6637 40.3607 35.6197 40.9262 35.5996C41.5039 35.5797 42.3904 35.5958 42.9518 35.6316C43.4972 35.6718 44.3277 35.7558 44.7928 35.824C45.2582 35.8922 45.964 36.0164 46.365 36.1006C46.7621 36.1845 47.4963 36.369 47.9976 36.513C48.4948 36.6532 49.3652 36.9537 49.9307 37.1781C50.4924 37.4025 51.3226 37.7671 51.7719 37.9915C52.2211 38.2156 52.8346 38.5442 53.1314 38.7164C53.4323 38.8928 53.9899 39.2454 54.3709 39.5019C54.7518 39.758 55.3497 40.1868 55.6984 40.4593C56.0474 40.7318 56.565 41.1602 56.8495 41.4127L57.363 41.8776C59.2361 41.517 59.8699 41.3967 59.9823 41.3769L60.1828 41.3407C58.8872 40.0746 58.2657 39.5057 57.9648 39.2574C57.6681 39.0091 57.1505 38.5964 56.8175 38.348C56.4849 38.0956 55.8589 37.6549 55.43 37.3746C54.9967 37.0901 54.2908 36.6613 53.8575 36.4171C53.4245 36.1766 52.7586 35.8321 52.3775 35.6558C51.9964 35.4753 51.3148 35.183 50.8654 35.0067C50.4163 34.8303 49.6982 34.5701 49.2651 34.4337C48.8319 34.2935 48.0458 34.0732 47.5123 33.9449C46.9789 33.8169 46.2209 33.6607 45.8197 33.5926C45.4226 33.5284 44.849 33.4442 44.5521 33.4083C44.2515 33.3722 43.6256 33.3159 43.1604 33.2839C42.6951 33.2518 41.8931 33.2278 41.3799 33.2357ZM65.7342 33.8489C65.7543 33.8527 66.5445 34.7142 67.487 35.7597C68.4336 36.8095 69.2478 37.7107 69.2959 37.7711C69.3802 37.867 69.3519 37.9072 68.9629 38.2637C68.7304 38.476 68.5138 38.6483 68.4817 38.6483C68.4456 38.6483 67.836 37.9993 67.1219 37.206C66.0992 36.0763 65.8025 35.7799 65.7301 35.8238C65.6819 35.8518 65.4053 36.1042 64.5909 36.8736L67.0619 39.5897L66.745 39.8782C66.5685 40.0385 66.3599 40.2186 66.1232 40.395L65.0683 39.2173C64.4868 38.5682 63.9374 37.9511 63.6925 37.6588L62.9587 38.3236C62.5535 38.6882 62.2248 39.0006 62.2248 39.0167C62.2248 39.0327 62.7862 39.6739 63.4719 40.4349C64.1579 41.2003 64.7637 41.8692 64.8197 41.9293C64.9079 42.0295 64.9041 42.0496 64.7354 42.2218C64.6353 42.3221 64.4226 42.5142 63.9774 42.8788L62.1364 40.8275C61.1218 39.6978 60.2996 38.7523 60.3074 38.7243C60.3156 38.6923 61.5347 37.5824 63.0109 36.2525C64.4908 34.9222 65.7181 33.8408 65.7342 33.8489ZM42.1339 37.3061C42.7315 37.3222 43.5616 37.3744 43.9789 37.4225C44.392 37.4705 44.9774 37.5507 45.2782 37.6026C45.5753 37.6548 46.2009 37.7868 46.666 37.9031C47.1315 38.0153 47.8654 38.2277 48.2986 38.3718C48.7317 38.5201 49.3133 38.7285 49.5981 38.8407C49.8791 38.9527 50.5047 39.2371 50.9859 39.4735C51.4674 39.7098 52.1493 40.0744 52.498 40.2828C52.847 40.4912 53.3765 40.8317 53.6774 41.04C53.9741 41.2484 54.4795 41.6131 54.7923 41.8573C55.2896 42.2379 55.35 42.302 55.2455 42.3461C55.1813 42.37 54.6759 42.4863 54.1305 42.6026C53.5811 42.7185 52.7909 42.871 52.3777 42.9388C51.9607 43.0112 51.2547 43.1073 50.8055 43.1513C50.3561 43.1994 49.5219 43.2394 48.9486 43.2394C48.3547 43.2394 47.5966 43.1994 47.1957 43.1473C46.8065 43.0991 46.1849 42.9831 45.8199 42.8989C45.4548 42.8106 45.0057 42.6865 44.8251 42.6264C44.6406 42.5623 44.1514 42.4542 43.7341 42.3901C43.3211 42.326 42.6273 42.1898 42.194 42.0858C41.7647 41.9815 40.6058 41.6608 39.627 41.3645C38.6484 41.0722 37.4651 40.7396 36.9998 40.6233C36.5346 40.5032 35.8007 40.3511 35.3673 40.275C34.7217 40.1666 34.3327 40.1427 33.1894 40.1386C32.4273 40.1345 31.5971 40.1546 31.3486 40.1826C30.9435 40.2269 30.9032 40.2228 30.9875 40.1427C31.0356 40.0905 31.4848 39.8422 31.9823 39.5897C32.4795 39.3415 33.2977 38.9727 33.7952 38.7804C34.2925 38.5842 35.0144 38.3318 35.3955 38.2155C35.7806 38.0994 36.4584 37.9232 36.9076 37.8188C37.3569 37.7189 38.1188 37.5787 38.6003 37.5105C39.0814 37.4385 39.8276 37.3583 40.2609 37.3304C40.6939 37.302 41.5363 37.2902 42.1339 37.3061ZM14.1575 39.6979C13.8448 39.6859 13.6522 39.7098 13.4316 39.7981C13.2672 39.8622 13.0064 40.0345 12.8582 40.1746C12.7056 40.319 12.473 40.5994 12.3367 40.7955C12.2001 40.996 11.7149 41.8532 11.2577 42.6986C10.8045 43.5439 10.4515 44.253 10.4797 44.2731C10.5077 44.2892 11.2658 44.7138 12.1644 45.2145C13.0587 45.7112 14.4665 46.4926 15.2889 46.9411C16.1109 47.3938 16.8047 47.7666 16.833 47.7666C16.857 47.7666 17.0253 47.4821 17.21 47.1376C17.3903 46.789 17.5269 46.4964 17.5109 46.4804C17.4948 46.4644 16.9091 46.1322 16.2112 45.7433C15.5132 45.3507 14.9357 45.0223 14.9276 45.0103C14.9197 44.9984 14.9757 44.8619 15.056 44.7057C15.1362 44.5454 15.2765 44.3292 15.3729 44.2169C15.4774 44.0969 15.6576 43.9847 15.8181 43.9326C15.9667 43.8885 16.2273 43.8325 16.3918 43.8083C16.5602 43.7845 17.2541 43.7203 17.932 43.6681L19.1712 43.5719C19.6246 42.7789 19.8292 42.4262 19.9173 42.2819L20.0778 42.0135C18.4855 42.0817 17.7796 42.1299 17.4787 42.1619C17.1418 42.2019 16.7767 42.2939 16.5121 42.4021C16.2794 42.4983 16.0787 42.5784 16.0588 42.5784C16.0429 42.5743 16.0708 42.3741 16.119 42.1257C16.1911 41.7693 16.1992 41.609 16.1429 41.3565C16.107 41.1802 16.0347 40.9439 15.9786 40.8276C15.9264 40.7116 15.7659 40.4991 15.6255 40.3589C15.4811 40.2187 15.1884 40.0144 14.972 39.9103C14.667 39.7579 14.4865 39.7098 14.1575 39.6979Z" fill="white"/>
<path fill-rule="evenodd" clip-rule="evenodd" d="M13.5521 41.3609C13.4237 41.437 13.199 41.7733 12.798 42.4824C12.4811 43.0394 12.2284 43.5121 12.2322 43.5323C12.2364 43.5562 12.5894 43.7686 13.0145 44.005C13.7846 44.4296 13.7966 44.4375 13.885 44.3133C13.9331 44.2451 14.1616 43.8606 14.3863 43.4599C14.6109 43.0554 14.8354 42.5867 14.8835 42.4104C14.9318 42.2381 14.9559 42.0338 14.9399 41.9577C14.9197 41.8855 14.8716 41.7572 14.8315 41.6812C14.7955 41.601 14.6509 41.4728 14.5185 41.3968C14.3621 41.3046 14.1818 41.2524 14.0052 41.2524C13.8447 41.2524 13.6603 41.2968 13.5521 41.3609Z" fill="#006BB4"/>
<path fill-rule="evenodd" clip-rule="evenodd" d="M60.0586 42.2021C59.9583 42.6227 59.8138 43.2676 59.7377 43.6322L59.6014 44.2973C60.2632 45.1869 60.6323 45.7156 60.8489 46.0481C61.0694 46.3766 61.4023 46.9213 61.5908 47.2539C61.7835 47.5865 62.0399 48.0592 62.1684 48.3075C62.2926 48.556 62.5614 49.1571 62.7701 49.6377C62.9745 50.1183 63.2755 50.9037 63.4359 51.3844C63.5964 51.8691 63.8089 52.5864 63.9092 52.9868C64.0134 53.3835 64.1619 54.0765 64.2459 54.5254C64.3261 54.9699 64.4426 55.7591 64.4986 56.2722C64.5628 56.881 64.599 57.7143 64.6031 58.6557C64.6031 59.4531 64.5709 60.4184 64.5307 60.7991C64.4907 61.1797 64.4184 61.7766 64.3665 62.1252C64.3142 62.4738 64.1817 63.1788 64.0656 63.6956C63.9533 64.2085 63.7487 64.9978 63.6124 65.4423C63.4758 65.8911 63.1992 66.6804 62.9947 67.1931C62.7902 67.7099 62.4411 68.4953 62.2206 68.9439L61.8194 69.7571C62 70.5984 62.1444 71.3475 62.2567 71.9605C62.3729 72.5737 62.4732 73.0864 62.4811 73.0943C62.4934 73.1024 62.6659 72.8579 62.8663 72.5495C63.0708 72.2412 63.3796 71.7483 63.5561 71.4478C63.7285 71.1473 64.0857 70.4822 64.3422 69.9696C64.5989 69.4565 64.9879 68.5874 65.2047 68.0387C65.4253 67.4895 65.7382 66.5963 65.9025 66.0474C66.067 65.4986 66.2875 64.6732 66.3878 64.2086C66.488 63.7438 66.6123 63.1069 66.6646 62.7904C66.7168 62.4739 66.7971 61.8489 66.849 61.4001C66.9013 60.9554 66.9574 60.0299 66.9775 59.3488C67.0016 58.6118 66.9856 57.7143 66.9454 57.1174C66.9053 56.5686 66.833 55.8114 66.7849 55.4267C66.7367 55.0463 66.6284 54.3693 66.5444 53.9204C66.46 53.4718 66.2956 52.7467 66.1832 52.306C66.067 51.8653 65.8905 51.2402 65.7863 50.9198C65.6819 50.5952 65.4213 49.8821 65.2047 49.3332C64.988 48.7884 64.6068 47.931 64.3582 47.4343C64.1055 46.9374 63.7807 46.3126 63.6285 46.0482C63.48 45.7797 63.0749 45.1426 62.7338 44.6299C62.393 44.1131 61.8876 43.404 61.6107 43.0514C61.3341 42.699 60.913 42.1901 60.6763 41.9217L60.2431 41.437L60.0586 42.2021ZM58.7231 42.1942C58.4742 42.2423 57.2349 42.5107 55.9714 42.7912C54.7079 43.0674 53.3082 43.3639 52.8592 43.4439C52.4098 43.5282 51.6636 43.6445 51.1985 43.7005C50.605 43.7765 49.9391 43.8086 48.9645 43.8086C47.9336 43.8086 47.392 43.7847 46.8787 43.7045C46.4976 43.6444 45.9119 43.5323 45.5791 43.4481C45.2462 43.3679 44.769 43.2359 44.5201 43.1517C44.2715 43.0674 43.9948 42.9995 43.9028 42.9995H43.734C43.734 48.3075 43.7542 49.9382 43.7821 50.0463L43.8263 50.2428L58.2697 50.2387C58.3901 48.7203 58.4783 47.8591 58.5425 47.3423C58.6067 46.8292 58.731 45.9881 58.8153 45.4752C58.9034 44.9585 59.08 44.0211 59.2163 43.3921C59.3487 42.7632 59.4689 42.2103 59.4849 42.1701C59.4972 42.1219 59.449 42.0981 59.3405 42.1021C59.2483 42.1021 58.9717 42.1461 58.7231 42.1942ZM35.0665 42.5827C34.8339 42.6107 34.453 42.6908 34.2203 42.7631C33.9878 42.8351 33.6306 42.9753 33.4342 43.0755C33.2335 43.1756 32.9487 43.3399 32.8004 43.4402C32.6478 43.5442 32.3391 43.8045 32.1144 44.0211C31.8859 44.2414 31.569 44.5939 31.4126 44.8104C31.2522 45.0265 31.0398 45.351 30.9353 45.5352C30.8349 45.7156 30.6665 46.0683 30.5623 46.3166C30.4578 46.569 30.3056 47.0417 30.2213 47.3742C30.101 47.8508 30.061 48.1834 30.0327 48.9727C30.0088 49.77 30.0249 50.0903 30.1092 50.5712C30.1693 50.9037 30.2895 51.4045 30.3817 51.6889C30.474 51.9693 30.6344 52.3779 30.7426 52.5942C30.8509 52.8067 31.0595 53.1672 31.204 53.3917C31.3485 53.6158 31.6653 54.0084 31.906 54.2608C32.1465 54.5132 32.5075 54.8379 32.7083 54.978C32.9087 55.1224 33.2738 55.3345 33.5223 55.4549C33.771 55.5709 34.1961 55.7233 34.461 55.7953C34.8098 55.8833 35.1307 55.9194 35.608 55.9194C36.0732 55.9194 36.4102 55.8833 36.7271 55.8032C36.9757 55.7352 37.3568 55.603 37.5734 55.5068C37.7898 55.4106 38.1268 55.2223 38.3274 55.0862C38.5281 54.9539 38.8488 54.6977 39.0455 54.5172C39.2419 54.3371 39.5628 53.9763 39.7632 53.7082C39.9638 53.4436 40.2728 52.9268 40.4492 52.5622C40.6538 52.1457 40.8464 51.6289 40.9666 51.1759C41.1469 50.4951 41.1552 50.3829 41.1631 49.3331C41.1671 48.4678 41.1432 48.1033 41.0589 47.7068C40.9987 47.4223 40.8782 46.9895 40.7942 46.7412C40.7099 46.4929 40.5013 46.0201 40.3288 45.6917C40.1603 45.3629 39.8555 44.8902 39.6509 44.6378C39.4464 44.3816 39.1216 44.0371 38.925 43.8687C38.7286 43.6964 38.3916 43.4439 38.1751 43.3078C37.9624 43.1677 37.5815 42.9794 37.3288 42.8832C37.08 42.787 36.7271 42.683 36.5466 42.6468C36.3621 42.6147 36.0492 42.5745 35.8486 42.5588C35.6522 42.5427 35.2991 42.5547 35.0665 42.5827ZM71.2893 44.6661C72.1034 44.3496 72.8095 44.1011 72.8533 44.105C72.9013 44.1131 73.1701 44.7142 73.5071 45.5955C73.8198 46.4086 74.1492 47.274 74.2334 47.5264C74.3455 47.847 74.3936 48.1073 74.3936 48.4279C74.3978 48.7802 74.3692 48.9446 74.2655 49.153C74.193 49.3011 74.0448 49.5295 73.9368 49.6616C73.8282 49.7899 73.6033 49.9662 73.4355 50.0504C73.1827 50.1824 73.0538 50.2066 72.6486 50.2066C72.2718 50.2025 72.1109 50.1745 71.9105 50.0705C71.7663 49.9983 71.6382 49.9102 71.6222 49.8781C71.6061 49.8461 71.5581 49.8181 71.5178 49.8181C71.4697 49.8181 71.4258 49.9461 71.4056 50.1625C71.3854 50.3547 71.3095 50.6272 71.2371 50.7673C71.1688 50.9076 71.0205 51.12 70.9126 51.2401C70.8039 51.3605 70.579 51.5246 70.4147 51.6047C70.2301 51.6927 69.9453 51.765 69.6891 51.789C69.432 51.8131 69.1472 51.7971 68.9628 51.7531C68.7985 51.7129 68.5175 51.5887 68.3451 51.4724C68.1606 51.3523 67.94 51.1361 67.8158 50.9478C67.6993 50.7755 67.2543 49.7499 66.8251 48.6721C66.2955 47.3382 66.0669 46.6973 66.1152 46.6731C66.151 46.6491 67.0016 46.3166 67.9961 45.9319C68.9949 45.5474 70.4746 44.9785 71.2893 44.6661Z" fill="white"/>
<path fill-rule="evenodd" clip-rule="evenodd" d="M22.2756 45.936C21.9949 46.3607 21.634 46.9255 21.4816 47.1939C21.329 47.4583 20.9721 48.1514 20.6915 48.7323C20.4107 49.3135 20.0416 50.1546 19.8773 50.6034C19.7087 51.0479 19.472 51.757 19.3518 52.1696C19.2353 52.5865 19.0551 53.2795 18.9588 53.7082C18.8625 54.1408 18.73 54.8737 18.6658 55.3386C18.5978 55.8033 18.5094 56.5888 18.4735 57.0894C18.4292 57.6423 18.4131 58.4835 18.4373 59.2609C18.4573 59.958 18.5134 60.8793 18.5657 61.3121C18.6176 61.7446 18.714 62.4097 18.7822 62.7904C18.8505 63.1709 19.0028 63.8641 19.1191 64.3287C19.2353 64.7935 19.4679 65.5787 19.6366 66.0795C19.805 66.5761 20.0658 67.2692 20.214 67.6178C20.3626 67.9664 20.6832 68.6434 20.9281 69.1243C21.1726 69.6049 21.5537 70.298 21.7743 70.6626C21.9948 71.0271 22.3682 71.6 22.6047 71.9286C22.8414 72.261 23.1822 72.7258 23.3626 72.9541C23.5473 73.1865 23.9683 73.6873 24.3053 74.068C24.6382 74.4445 25.2398 75.0653 25.6369 75.4419C26.3307 76.0991 26.3628 76.123 26.3789 75.959C26.3871 75.8666 26.3348 75.2458 26.2586 74.5806L26.1221 73.3708C25.5166 72.7218 25.1355 72.277 24.887 71.9604C24.6343 71.6441 24.245 71.1313 24.0243 70.8147C23.8037 70.4982 23.4308 69.9132 23.1942 69.5168C22.9534 69.1201 22.6006 68.467 22.4081 68.0704C22.2114 67.6699 21.9306 67.0451 21.7824 66.6804C21.6299 66.3157 21.4093 65.7188 21.289 65.3542C21.1688 64.9896 20.9762 64.3245 20.8598 63.876C20.7474 63.4271 20.587 62.6539 20.5029 62.1572C20.4227 61.6565 20.3263 60.9392 20.2943 60.5586C20.2581 60.1741 20.2302 59.2928 20.2302 58.5956C20.2302 57.8985 20.2704 56.9492 20.3223 56.4843C20.3705 56.0197 20.4668 55.3267 20.535 54.946C20.603 54.5654 20.7276 53.9685 20.8117 53.6198C20.9001 53.2713 21.0565 52.6986 21.1647 52.35C21.273 52.0013 21.4655 51.4485 21.5899 51.116C21.7142 50.7834 21.9748 50.1704 22.1633 49.7578C22.3559 49.3412 22.6567 48.7403 22.8374 48.4159L23.162 47.831C22.9415 45.8397 22.8571 45.2387 22.8332 45.2107C22.813 45.1868 22.5604 45.5114 22.2756 45.936ZM33.3138 45.319C33.1133 45.363 32.8404 45.4432 32.7083 45.4995C32.5757 45.5513 32.4594 45.5957 32.4514 45.5957C32.4433 45.5957 32.4395 45.5513 32.4395 45.4995C32.4433 45.4234 32.3955 45.4112 32.1506 45.4473C31.9942 45.4715 31.858 45.4913 31.8539 45.4954C31.8498 45.4995 32.0745 47.4706 32.3512 49.8783C32.628 52.2819 32.8566 54.2609 32.8566 54.2691C32.8566 54.2769 32.9611 54.281 33.0853 54.281C33.2096 54.281 33.3417 54.2609 33.3779 54.237C33.4302 54.2049 33.4142 53.9286 33.3338 53.2274C33.2458 52.4582 33.2375 52.2539 33.2977 52.2137C33.3379 52.1897 33.6307 52.0856 33.9476 51.9855C34.3245 51.8653 34.7056 51.789 35.0665 51.7651C35.3673 51.7451 35.8246 51.761 36.0934 51.8013C36.358 51.8371 37.1202 52.0015 37.7819 52.1656C38.4478 52.3259 39.1818 52.4783 39.4144 52.5023L39.8394 52.5425C39.7632 51.8573 39.611 51.0761 39.4463 50.3588C39.2821 49.6457 39.1175 48.7524 39.0776 48.3679C39.0254 47.8389 39.0254 47.5105 39.0776 46.9818C39.1175 46.6011 39.1858 46.1243 39.2299 45.9241C39.278 45.7276 39.3019 45.5513 39.286 45.5353C39.2698 45.5155 39.0333 45.5513 38.7607 45.6116C38.4879 45.6717 37.9825 45.7678 37.6335 45.8198C37.0318 45.9121 36.968 45.9121 36.4544 45.8078C36.1534 45.7477 35.5839 45.6075 35.1868 45.4953C34.7858 45.3872 34.2845 45.2832 34.0677 45.2671C33.8392 45.247 33.5223 45.271 33.3138 45.319Z" fill="#006BB4"/>
<path fill-rule="evenodd" clip-rule="evenodd" d="M38.3875 45.8073C38.0228 45.8834 37.5334 45.9676 37.3006 45.9877C37.0038 46.0158 36.7553 45.9997 36.4704 45.9315C36.2458 45.8796 36.0493 45.8353 36.0333 45.8353C36.0133 45.8353 36.0012 46.16 36.0012 46.5605V47.2818H38.9613C38.9653 46.837 39.0134 46.4724 39.0695 46.1839C39.1337 45.8636 39.1498 45.6552 39.1136 45.6592C39.0815 45.663 38.7526 45.7271 38.3875 45.8073ZM34.0961 45.8073C33.9636 45.8554 33.7792 45.9718 33.6829 46.0598C33.5866 46.1518 33.4583 46.3363 33.3981 46.4684C33.3261 46.6208 33.2858 46.8449 33.2858 47.0735C33.2858 47.3098 33.3261 47.5301 33.4102 47.7064C33.4743 47.8545 33.5785 48.0268 33.6348 48.0909C33.6908 48.1509 33.8393 48.2512 33.9636 48.3153C34.0879 48.3794 34.2685 48.4275 34.3687 48.4275C34.469 48.4275 34.6415 48.3914 34.7456 48.3473C34.8542 48.3033 35.0464 48.1471 35.1708 48.0028C35.3152 47.8306 35.4197 47.6263 35.4637 47.4339C35.5037 47.2695 35.516 47.0171 35.4958 46.877C35.4757 46.7326 35.4075 46.5164 35.3435 46.3922C35.2831 46.2681 35.1468 46.0918 35.0426 45.9996C34.9382 45.9116 34.7497 45.8072 34.6254 45.7753C34.501 45.7432 34.3847 45.7152 34.3687 45.7192C34.3526 45.7192 34.2324 45.7592 34.0961 45.8073ZM32.4956 45.9237C32.4956 45.9597 32.6321 47.2096 32.8046 48.7001C32.973 50.1943 33.1252 51.456 33.1454 51.5082C33.1655 51.5563 33.2055 51.4481 33.2376 51.264C33.2657 51.0835 33.278 50.5109 33.2618 49.998C33.2417 49.4853 33.1854 48.7639 33.1335 48.3996C33.0812 48.035 32.9408 47.3419 32.8206 46.861C32.7042 46.3804 32.584 45.9597 32.5519 45.9237C32.5116 45.8834 32.4956 45.8834 32.4956 45.9237Z" fill="white"/>
<path fill-rule="evenodd" clip-rule="evenodd" d="M71.5937 46.1444C71.2448 46.2805 70.9127 46.4008 70.852 46.4128C70.7957 46.4287 70.7476 46.4646 70.7476 46.5008C70.7476 46.5328 70.9085 46.9735 71.109 47.4783C71.3332 48.0552 71.5457 48.488 71.6661 48.6322C71.8388 48.8325 71.907 48.8685 72.1675 48.8925C72.4 48.9126 72.5129 48.8925 72.6646 48.7963C72.7733 48.7284 72.9014 48.608 72.9494 48.536C73.0017 48.4599 73.0581 48.3037 73.0741 48.1874C73.1027 48.0233 73.0261 47.7587 72.7211 46.9534C72.5087 46.3885 72.3081 45.9199 72.2803 45.9121C72.2517 45.9039 71.9433 46.008 71.5937 46.1444Z" fill="#006BB4"/>
<path fill-rule="evenodd" clip-rule="evenodd" d="M59.2083 46.6327C59.2043 46.6607 59.1521 47.1335 59.0878 47.6904C59.0239 48.2471 58.9396 49.1005 58.9075 49.5893C58.8714 50.0821 58.8433 51.2759 58.8433 52.2452C58.8433 53.215 58.8714 54.3887 58.9034 54.8535C58.9396 55.3181 59.0079 56.0794 59.0598 56.544C59.108 57.0088 59.2204 57.8381 59.3046 58.383C59.3887 58.9319 59.5611 59.9094 59.6895 60.5583C59.8179 61.2035 60.0706 62.3731 60.2551 63.1504C60.4398 63.9316 60.7283 65.1254 60.897 65.8065C61.0654 66.4876 61.2138 67.0565 61.2299 67.0726C61.246 67.0886 61.314 66.9683 61.3823 66.8001C61.4543 66.636 61.6308 66.1592 61.7835 65.7465C61.9317 65.3297 62.1604 64.5847 62.2886 64.0878C62.417 63.5871 62.5774 62.8981 62.6416 62.5495C62.7099 62.201 62.8101 61.5198 62.8703 61.0392C62.9466 60.4103 62.9787 59.7372 62.9745 58.6274C62.9745 57.5257 62.9466 56.8445 62.8703 56.2436C62.81 55.779 62.6696 54.9375 62.5573 54.3727C62.4411 53.8078 62.2367 52.9786 62.1001 52.5339C61.9678 52.0853 61.7032 51.336 61.5184 50.8714C61.334 50.4066 61.0093 49.6736 60.7925 49.2449C60.576 48.8121 60.1989 48.119 59.9544 47.7065C59.7056 47.2897 59.4369 46.8691 59.3565 46.7689C59.2766 46.6686 59.2083 46.6085 59.2083 46.6327Z" fill="white"/>
<path fill-rule="evenodd" clip-rule="evenodd" d="M68.6661 47.2658C68.0924 47.4821 67.7717 47.6342 67.7756 47.6864C67.7796 47.7304 67.9562 48.1953 68.1647 48.7158C68.3693 49.2366 68.594 49.7455 68.662 49.8458C68.7262 49.942 68.8787 50.0858 68.995 50.1622C69.1114 50.2383 69.2879 50.3025 69.3881 50.3025C69.4884 50.3025 69.6892 50.2383 69.841 50.1661C69.9901 50.09 70.1738 49.9338 70.2546 49.8178C70.3751 49.6374 70.3912 49.5573 70.3625 49.2728C70.3465 49.0926 70.21 48.6039 70.0659 48.187C69.9176 47.7744 69.745 47.3217 69.685 47.1815L69.5687 46.9292L68.6661 47.2658Z" fill="#006BB4"/>
<path fill-rule="evenodd" clip-rule="evenodd" d="M36.009 47.9991L36.0333 48.7161C36.968 48.8283 37.6458 48.8805 38.139 48.9006L39.0333 48.9446C38.9732 48.6162 38.9532 48.2437 38.9451 47.903L38.9332 47.2861L35.9893 47.2822L36.009 47.9991Z" fill="#EC3237"/>
<path fill-rule="evenodd" clip-rule="evenodd" d="M10.4716 47.983C10.3031 48.027 10.0184 48.1392 9.83778 48.2275C9.63723 48.3234 9.33244 48.5597 9.07978 48.8162C8.79107 49.1088 8.5866 49.3851 8.43009 49.6976C8.2977 49.966 8.15742 50.3787 8.085 50.7231C8.0211 51.0356 7.96472 51.4602 7.96472 51.6567C7.96472 51.857 8.00497 52.1814 8.057 52.3819C8.10917 52.5821 8.2496 52.9187 8.36978 53.135C8.4903 53.3512 8.77508 53.7118 8.99942 53.9362C9.28836 54.2207 9.54515 54.4049 9.84998 54.5491C10.0946 54.6613 10.4797 54.8096 10.7123 54.8776C10.9448 54.9417 11.3141 55.03 11.5305 55.07C11.7589 55.114 12.1482 55.13 12.4651 55.114C12.8101 55.0938 13.1307 55.0338 13.3394 54.9537C13.5239 54.8816 13.8168 54.7296 13.9892 54.6132C14.1658 54.4969 14.4222 54.2848 14.5667 54.1364C14.707 53.9921 14.9238 53.6998 15.0482 53.4876C15.1765 53.2792 15.349 52.8866 15.433 52.622C15.5174 52.3576 15.6017 51.921 15.6216 51.6566C15.6417 51.3682 15.6257 51.0155 15.5816 50.7832C15.5417 50.5669 15.4132 50.1944 15.3009 49.954C15.1644 49.6696 14.9721 49.3932 14.7473 49.1647C14.5548 48.9724 14.2098 48.7002 13.9773 48.5638C13.7445 48.4277 13.3756 48.2592 13.1591 48.1871C12.9422 48.1151 12.5894 48.019 12.3727 47.9709C12.1603 47.9269 11.711 47.8908 11.3781 47.8948C11.0453 47.8948 10.6361 47.9349 10.4716 47.983ZM34.6134 48.6761C34.3607 48.704 33.9756 48.7842 33.7511 48.8524L33.3417 48.9725C33.366 49.8979 33.3861 50.1864 33.4022 50.2024C33.4182 50.2225 33.5826 50.2065 33.7672 50.1662C33.9636 50.1181 34.5089 50.0901 35.1267 50.0942C35.7686 50.0942 36.4263 50.1342 36.8755 50.2024C37.2767 50.2587 37.9907 50.3265 38.464 50.3507C39.0255 50.3747 39.3263 50.3706 39.3222 50.3307C39.3222 50.2986 39.2861 50.1223 39.2381 49.9381C39.19 49.7539 39.1217 49.4571 39.0855 49.273L39.0213 48.9445C37.5935 48.8763 36.8675 48.8203 36.4865 48.7682C36.1012 48.7201 35.628 48.6682 35.4276 48.6522C35.2271 48.6361 34.862 48.648 34.6134 48.6761Z" fill="white"/>
<path fill-rule="evenodd" clip-rule="evenodd" d="M10.8325 49.3934C10.7002 49.4214 10.4835 49.4975 10.3512 49.5616C10.2188 49.6296 10.0023 49.7898 9.87387 49.918C9.74545 50.0463 9.56903 50.2987 9.48082 50.4829C9.36437 50.7274 9.32039 50.9358 9.30024 51.2964C9.28411 51.6767 9.30426 51.837 9.39275 52.0495C9.4566 52.1976 9.629 52.454 9.77757 52.6144C9.92609 52.7747 10.1587 52.967 10.2912 53.0469C10.4234 53.1232 10.7884 53.2753 11.1052 53.3835C11.5947 53.5517 11.763 53.58 12.2523 53.58C12.7177 53.58 12.882 53.5558 13.1146 53.4476C13.2713 53.3756 13.5319 53.1993 13.6882 53.055C13.8566 52.8988 14.0331 52.6584 14.1216 52.466C14.2016 52.2818 14.278 51.9734 14.294 51.749C14.3139 51.4806 14.294 51.2602 14.2258 51.0559C14.1735 50.8877 14.0493 50.6391 13.9492 50.4951C13.8447 50.3547 13.5961 50.1305 13.3875 49.9983C13.1788 49.8622 12.8059 49.6899 12.5573 49.6097C12.3046 49.5255 11.9396 49.4334 11.739 49.3973C11.5424 49.3614 11.3099 49.3372 11.2255 49.3413C11.1415 49.3454 10.965 49.3693 10.8325 49.3934Z" fill="#006BB4"/>
<path fill-rule="evenodd" clip-rule="evenodd" d="M34.2203 50.0945C34.1199 50.1106 33.9034 50.1505 33.735 50.1826L33.4342 50.2429C33.3298 51.6209 33.3017 52.0296 33.3059 52.0377C33.3098 52.0497 33.5144 51.9896 33.7671 51.9054C34.0157 51.8252 34.3968 51.725 34.6133 51.6929C34.8257 51.657 35.1829 51.6291 35.3954 51.6291C35.6118 51.625 36.0332 51.669 36.3341 51.7212C36.6308 51.7731 37.3006 51.9215 37.8141 52.0497C38.3274 52.1817 38.9291 52.314 39.1418 52.3501C39.3583 52.3822 39.5708 52.4102 39.6111 52.4102C39.6551 52.4102 39.6872 52.3341 39.6872 52.2298C39.6872 52.1298 39.6311 51.7731 39.5628 51.4327C39.4946 51.0922 39.4144 50.7194 39.3823 50.6035L39.3302 50.391C37.9425 50.3228 37.2565 50.259 36.9075 50.2108C36.5585 50.1587 35.8526 50.1065 35.3353 50.0945C34.822 50.0785 34.3166 50.0826 34.2203 50.0945ZM43.7944 53.8284V57.418C44.1471 57.4661 44.5765 57.5182 44.9735 57.5663C45.3745 57.6182 46.3252 57.7264 47.0912 57.8106C47.8533 57.8948 49.2292 58.0309 50.1396 58.1111C51.0541 58.1953 52.4419 58.3034 53.2239 58.3553C54.0021 58.4075 55.5261 58.4675 56.6053 58.4836C57.6881 58.4996 58.6026 58.4917 58.6387 58.4637C58.6869 58.4275 58.6749 58.1991 58.5947 57.6301C58.5346 57.2017 58.4383 56.3562 58.3782 55.7593C58.2939 54.8899 58.2778 54.237 58.2898 52.4582L58.3099 50.2388H43.7945L43.7944 53.8284Z" fill="#EC3237"/>
<path fill-rule="evenodd" clip-rule="evenodd" d="M68.622 53.5996C68.6299 53.9922 68.65 54.3408 68.6579 54.3729C68.6702 54.4049 69.0471 54.5533 69.4963 54.7054L70.3145 54.9779C70.3709 56.5203 70.3946 57.1813 70.403 57.4457L70.4148 57.9225L68.8427 58.6036C68.8427 59.7814 68.8587 60.1419 68.8748 60.162C68.8908 60.1819 70.5234 59.4888 72.5003 58.6234C74.478 57.7543 76.0942 57.0411 76.0983 57.0371C76.1025 57.0329 76.0865 56.6765 76.0705 56.2478L76.0343 55.4708C70.4629 53.5195 68.7904 52.9386 68.7221 52.9187C68.606 52.8905 68.6019 52.9147 68.622 53.5996Z" fill="white"/>
<path fill-rule="evenodd" clip-rule="evenodd" d="M71.6264 56.3683C71.6459 56.897 71.6661 57.3336 71.6745 57.3418C71.6786 57.3497 72.212 57.1453 72.8617 56.885C73.5114 56.6286 74.0929 56.3882 74.1611 56.3523C74.2252 56.3202 74.2538 56.2759 74.2217 56.2599C74.189 56.2401 73.6319 56.0596 72.9815 55.8513C72.336 55.6432 71.7546 55.4627 71.6982 55.4427C71.5979 55.4106 71.5937 55.4747 71.6264 56.3683Z" fill="#006BB4"/>
<path fill-rule="evenodd" clip-rule="evenodd" d="M37.5413 57.1255C37.2083 57.1535 36.6268 57.2177 36.2419 57.2696C35.8608 57.3217 35.0867 57.4579 34.5212 57.57C33.9557 57.6863 33.0331 57.9145 32.4675 58.0789C31.902 58.2434 31.2481 58.4476 31.0155 58.5356C30.7829 58.6199 30.5142 58.724 30.4179 58.7638L30.2413 58.8361C30.3056 59.5852 30.3619 60.3464 30.4097 61.0115C30.4578 61.6725 30.5183 62.8624 30.5464 63.6516C30.5743 64.565 30.6144 65.0739 30.6546 65.062C30.6867 65.0459 31.0398 64.9617 31.4407 64.8737C31.8378 64.7854 32.5437 64.6453 33.009 64.5692C33.4742 64.489 34.2244 64.3849 34.6735 64.3328C35.1188 64.2806 35.9892 64.2086 36.6066 64.1725C37.3005 64.1285 38.4196 64.1124 39.567 64.1363C40.5815 64.1564 41.9132 64.2124 42.5269 64.2646C43.1405 64.3167 44.039 64.401 44.5202 64.4529C45.0017 64.5009 46.7302 64.7053 48.3588 64.9017C49.9873 65.0979 51.7118 65.3022 52.1974 65.3544C52.6786 65.4065 53.549 65.4905 54.1305 65.5386C54.7804 65.5987 56.1521 65.6429 57.7082 65.659C59.3689 65.675 60.2311 65.6669 60.2311 65.6269C60.2311 65.5907 60.1269 65.1382 59.9944 64.6132C59.8621 64.0923 59.6336 63.1069 59.485 62.4257C59.3327 61.7487 59.1162 60.675 58.9997 60.0461C58.8833 59.413 58.7751 58.8041 58.7553 58.6878L58.7232 58.4756C55.6588 58.4675 54.1626 58.4195 53.2843 58.3594C52.434 58.3034 50.8857 58.1792 49.8388 58.0831C48.7921 57.9869 47.1997 57.8226 46.3051 57.7225C45.4066 57.6182 44.1152 57.458 43.4332 57.362C42.7516 57.2658 41.8491 57.1574 41.4239 57.1216C41.0029 57.0855 40.0883 57.0615 39.3983 57.0653C38.7125 57.0695 37.8742 57.0973 37.5413 57.1255ZM8.97553 57.3619C8.78293 57.3937 8.48613 57.4861 8.30962 57.5662C8.13707 57.6461 7.86842 57.8425 7.71607 58.0028C7.55147 58.1791 7.38721 58.4316 7.31106 58.6396C7.20658 58.908 7.17853 59.1205 7.17853 59.5612C7.17853 59.8777 7.22261 60.795 7.27488 61.5965C7.32709 62.4015 7.375 63.0665 7.37907 63.0785C7.38314 63.0866 9.00755 62.9826 10.985 62.8503C12.9623 62.7142 14.6069 62.5979 14.639 62.586C14.6789 62.57 14.6909 62.3056 14.6711 61.8687C14.6551 61.4843 14.6271 61.1596 14.6109 61.1436C14.5949 61.1238 14.1175 61.1476 13.5521 61.1958C12.9865 61.2398 12.3688 61.2759 12.1762 61.28H11.8313C11.8313 60.8592 11.791 60.3383 11.739 59.8498C11.6588 59.0643 11.6226 58.9081 11.4423 58.5356C11.3177 58.2713 11.1415 58.0267 10.9769 57.8787C10.8325 57.7505 10.5757 57.5823 10.4114 57.5021C10.2269 57.4179 9.95408 57.3497 9.71754 57.3336C9.50097 57.3177 9.16799 57.3336 8.97553 57.3619Z" fill="white"/>
<path fill-rule="evenodd" clip-rule="evenodd" d="M8.93145 58.9839C8.81495 59.0481 8.67055 59.1764 8.61455 59.2684C8.55817 59.3646 8.49394 59.561 8.47407 59.7131C8.44995 59.8615 8.45397 60.338 8.47829 60.7668L8.5182 61.5519C9.3043 61.484 9.76972 61.44 10.0583 61.4158L10.5798 61.3718C10.5237 60.25 10.4674 59.7892 10.4193 59.621C10.3673 59.4566 10.2509 59.2485 10.1546 59.1563C10.0624 59.0681 9.91388 58.9678 9.82174 58.932C9.72946 58.8958 9.54103 58.8679 9.39653 58.872C9.2562 58.872 9.04761 58.9239 8.93145 58.9839Z" fill="#006BB4"/>
<path fill-rule="evenodd" clip-rule="evenodd" d="M68.8467 61.1156C68.8266 61.2237 68.7784 61.5483 68.7382 61.8366C68.6941 62.1292 68.674 62.3656 68.6899 62.3656C68.7101 62.3656 69.416 62.4778 70.2623 62.6139C71.109 62.7501 71.8067 62.8663 71.8109 62.8782C71.8144 62.8864 71.7266 63.5034 71.6138 64.2444C71.5017 64.9855 71.4139 65.6145 71.4139 65.6387C71.4098 65.6667 71.3373 65.6867 71.2448 65.6827C71.1528 65.6827 70.4391 65.5786 69.6606 65.4504C68.8787 65.318 68.2327 65.2181 68.2289 65.222C68.2208 65.2301 68.1606 65.5585 68.0965 65.9553C68.0282 66.3557 67.9762 66.6845 67.9841 66.6923C67.9923 66.7002 68.9509 66.8527 70.1139 67.0368C71.2767 67.2211 72.8532 67.4655 73.6158 67.5857C74.3817 67.7019 75.0592 67.7981 75.1275 67.7981C75.2354 67.7981 75.2598 67.722 75.3566 67.089C75.4206 66.7002 75.4603 66.3758 75.4485 66.3718C75.4367 66.3639 74.803 66.2596 74.0405 66.1395C73.2745 66.0153 72.645 65.9113 72.6366 65.9072C72.629 65.899 72.7209 65.2742 72.8372 64.5091C72.9577 63.7477 73.0663 63.1068 73.0823 63.0908C73.0983 63.0747 73.6875 63.1508 74.3894 63.259C75.0955 63.3671 75.7333 63.4554 75.8057 63.4554C75.8816 63.4554 75.9422 63.4312 75.9422 63.4074C75.9457 63.3832 75.9896 63.0666 76.0502 62.7061C76.1184 62.2896 76.1344 62.0451 76.0941 62.0331C76.062 62.0212 74.4576 61.7648 72.5288 61.4642C70.6034 61.1637 68.9909 60.9194 68.9509 60.9194C68.9105 60.9194 68.8628 61.0074 68.8467 61.1156Z" fill="white"/>
<path fill-rule="evenodd" clip-rule="evenodd" d="M36.7873 64.1521C36.6388 64.1643 36.1334 64.2043 35.6683 64.2404C35.2029 64.2763 34.3487 64.3725 33.7672 64.4567C33.1853 64.5368 32.3273 64.6849 31.8619 64.7851C31.3967 64.8813 30.9192 64.9854 30.8032 65.0215L30.5945 65.0777C30.5304 68.1905 30.4662 69.6528 30.414 70.3298C30.3658 71.0109 30.2657 72.0966 30.1975 72.7457C30.1332 73.3907 30.0649 74.0074 30.0489 74.1159C30.0328 74.224 30.0411 74.3121 30.0649 74.3161C30.0892 74.3161 30.3699 74.2039 30.6827 74.0637C30.9996 73.9276 31.6535 73.667 32.1347 73.4907C32.6161 73.3105 33.3779 73.0582 33.8273 72.9299C34.2765 72.8016 34.9543 72.6254 35.3354 72.5414C35.7205 72.4572 36.3701 72.333 36.7873 72.2648C37.2005 72.2007 37.8541 72.1127 38.2352 72.0687C38.6204 72.0285 39.667 71.9964 40.5617 71.9964C41.4601 71.9964 42.5347 72.0285 42.9521 72.0725C43.3652 72.1127 44.0991 72.2007 44.5806 72.2689C45.0617 72.333 46.0684 72.5094 46.8187 72.6615C47.5644 72.8099 49.0727 73.1623 50.1717 73.4426C51.2667 73.7192 52.8469 74.1278 53.6773 74.3441C54.5075 74.5603 55.7307 74.8571 56.3965 75.0051C57.0584 75.1535 58.0812 75.3537 58.6626 75.454C59.2445 75.5539 60.0586 75.6743 60.4756 75.7262C60.8888 75.7742 61.4543 75.8384 61.7312 75.8664L62.2284 75.9106C62.1803 75.4898 62.1001 74.853 62.016 74.224C61.9358 73.591 61.7712 72.5453 61.651 71.9002C61.5346 71.2512 61.302 70.1255 61.1375 69.3963C60.9731 68.6674 60.7084 67.5374 60.548 66.8924L60.2591 65.7146C56.3365 65.6546 54.8323 65.5983 54.1585 65.5424C53.5289 65.4863 52.5102 65.3861 51.8925 65.3179C51.2788 65.25 49.5659 65.0495 48.0859 64.8694C46.606 64.6889 45.0017 64.5006 44.5202 64.4526C44.039 64.4007 43.1405 64.3164 42.5269 64.2643C41.873 64.2083 40.5054 64.1602 39.234 64.1483C38.0389 64.1401 36.9359 64.1402 36.7873 64.1521Z" fill="#EC3237"/>
<path fill-rule="evenodd" clip-rule="evenodd" d="M12.9183 64.2924C12.8339 64.3165 12.6294 64.4087 12.4651 64.4929C12.3006 64.5769 12.056 64.7532 11.9235 64.8814C11.7951 65.0097 11.6186 65.2621 11.5346 65.4423C11.378 65.7747 11.378 65.7867 11.378 67.3734C11.378 68.515 11.354 69.0198 11.3017 69.1402C11.2617 69.2324 11.1373 69.3483 11.0292 69.4005C10.9209 69.4564 10.7723 69.4806 10.6961 69.4605C10.6238 69.4404 10.4756 69.3524 10.3712 69.2603C10.2629 69.1682 10.1024 68.9318 10.0102 68.7316C9.91388 68.5351 9.82174 68.2346 9.80188 68.0703C9.77766 67.9021 9.78967 67.6738 9.82581 67.5576C9.86204 67.4413 9.98223 67.2652 10.0946 67.165C10.2069 67.0647 10.3472 66.9566 10.4033 66.9207C10.4917 66.8686 10.4797 66.8004 10.251 66.1994C10.1147 65.8348 9.99826 65.5264 9.99414 65.5145C9.99036 65.5063 9.87798 65.5305 9.74555 65.5705C9.58913 65.6186 9.37265 65.7747 9.13592 66.0112C8.87133 66.2755 8.73071 66.476 8.63848 66.7284C8.54218 66.9767 8.50629 67.2091 8.50629 67.5577C8.50629 67.8219 8.55037 68.2227 8.60254 68.4472C8.65863 68.6712 8.81897 69.0959 8.96357 69.3965C9.11998 69.7249 9.32857 70.0496 9.50097 70.226C9.65341 70.3822 9.88995 70.5743 10.0345 70.6465C10.251 70.7628 10.3834 70.7827 10.8927 70.7827C11.4342 70.7827 11.5305 70.7666 11.7992 70.6223C11.9676 70.5343 12.1882 70.3741 12.2965 70.2618C12.4009 70.1496 12.5614 69.8972 12.6536 69.6969C12.7619 69.4606 12.8299 69.1842 12.8541 68.8837C12.8742 68.6355 12.8701 67.9983 12.846 67.4655C12.8142 66.7523 12.822 66.4279 12.8781 66.2277C12.9343 66.0312 13.0105 65.919 13.1628 65.8188C13.2793 65.7427 13.4599 65.6827 13.5681 65.6827C13.6764 65.6867 13.8529 65.7229 13.9611 65.7669C14.0694 65.815 14.23 65.931 14.318 66.0231C14.4103 66.1192 14.5506 66.3477 14.639 66.5319C14.7231 66.7124 14.8115 67.0129 14.8316 67.1929C14.8555 67.3973 14.8395 67.6176 14.7913 67.766C14.7514 67.898 14.6428 68.1024 14.5588 68.2186C14.4704 68.3308 14.2859 68.4952 14.1497 68.5791L13.897 68.7316C14.3181 69.713 14.4506 70.0134 14.4666 70.0295C14.4827 70.0455 14.651 69.9774 14.8355 69.8773C15.0202 69.7811 15.2968 69.5768 15.4532 69.4247C15.6055 69.2764 15.8062 69.0039 15.8944 68.8237C15.9866 68.6391 16.0911 68.3147 16.1269 68.0985C16.1712 67.8219 16.1712 67.5736 16.1269 67.253C16.091 67.0047 15.9988 66.6121 15.9186 66.3798C15.8421 66.1475 15.6858 65.7829 15.5735 65.5704C15.4573 65.3583 15.2285 65.0457 15.0642 64.8735C14.8955 64.701 14.6271 64.4967 14.4584 64.4168C14.2177 64.2965 14.0494 64.2644 13.6121 64.2565C13.3155 64.2483 13.0025 64.2644 12.9183 64.2924ZM67.0215 68.6674C66.8932 69.0478 66.8009 69.3684 66.8171 69.3844C66.8371 69.3964 67.6113 69.673 68.5418 69.9973C69.4724 70.322 71.0164 70.8548 71.9712 71.1833C73.5435 71.7239 73.7121 71.7683 73.7601 71.6721C73.7879 71.6157 73.9008 71.3033 74.017 70.9831C74.1291 70.6624 74.2093 70.3859 74.1891 70.3739C74.173 70.3619 73.1264 70.0055 71.8626 69.5767C70.6036 69.1521 69.0593 68.6193 68.4336 68.3908C67.8118 68.1626 67.2904 67.9781 67.2784 67.9781C67.2664 67.9781 67.1499 68.2868 67.0215 68.6674ZM66.5523 70.2859C66.6005 70.2098 66.6528 70.1495 66.6687 70.1495C66.6849 70.1495 67.2342 70.8507 67.892 71.7041C68.5459 72.5574 69.6207 73.9436 71.4698 76.3033L71.0924 76.9483C70.8884 77.3007 70.6759 77.6052 70.6279 77.6212C70.5756 77.6373 70.3027 77.6171 70.022 77.5772C69.7373 77.537 68.0244 77.2607 66.2152 76.9643C64.4023 76.6679 62.9145 76.4234 62.9063 76.4234C62.8984 76.4234 62.8902 76.3995 62.8902 76.3633C62.8902 76.3312 63.0668 76.0188 63.2833 75.6703C63.6243 75.1214 63.6965 75.0413 63.8129 75.0652C63.889 75.0812 64.2742 75.1494 64.6751 75.2176C65.2448 75.3097 65.4131 75.3217 65.4654 75.2616C65.5015 75.2214 65.8505 74.6647 66.2353 74.0276C66.6243 73.3867 66.9412 72.8539 66.9412 72.8338C66.9412 72.8178 66.7168 72.5254 66.448 72.1847C66.1752 71.8484 65.9304 71.5397 65.9065 71.5077C65.8784 71.4757 65.9946 71.2194 66.1632 70.9349C66.3276 70.6543 66.5042 70.3619 66.5523 70.2859ZM16.6042 70.6345C16.8849 70.4701 17.1257 70.334 17.1339 70.334C17.1418 70.334 17.7957 71.4036 18.5817 72.7137C19.3719 74.0277 20.0055 75.1095 19.9894 75.1215C19.9734 75.1334 19.3598 75.4939 18.6299 75.9268C17.8958 76.3592 16.484 77.2045 15.4852 77.8054C14.4905 78.4106 13.6723 78.8952 13.6682 78.8833C13.6644 78.8751 13.0466 77.8457 12.2926 76.5915C11.5384 75.3377 10.9247 74.2882 10.9247 74.2521C10.9247 74.22 11.1613 74.0555 11.4542 73.8874C11.7429 73.7192 11.9837 73.591 11.9877 73.603C11.9877 73.6112 12.4047 74.3121 12.91 75.1573C13.4155 76.0028 13.8728 76.756 14.0373 76.9603L15.381 76.155L14.4543 74.6167C13.9451 73.7674 13.5278 73.0501 13.5238 73.018C13.5238 72.9822 13.7566 72.8138 14.5506 72.3212L14.6909 72.5494C14.7673 72.6735 15.1926 73.3786 15.6296 74.116C16.0667 74.8572 16.4519 75.4579 16.484 75.4579C16.5161 75.4579 16.9051 75.2416 17.3462 74.9691C17.7834 74.7007 18.1525 74.4765 18.1604 74.4724C18.1727 74.4683 17.98 74.1399 17.7352 73.7394C17.4908 73.3427 17.0295 72.5814 16.7126 72.0527C16.3918 71.5196 16.1231 71.051 16.1108 71.0111C16.0988 70.9671 16.3154 70.8027 16.6042 70.6345Z" fill="white"/>
<path fill-rule="evenodd" clip-rule="evenodd" d="M67.2463 74.7208L66.757 75.5503C67.11 75.6264 67.7356 75.7465 68.3735 75.8706C69.0151 75.991 69.5365 76.079 69.5365 76.063C69.5365 76.0469 69.2237 75.6383 68.8345 75.1574C68.4496 74.6768 68.0603 74.1962 67.9763 74.0878C67.888 73.9797 67.7957 73.8916 67.7756 73.8916C67.7516 73.8916 67.515 74.2641 67.2463 74.7208Z" fill="#006BB4"/>
<path fill-rule="evenodd" clip-rule="evenodd" d="M58.0572 81.203C57.8486 81.283 57.616 81.4432 57.4395 81.6236C57.279 81.784 57.0987 82.0322 57.0304 82.1725C56.9661 82.3127 56.8859 82.5732 56.8497 82.7455C56.8057 82.9696 56.8057 83.162 56.8538 83.4103C56.89 83.5986 56.9744 83.8592 57.0345 83.9833C57.0987 84.1075 57.251 84.3199 57.3753 84.4561C57.5037 84.5922 57.7684 84.7805 57.965 84.8766C58.2658 85.025 58.4022 85.057 58.7672 85.053C59.0479 85.053 59.3166 85.013 59.5212 84.9367C59.6977 84.8729 59.9706 84.7003 60.1348 84.5602C60.3192 84.3919 60.4958 84.1556 60.6163 83.9073C60.7805 83.5707 60.8048 83.4546 60.8007 83.062C60.8007 82.7012 60.7645 82.5371 60.636 82.2646C60.548 82.0722 60.3596 81.8 60.2192 81.6558C60.0747 81.5155 59.8261 81.3311 59.6574 81.2512C59.429 81.1389 59.2404 81.0987 58.8714 81.0868C58.4902 81.0748 58.3177 81.0987 58.0572 81.203ZM23.3707 81.848C23.2863 81.876 23.1019 81.9562 22.9616 82.0281C22.8211 82.1004 22.6126 82.2526 22.4961 82.3689C22.38 82.4849 22.2114 82.7212 22.1233 82.8975C21.9989 83.138 21.9549 83.3263 21.9348 83.6947C21.9146 84.0955 21.9348 84.2398 22.0512 84.5403C22.1434 84.7844 22.2878 85.0008 22.4924 85.205C22.7007 85.4134 22.9175 85.5577 23.162 85.6498C23.3908 85.7381 23.6555 85.79 23.8839 85.7941C24.0847 85.7941 24.3975 85.746 24.5819 85.6819C24.8025 85.6058 25.019 85.4697 25.2358 85.2654C25.4203 85.0931 25.6247 84.8206 25.717 84.6324C25.8414 84.3639 25.8733 84.2077 25.8775 83.8152C25.8775 83.4225 25.8533 83.2741 25.7252 83.0016C25.6409 82.8174 25.4724 82.561 25.3561 82.4289C25.2358 82.2966 24.9951 82.1083 24.8144 82.008C24.5457 81.8599 24.4094 81.8279 24.0082 81.816C23.7398 81.8078 23.4549 81.8197 23.3707 81.848ZM48.7558 84.7002C48.3468 84.8125 48.3065 84.8366 48.3188 84.9687C48.3225 85.0488 48.2826 85.2412 48.2303 85.4014C48.1781 85.5577 48.0179 85.8622 47.8734 86.0785C47.7331 86.2947 47.4442 86.6314 47.2315 86.8276L46.8467 87.1843C47.0713 88.0336 47.1475 88.302 47.1594 88.3259C47.1714 88.3501 47.2357 88.346 47.2998 88.3099C47.3681 88.2778 47.6007 88.0817 47.8213 87.8732C48.0418 87.6649 48.3027 87.3804 48.3949 87.2403C48.4913 87.1001 48.5914 86.9838 48.6155 86.9838C48.6395 86.9838 48.9604 88.1137 49.3255 89.4918L49.991 91.9998C50.272 91.9558 50.5767 91.8797 50.8536 91.8033C51.1302 91.7235 51.3429 91.6311 51.331 91.5991C51.3149 91.567 50.8857 89.9727 50.3762 88.0538C49.5338 84.9007 49.4337 84.5682 49.3255 84.5761C49.2571 84.5761 49.0004 84.6364 48.7558 84.7002ZM34.8821 85.2974C34.6974 85.4857 34.4167 85.6819 34.1601 85.8061C33.9274 85.9183 33.5865 86.0506 33.4021 86.0987C33.2215 86.1506 32.9769 86.2068 32.8606 86.2228L32.6479 86.259C32.4314 87.1724 32.3753 87.4446 32.3873 87.4566C32.3955 87.4647 32.5679 87.4566 32.7683 87.4368C32.9689 87.4167 33.3619 87.3204 33.6426 87.2202C33.9274 87.1202 34.2085 87.02 34.2643 86.9961C34.3607 86.96 34.3525 87.0281 34.1882 87.6169C34.0878 87.9815 33.7791 89.1234 33.4984 90.1529C33.2215 91.1785 32.9968 92.0278 33.0009 92.036C33.005 92.0438 33.3098 92.1322 33.6747 92.2281C34.0397 92.3284 34.3446 92.4044 34.3487 92.3966C34.3566 92.3884 34.7817 90.818 35.3032 88.8991C35.8205 86.9839 36.2419 85.3774 36.2378 85.3375C36.2338 85.2894 36.0492 85.2133 35.7686 85.1451C35.5159 85.0851 35.2793 85.025 35.2431 85.013C35.211 85.0009 35.0463 85.129 34.8821 85.2974ZM38.3236 85.702C38.1549 85.7579 37.9023 85.8903 37.7578 85.9865C37.6136 86.0864 37.405 86.2788 37.2967 86.4111C37.1885 86.5431 37.044 86.7757 36.9758 86.9238C36.9075 87.0721 36.8193 87.3846 36.7791 87.6168C36.7231 87.9293 36.7189 88.1497 36.7672 88.4624C36.7993 88.6947 36.8956 89.0351 36.9757 89.2155C37.06 89.3998 37.2243 89.6561 37.3407 89.7883C37.461 89.9206 37.6898 90.1047 37.8502 90.1931C38.0146 90.2811 38.3236 90.3814 38.5401 90.4172C38.7968 90.4574 39.0254 90.4574 39.2059 90.4212C39.3541 90.3892 39.6068 90.2811 39.7632 90.1808C39.9197 90.0809 40.0641 90.0006 40.0801 90.0006C40.0961 90.0006 40.0682 90.2129 40.0159 90.4694C39.9637 90.7258 39.8595 91.0703 39.7875 91.2306C39.7151 91.3947 39.5669 91.6031 39.4624 91.6993C39.3541 91.7955 39.1777 91.8876 39.0694 91.9036C38.9612 91.9237 38.7647 91.9036 38.6322 91.8596C38.4758 91.8074 38.3434 91.7074 38.2512 91.571C38.175 91.4551 38.1149 91.2986 38.1149 91.2225C38.1149 91.1024 38.0869 91.0864 37.8301 91.0864C37.6696 91.0864 37.3568 91.1065 37.1321 91.1304L36.7189 91.1785C36.7791 91.5509 36.8593 91.7955 36.9316 91.9598C37.0079 92.128 37.1482 92.3563 37.2524 92.4725C37.3527 92.5888 37.6095 92.7649 37.822 92.8651C38.1709 93.0295 38.2632 93.0456 38.8408 93.0456C39.4225 93.0493 39.5064 93.0333 39.8676 92.8651C40.0842 92.7611 40.3851 92.5687 40.5333 92.4364C40.6818 92.3002 40.9064 92.0038 41.0267 91.7754C41.151 91.5472 41.3035 91.1424 41.3716 90.8739C41.4398 90.6096 41.528 90.0928 41.5642 89.7282C41.6042 89.3557 41.6164 88.8266 41.5963 88.5224C41.572 88.2219 41.5159 87.8093 41.4678 87.6008C41.4197 87.3966 41.3035 87.0721 41.2112 86.8839C41.123 86.6914 40.9185 86.407 40.7579 86.2467C40.6015 86.0905 40.3167 85.8862 40.1242 85.7941C39.8394 85.6618 39.6751 85.6298 39.2059 85.6137C38.7726 85.5977 38.5561 85.6178 38.3236 85.702ZM43.8263 85.6539C43.9587 85.6259 44.2715 85.6098 44.5201 85.6218C44.8612 85.6338 45.0698 85.6819 45.3585 85.8142C45.595 85.9224 45.844 86.0946 46.0004 86.259C46.1408 86.4112 46.3012 86.6273 46.3651 86.7437C46.4255 86.8597 46.4856 87.1322 46.5058 87.3447C46.5297 87.681 46.5137 87.7854 46.3811 88.0699C46.2811 88.282 46.1086 88.5064 45.9041 88.6866C45.6193 88.9351 45.595 88.975 45.6995 89.0071C45.7676 89.0311 45.9001 89.0791 46.0004 89.1153C46.1005 89.1555 46.2852 89.2595 46.4095 89.3516C46.5537 89.4559 46.7062 89.6561 46.8224 89.8967C46.9989 90.249 47.0071 90.3053 46.987 90.846C46.9668 91.3627 46.9429 91.4552 46.7545 91.8034C46.6381 92.0158 46.4175 92.3082 46.2569 92.4525C46.1005 92.5968 45.8157 92.7891 45.6234 92.8812C45.3065 93.0334 45.2182 93.0494 44.5523 93.0494C43.8867 93.0494 43.7983 93.0334 43.4776 92.8812C43.289 92.7891 43.0042 92.5968 42.8439 92.4525C42.6873 92.3044 42.4867 92.0398 42.3985 91.8637C42.3104 91.6833 42.222 91.451 42.2022 91.3428C42.166 91.1583 42.1779 91.1464 42.3623 91.1144C42.4706 91.0984 42.7714 91.0502 43.0323 91.0103C43.341 90.9622 43.5135 90.9581 43.5257 90.9943C43.5377 91.0304 43.5739 91.1505 43.6098 91.2668C43.6419 91.3828 43.7463 91.5509 43.8386 91.6393C43.9308 91.7313 44.083 91.8316 44.1753 91.8675C44.2637 91.9036 44.444 91.9316 44.5683 91.9316C44.6929 91.9316 44.9013 91.8675 45.0337 91.7955C45.1942 91.7074 45.3264 91.567 45.4148 91.3868C45.5351 91.1625 45.5511 91.0424 45.5392 90.6576C45.523 90.2731 45.495 90.1688 45.3506 89.9806C45.2622 89.8605 45.1059 89.7203 45.0057 89.6681C44.9053 89.6201 44.709 89.5801 44.5683 89.5801C44.4241 89.5801 44.2234 89.604 43.9188 89.7002V89.4438C43.9188 89.2995 43.9349 89.0511 43.9868 88.5825L44.2835 88.5064C44.4481 88.4662 44.6527 88.3861 44.7408 88.326C44.8292 88.27 44.9494 88.1176 45.0136 87.9934C45.0738 87.8693 45.1259 87.693 45.1259 87.6008C45.1259 87.5128 45.0659 87.3126 44.9896 87.1642C44.8814 86.948 44.805 86.8757 44.6127 86.8156C44.42 86.7515 44.3156 86.7515 44.0991 86.8078C43.9509 86.8477 43.7542 86.952 43.6661 87.0359C43.5777 87.1243 43.4694 87.3285 43.341 87.7853L42.9199 87.7451C42.6873 87.7212 42.4066 87.685 42.2943 87.6608C42.0936 87.6168 42.0936 87.613 42.1298 87.3767C42.1539 87.2443 42.2302 86.9999 42.3063 86.8316C42.3825 86.6674 42.5389 86.423 42.6594 86.2907C42.7796 86.1586 43.0363 85.9703 43.2288 85.8741C43.4254 85.7821 43.694 85.6778 43.8263 85.6539Z" fill="white"/>
<path fill-rule="evenodd" clip-rule="evenodd" d="M38.6884 86.8518C38.508 86.932 38.4117 87.036 38.2994 87.2604C38.1709 87.5128 38.147 87.6411 38.147 88.1298C38.147 88.5865 38.1709 88.7507 38.2673 88.9352C38.3356 89.0631 38.4678 89.2196 38.568 89.2835C38.6884 89.3557 38.8689 89.3957 39.0975 89.3957C39.3944 89.3957 39.4747 89.3717 39.635 89.2316C39.7395 89.1395 39.8596 88.9911 39.9077 88.8991C39.9518 88.8069 40.016 88.6186 40.0481 88.4785C40.0843 88.326 40.0843 88.0858 40.0562 87.8894C40.028 87.7051 39.9518 87.4487 39.8917 87.3204C39.8275 87.1881 39.6953 87.02 39.5949 86.9439C39.4986 86.8637 39.3061 86.7876 39.1738 86.7716C39.0093 86.7474 38.853 86.7757 38.6884 86.8518Z" fill="#006BB4"/>
</g>
<defs>
<clipPath id="clip0_1_55">
<rect width="83" height="100" fill="white"/>
</clipPath>
</defs>
</svg>
