<svg width="88" height="100" viewBox="0 0 88 100" fill="none" xmlns="http://www.w3.org/2000/svg">
<g clip-path="url(#clip0_1_273)">
<path d="M43.0949 -0.00113151C35.9722 0.0572018 29.2392 3.05853 22.8955 6.09887C15.9399 9.68153 8.25645 12.1122 0.378132 11.9372C0.107846 16.6815 -0.012244 21.4362 0.109831 26.1875C0.485651 42.2652 3.61958 58.7585 12.3048 72.4612C19.8311 84.5799 31.4458 93.5645 43.9696 99.9829C43.9805 99.9885 44.0007 99.9979 44.0007 99.9979C44.0007 99.9979 44.0215 99.9885 44.0321 99.9829C56.5559 93.5645 68.1699 84.5799 75.6969 72.4612C84.3821 58.7575 87.516 42.2639 87.8918 26.1875C88.0136 21.4359 87.8941 16.6815 87.6235 11.9372C79.7462 12.1122 72.0624 9.68153 65.1061 6.09853C58.7618 3.05853 52.0288 0.0572018 44.9068 -0.00146484L43.0949 -0.00113151Z" fill="black"/>
<path d="M43.3886 4.43164C34.2356 4.59297 26.2898 9.78497 18.0122 13.0766C13.7131 14.763 9.18971 15.8483 4.58692 16.2286C3.87266 33.3986 5.79377 51.2016 13.9096 66.5486C20.6585 78.9163 31.6254 88.49 43.9818 94.9426L44.0007 94.9516L44.0192 94.9426C56.3756 88.4893 67.3418 78.916 74.0914 66.549C82.2072 51.203 84.1287 33.4 83.4141 16.2286C78.8113 15.848 74.2882 14.763 69.9891 13.0766C61.7112 9.78464 53.7654 4.59331 44.6124 4.43164H43.3886Z" fill="white"/>
<path d="M43.4687 10.0752C34.2396 10.5019 26.4781 16.1985 17.954 19.1099C15.3682 19.9709 12.7448 20.7052 10.0614 21.1735C9.85733 36.5202 12.1708 52.3799 19.9585 65.7682C25.7188 75.4199 34.3088 82.9995 43.9924 88.5365L43.9987 88.5402L44.0046 88.5369C53.6886 82.9989 62.2789 75.4192 68.0386 65.7682C75.8262 52.3809 78.14 36.5209 77.9359 21.1735C75.2526 20.7052 72.6288 19.9709 70.043 19.1102C61.5196 16.1989 53.7581 10.5019 44.5283 10.0752H43.4687Z" fill="black"/>
<path d="M44.0023 18.1021L38.0848 36.5234H18.8214L34.4166 47.9114L28.4485 66.3841L44.0023 54.9441L59.5561 66.3841L53.588 47.9114L69.1832 36.5234H49.9195L44.0023 18.1021Z" fill="white"/>
</g>
<defs>
<clipPath id="clip0_1_273">
<rect width="88" height="100" fill="white"/>
</clipPath>
</defs>
</svg>
