<svg width="124" height="100" viewBox="0 0 124 100" fill="none" xmlns="http://www.w3.org/2000/svg">
<g clip-path="url(#clip0_1_107)">
<path fill-rule="evenodd" clip-rule="evenodd" d="M18.196 0.413086V66.8705C18.196 72.1218 18.8705 74.143 20.4853 76.9526L20.5765 77.1112L20.6757 77.261C25.2314 84.126 31.4152 89.7571 38.6757 93.6525C45.9363 97.548 54.048 99.5865 62.2878 99.5865C70.5276 99.5865 78.6393 97.548 85.8999 93.6525C93.1605 89.7571 99.3442 84.126 103.9 77.261L103.999 77.1102L104.089 76.9516C105.703 74.1449 106.379 72.1228 106.379 66.8695V0.413086H18.196Z" fill="white"/>
<path d="M103.459 40.427V3.33594H21.119V66.8687C21.119 71.6836 21.6983 73.195 23.0205 75.4969L23.0611 75.5683L23.1067 75.6357C27.395 82.102 33.2172 87.4065 40.0542 91.0761C46.8911 94.7456 54.5301 96.666 62.2898 96.666C70.0495 96.666 77.6885 94.7456 84.5254 91.0761C91.3624 87.4065 97.1846 82.102 101.473 75.6357L101.518 75.5693L101.559 75.4979C102.88 73.2 103.46 71.6896 103.46 66.8697V40.427H103.459ZM101.073 55.4826V66.8697C101.073 71.4 100.547 72.4681 99.4861 74.3078C95.4152 80.4476 89.8876 85.4844 83.3964 88.9687C76.9052 92.453 69.6523 94.2766 62.2848 94.2766C54.9174 94.2766 47.6645 92.453 41.1733 88.9687C34.6821 85.4844 29.1544 80.4476 25.0835 74.3078C24.0272 72.4691 23.4965 71.402 23.4965 66.8697V5.72206H101.06V55.4826H101.073Z" fill="#001D46"/>
<path fill-rule="evenodd" clip-rule="evenodd" d="M105.349 40.8347V1.44775H19.2266V66.8708C19.2266 72.1191 19.9159 73.8923 21.3789 76.4371L21.4523 76.5641L21.5337 76.6861C25.9949 83.4099 32.0509 88.9254 39.1616 92.7408C46.2724 96.5562 54.2169 98.5529 62.2868 98.5529C70.3568 98.5529 78.3013 96.5562 85.412 92.7408C92.5228 88.9254 98.5787 83.4099 103.04 76.6861L103.121 76.5641L103.195 76.4371C104.657 73.8933 105.346 72.1201 105.346 66.8708V40.8347H105.349ZM104.026 59.6053V66.8708C104.026 71.8295 103.425 73.3895 102.05 75.7776L102.001 75.8649L101.944 75.9492C97.6038 82.4926 91.7115 87.8603 84.7925 91.5735C77.8735 95.2867 70.1429 97.2299 62.2903 97.2299C54.4377 97.2299 46.7071 95.2867 39.7881 91.5735C32.8691 87.8603 26.9767 82.4926 22.6366 75.9492L22.5801 75.8649L22.5305 75.7776C21.1558 73.3875 20.5547 71.8226 20.5547 66.8708V2.77073H104.027V59.6053H104.026Z" fill="#001D46"/>
<path d="M95.4741 8.10207V25.4268H98.6877V8.10207H95.4741ZM42.6365 14.4849C41.6579 14.5157 40.704 14.8005 39.8687 15.3112C39.0333 15.8219 38.3451 16.541 37.8716 17.398C37.3981 18.255 37.1557 19.2203 37.168 20.1993C37.1804 21.1783 37.4471 22.1372 37.9421 22.9819C38.437 23.8267 39.1431 24.5283 39.9911 25.0177C40.8391 25.5072 41.7998 25.7678 42.779 25.7739C43.7581 25.7801 44.722 25.5315 45.5761 25.0526C46.4301 24.5738 47.145 23.8811 47.6504 23.0426L44.9724 21.7801C44.7867 22.1693 44.4933 22.497 44.1269 22.7243C43.7605 22.9516 43.3365 23.069 42.9053 23.0625C42.3292 23.0804 41.7694 22.8691 41.3489 22.475C40.9283 22.0808 40.6812 21.536 40.6617 20.96C40.6617 20.8846 40.631 20.9143 40.6399 20.8429H47.9251C47.9478 20.6076 47.9584 20.3713 47.9569 20.1348C48.0095 16.4902 45.6469 14.4849 42.6365 14.4849ZM40.6528 18.9051C40.6469 18.6367 40.6946 18.3699 40.7932 18.1203C40.8917 17.8706 41.0392 17.6432 41.2269 17.4513C41.4146 17.2594 41.6388 17.1069 41.8862 17.0028C42.1336 16.8988 42.3993 16.8451 42.6678 16.8451C42.9362 16.8451 43.202 16.8988 43.4494 17.0028C43.6968 17.1069 43.921 17.2594 44.1087 17.4513C44.2964 17.6432 44.4438 17.8706 44.5424 18.1203C44.641 18.3699 44.6887 18.6367 44.6828 18.9051H40.6528ZM36.9026 13.5031C36.9214 12.1997 36.4218 10.9423 35.5135 10.0072C34.6053 9.07209 33.3628 8.53594 32.0593 8.51662C31.978 8.51662 31.6041 8.51662 31.5227 8.52257H25.8889V25.402H29.3089V11.4323L31.3491 11.4145C31.641 11.4106 31.9306 11.4651 32.2011 11.5746C32.4717 11.6842 32.7176 11.8466 32.9245 12.0524C33.1314 12.2582 33.2952 12.5032 33.4062 12.7731C33.5172 13.0429 33.5732 13.3323 33.5709 13.6241C33.5605 14.22 33.3138 14.7875 32.8851 15.2016C32.4564 15.6158 31.8807 15.8428 31.2847 15.8327L30.4912 15.8515V19.872L33.9072 25.402H37.9302L33.2069 18.3477C34.2739 18.0662 35.2165 17.4369 35.8855 16.5594C36.5545 15.6819 36.9117 14.6064 36.9006 13.5031H36.9026ZM84.6409 21.1395C84.6409 21.6392 84.4424 22.1185 84.089 22.4719C83.7356 22.8253 83.2562 23.0238 82.7564 23.0238C82.2566 23.0238 81.7772 22.8253 81.4238 22.4719C81.0704 22.1185 80.8719 21.6392 80.8719 21.1395V15.0561H77.5987V21.7881C77.5987 24.0691 79.9018 25.9147 82.7445 25.9147C85.5872 25.9147 87.8923 24.0671 87.8923 21.7881V15.0561H84.6409V21.1395ZM90.0426 25.4248H93.2563V8.10207H90.0426V25.4248ZM73.6699 16.1689C74.1143 15.7421 74.4686 15.2305 74.7119 14.6645C74.9552 14.0985 75.0825 13.4894 75.0863 12.8733C75.0888 11.7508 74.6766 10.6669 73.9288 9.82968C73.1621 8.93711 71.8052 8.54042 69.9713 8.54042H64.4764V25.4159H71.5722C72.866 25.4074 74.105 24.8919 75.023 23.9802C75.941 23.0684 76.4648 21.8331 76.4819 20.5395C76.5474 19.6051 76.3087 18.6747 75.8015 17.8873C75.2943 17.0998 74.5458 16.4977 73.668 16.1709L73.6699 16.1689ZM70.978 22.4545H67.9033V11.4601H70.0487C70.5072 11.4865 70.9382 11.6872 71.2535 12.0212C71.5688 12.3551 71.7445 12.7969 71.7445 13.2561C71.7445 13.7154 71.5688 14.1572 71.2535 14.4911C70.9382 14.8251 70.5072 15.0258 70.0487 15.0522H68.9328V18.1008H70.979C71.5325 18.1362 72.0517 18.3811 72.4311 18.7855C72.8105 19.1899 73.0216 19.7236 73.0216 20.2781C73.0216 20.8327 72.8105 21.3664 72.4311 21.7708C72.0517 22.1752 71.5325 22.4201 70.979 22.4555L70.978 22.4545ZM57.1723 7.97314L57.1862 16.1431C56.2959 15.2582 55.093 14.7594 53.8377 14.7547C52.4829 14.8604 51.2179 15.4731 50.2952 16.4705C49.3725 17.468 48.8599 18.7767 48.8599 20.1353C48.8599 21.494 49.3725 22.8027 50.2952 23.8001C51.2179 24.7976 52.4829 25.4103 53.8377 25.516C54.4648 25.5114 55.0849 25.383 55.6623 25.1381C56.2396 24.8932 56.7629 24.5366 57.2021 24.0889V25.4159H60.5149V7.97314H57.1723ZM54.7918 22.878C54.2603 22.9195 53.7286 22.7998 53.2661 22.5345C52.8037 22.2692 52.432 21.8706 52.1995 21.3909C51.9671 20.9111 51.8847 20.3724 51.9631 19.8451C52.0415 19.3178 52.2772 18.8264 52.6392 18.4351C53.0012 18.0437 53.4728 17.7706 53.9925 17.6514C54.5121 17.5321 55.0557 17.5723 55.5521 17.7667C56.0486 17.961 56.4749 18.3005 56.7755 18.7409C57.076 19.1812 57.2367 19.7019 57.2368 20.235C57.2617 20.9093 57.0185 21.566 56.5602 22.0614C56.102 22.5568 55.4661 22.8504 54.7918 22.878Z" fill="#D2003C"/>
<path fill-rule="evenodd" clip-rule="evenodd" d="M85.2063 47.4463C85.2063 52.0028 83.8549 56.4569 81.3231 60.2454C78.7912 64.034 75.1926 66.9867 70.9824 68.7302C66.7722 70.4737 62.1394 70.9297 57.67 70.0405C53.2005 69.1512 49.0952 66.9568 45.8732 63.7346C42.6511 60.5124 40.4571 56.4072 39.5685 51.9382C38.68 47.4692 39.1368 42.837 40.8813 38.6276C42.6257 34.4182 45.5794 30.8206 49.3689 28.2897C53.1583 25.7588 57.6132 24.4084 62.1703 24.4092C68.2807 24.4097 74.1407 26.837 78.4614 31.1572C82.7821 35.4774 85.2097 41.3366 85.2102 47.4463" fill="#FFCC00"/>
<path d="M123.284 60.884V60.875C123.258 60.8185 123.22 60.7372 123.203 60.6925C123.179 60.5725 123.161 60.4307 123.142 60.282V60.2592C123.111 59.8857 123.028 59.5184 122.895 59.1682C122.767 58.889 122.574 58.6443 122.333 58.4546C122.091 58.2648 121.808 58.1355 121.506 58.0773C121.472 57.8893 121.398 57.7106 121.29 57.5527C120.912 57.0673 120.447 56.6572 119.917 56.3438C119.8 56.2654 119.667 56.1772 119.62 56.1345L119.504 56.0453C119.228 55.8242 118.884 55.7045 118.531 55.7061C118.217 55.7254 117.911 55.8118 117.634 55.9595C117.356 56.1071 117.113 56.3126 116.922 56.562C116.856 56.3894 116.747 55.9867 116.685 55.7577C116.6 55.4443 116.519 55.1477 116.435 54.9167L116.423 54.8849C116.412 54.8572 116.401 54.8284 116.386 54.7857C116.287 54.3976 116.083 54.0443 115.797 53.7644C115.51 53.4845 115.152 53.2889 114.762 53.199C114.478 53.1575 114.192 53.1333 113.905 53.1266C113.627 53.1385 113.349 53.0877 113.093 52.9778C113.107 52.9302 113.134 52.8548 113.183 52.7358C113.274 52.5188 113.349 52.2954 113.407 52.0674C113.681 51.1474 113.749 50.1782 113.605 49.229C113.88 49.2695 114.158 49.2907 114.435 49.2925C115.353 49.2896 116.26 49.1035 117.105 48.7451L117.15 48.7242C118.076 48.2975 118.861 47.6168 119.415 46.7612C119.968 45.9056 120.268 44.9105 120.278 43.8915V43.828C120.092 41.8832 119.007 40.0435 116.976 38.2257C117.546 38.0966 118.09 37.868 118.581 37.5503C119.323 37.0081 119.886 36.2562 120.196 35.3915C120.507 34.5268 120.551 33.5889 120.324 32.6987L120.293 32.5579C120.261 32.2437 120.115 31.9522 119.882 31.7387C119.65 31.5252 119.347 31.4045 119.031 31.3995C118.71 31.4021 118.403 31.5254 118.169 31.7447C118.12 31.7893 118.07 31.8369 118.016 31.8885C117.902 32.0061 117.776 32.1115 117.64 32.2029C117.242 32.3929 116.818 32.5222 116.382 32.5867C115.982 32.6625 115.587 32.7636 115.2 32.8891C114.441 33.0749 113.736 33.4361 113.142 33.9437C112.548 34.4513 112.081 35.0911 111.779 35.8118C111.651 36.2503 111.613 36.7106 111.669 37.1641C111.725 37.6177 111.874 38.0549 112.106 38.4488L112.142 38.5123C112.726 39.3569 113.41 40.128 114.179 40.8092C115.154 41.5425 115.886 42.5531 116.278 43.709C116.31 43.9074 116.371 44.2614 115.721 44.7523C115.408 44.9088 115.062 44.9851 114.712 44.9745C114.106 44.9677 113.511 44.8182 112.973 44.5381L112.946 44.5242C112.118 44.0846 111.317 43.5948 110.549 43.0574C109.293 42.1324 107.914 41.3858 106.452 40.8389C105.774 40.5663 105.068 40.3668 104.347 40.2439C103.572 40.1551 102.826 39.8931 102.165 39.4773L102.087 39.4207C101.845 39.2621 101.591 39.0825 101.353 38.907C100.592 38.2873 99.7224 37.8139 98.7888 37.5106C98.4464 37.4055 98.0952 37.3315 97.7394 37.2895C97.4739 37.2809 97.2137 37.2131 96.9777 37.0911C96.815 36.9741 96.6504 36.8551 96.4818 36.7341L96.457 36.7153C95.7811 36.1911 95.0629 35.724 94.3096 35.3189C93.0379 34.7321 91.6967 34.3096 90.3183 34.0614C90.2439 34.0445 90.0495 33.8075 89.9216 33.6498C89.6807 33.3328 89.397 33.0507 89.0785 32.8118C88.0055 31.8311 86.621 31.2601 85.1686 31.1992C85.0228 31.1992 84.871 31.2052 84.747 31.2161C83.8561 31.3455 83.0299 31.7566 82.3894 32.3893C81.1922 33.4366 79.8899 34.3797 78.6302 35.2911C76.5617 36.688 74.6422 38.2938 72.9022 40.0832C71.3395 41.9109 70.2701 44.1078 69.7957 46.4651C69.7104 46.7626 69.6251 47.068 69.5329 47.3834C69.3722 47.9616 69.2254 48.5507 69.0835 49.1239C68.3595 52.0327 67.6751 54.7768 64.9574 56.5441C64.7453 56.6795 64.5751 56.8713 64.466 57.0979C64.3568 57.3246 64.313 57.5772 64.3395 57.8274C64.3687 58.0814 64.4675 58.3224 64.6251 58.5238C64.7826 58.7253 64.9927 58.8793 65.2321 58.9689C65.5681 59.0827 65.9208 59.1393 66.2756 59.1365C66.2903 59.4335 66.4041 59.7171 66.5989 59.9418C66.7481 60.1061 66.9302 60.2371 67.1334 60.3262C67.3366 60.4154 67.5563 60.4608 67.7782 60.4595H67.8259C68.6617 60.4052 69.4781 60.1833 70.2263 59.8069C70.9745 59.4306 71.6394 58.9074 72.1811 58.2687C72.6302 58.6976 73.1844 59.0003 73.788 59.1464L73.9734 59.1821L74.1778 59.1583C74.7972 59.0533 75.4251 59.0058 76.0534 59.0165C76.6038 59.1881 77.1662 59.4003 77.7266 59.6115C78.1551 59.7722 78.5975 59.9388 79.0488 60.0916L79.272 60.161L79.4703 60.153C79.9294 60.0927 80.367 59.9215 80.7452 59.6544C81.1235 59.3873 81.4311 59.0322 81.6415 58.6198L81.6911 58.5415L81.7278 58.4562C81.7677 58.3621 81.8009 58.2653 81.827 58.1666V58.1765L81.9014 58.4354C82.0171 59.0095 82.2537 59.5525 82.5957 60.0281C82.7628 60.2255 82.9718 60.3833 83.2076 60.4898C83.4433 60.5964 83.6999 60.649 83.9585 60.644C84.1315 60.6416 84.3039 60.6253 84.4743 60.5954L84.5368 60.5864L84.5943 60.6479C84.8743 60.9876 85.2431 61.2431 85.6596 61.3858C86.1555 61.5514 86.6603 61.6833 87.1543 61.8122C87.756 61.9578 88.3491 62.1369 88.9307 62.3488L88.9942 62.3706C89.4542 62.5402 89.9393 62.6317 90.4294 62.6413C91.0554 62.6443 91.6604 62.4154 92.1275 61.9987C92.677 61.5663 93.0637 60.9604 93.2245 60.28C93.3495 60.2596 93.4726 60.2288 93.5925 60.1878C94.4256 59.9111 95.24 58.3798 95.2469 58.3649C95.3025 58.261 95.3634 58.1601 95.4294 58.0625C95.6276 57.776 95.7335 57.4359 95.7329 57.0876C95.7306 56.705 95.5784 56.3386 95.309 56.0669C95.0395 55.7953 94.6743 55.6401 94.2917 55.6347H94.1608C94.0944 55.6347 92.5282 55.6277 92.0779 55.6347H92.0392C91.8561 55.6438 91.675 55.6771 91.5006 55.7339C91.4907 55.721 91.4828 55.7081 91.4719 55.6952C91.3519 55.5484 91.2239 55.2122 91.0523 55.1269C91.0652 55.117 91.0999 55.1071 91.1128 55.0962L91.5502 55.1428C91.8337 55.1712 92.1184 55.1855 92.4032 55.1854C93.3368 55.1631 94.2664 55.0555 95.1804 54.8641C95.9533 54.7734 96.7327 54.7522 97.5093 54.8006C97.5877 54.8006 97.668 54.8006 97.7514 54.8006H97.794C98.1302 54.8006 98.4655 54.8304 98.8295 54.8631C99.1935 54.8958 99.6081 54.9335 100.033 54.9335C100.185 54.9335 100.33 54.9286 100.473 54.9196C100.863 54.9028 101.248 54.8345 101.62 54.7163C101.653 54.9147 101.698 55.1507 101.755 55.4482L101.813 55.6942C101.911 56.3486 102.148 56.9747 102.507 57.5306C102.866 58.0865 103.34 58.5596 103.896 58.9183L104.132 59.072C104.791 59.5766 105.571 59.8982 106.394 60.0043C106.773 60.0484 107.155 60.032 107.528 59.9557C108.247 59.8185 108.986 59.8327 109.699 59.9975C110.411 60.1623 111.082 60.474 111.667 60.9127L111.774 60.9821C111.906 61.0682 112.03 61.1644 112.146 61.2697C112.471 61.5709 112.846 61.8117 113.255 61.9808C113.571 62.1048 113.908 62.1687 114.247 62.1692H114.271C114.733 62.1786 115.188 62.0546 115.582 61.8122C115.626 61.8707 115.673 61.9372 115.714 61.9947C115.94 62.3306 116.202 62.6412 116.495 62.921C117.06 63.4198 117.8 63.6747 118.553 63.6301C118.819 63.6301 119.073 63.6122 119.297 63.5964L119.549 63.5835C119.705 63.5765 119.846 63.5676 119.945 63.5567C120.057 63.5444 120.167 63.5252 120.277 63.4992C120.491 63.6541 120.748 63.7386 121.013 63.7412C121.131 63.741 121.25 63.724 121.364 63.6906L122.668 63.2621C122.848 63.2067 123.015 63.1133 123.156 62.9883C123.297 62.8633 123.41 62.7094 123.487 62.5372C123.578 62.2638 123.607 61.9736 123.572 61.6876C123.537 61.4016 123.439 61.1271 123.284 60.884ZM82.1692 54.4148L82.07 54.2651C82.0303 54.2046 81.9887 54.1431 81.9381 54.0667C81.7629 53.8293 81.6139 53.5736 81.4937 53.3041C81.8845 53.3428 82.3011 53.3824 82.7306 53.4033L82.1692 54.4148Z" fill="white"/>
<path d="M59.641 56.1303L58.9566 55.7882C58.3578 55.3336 57.8757 54.7431 57.5502 54.0655C57.3518 53.7343 57.1534 53.3931 56.9253 53.0787C56.7065 52.7856 56.4538 52.5192 56.1725 52.2853C56.1298 52.2476 56.0733 52.1981 56.0287 52.1554C55.1426 49.9332 54.5688 47.5989 54.3236 45.2192C54.2017 44.3623 53.9205 43.5359 53.4944 42.7825L53.4806 42.7587C52.2438 40.9328 50.8942 39.1859 49.4397 37.5283C49.3405 37.4202 49.2255 37.3101 49.1283 37.2149L49.0569 37.1454L44.2225 33.1239L44.1501 33.0694C43.4921 32.5632 42.7547 32.1694 41.968 31.9041C40.5879 31.4591 39.0955 31.5111 37.7496 32.0509L37.6683 32.0896C37.2487 32.3117 36.8599 32.5596 36.4781 32.8036C35.9574 33.1695 35.395 33.4721 34.8028 33.7051L34.7036 33.7448C34.2021 33.955 33.6888 34.1358 33.1662 34.2863C31.8794 34.59 30.679 35.184 29.657 36.0228C29.3952 36.2628 29.1809 36.4661 28.9994 36.6357C28.807 36.827 28.6051 37.0083 28.3944 37.1792C28.3666 37.1792 28.3071 37.1861 28.1871 37.1861C26.5445 37.1277 24.9396 37.686 23.688 38.7511L23.6434 38.7897C22.9378 39.5199 22.0983 40.1074 21.1706 40.5203C20.7556 40.6407 20.3285 40.7146 19.8971 40.7405H19.8485C19.2506 40.7739 18.6576 40.8666 18.078 41.0172C16.6826 41.4775 15.3969 42.2202 14.301 43.199C13.8269 43.5679 13.5194 43.7941 13.3895 43.8833C13.2903 43.9448 13.1792 44.0172 13.086 44.0717C12.0848 44.8013 10.904 45.2446 9.66999 45.3541H9.60948C9.27885 45.3237 8.96295 45.2029 8.69647 45.0049C8.42999 44.8069 8.22323 44.5392 8.09888 44.2314C8.00296 43.8414 8.01436 43.4326 8.13188 43.0485C8.24939 42.6644 8.46865 42.3192 8.7664 42.0496C9.17406 41.642 9.65908 41.2314 10.1243 40.8347C10.9343 40.1987 11.6712 39.4745 12.3212 38.6757C12.7649 38.0391 12.9851 37.2734 12.9472 36.4983C12.9093 35.7233 12.6156 34.9827 12.112 34.3924C11.1881 33.5765 10.0543 33.0355 8.83881 32.8304L8.74557 32.8076C8.69301 32.7937 8.61862 32.7808 8.5472 32.7689L8.48174 32.756L8.11376 32.6886C7.9015 32.6509 7.70015 32.6152 7.50773 32.5686C7.08381 32.4114 6.68694 32.1893 6.33138 31.91C6.0312 31.6945 5.71928 31.4959 5.39705 31.315L4.49941 30.832L3.94297 31.6859C3.51728 32.342 3.32671 33.1231 3.40241 33.9015L3.40836 33.962C3.55172 34.7746 3.8867 35.5415 4.38553 36.1989C4.88437 36.8564 5.5327 37.3855 6.27683 37.7425L6.31055 37.7573C6.36213 37.7792 6.41569 37.8 6.46925 37.8188C6.78338 37.9469 7.11579 38.0246 7.45417 38.0489C6.62469 38.7161 5.8608 39.461 5.17288 40.2734C4.56926 41.0456 4.17681 41.9615 4.03404 42.9312C3.89128 43.9008 4.00311 44.8909 4.35857 45.8043C4.76226 46.7561 5.40981 47.5847 6.23592 48.2065C7.06203 48.8282 8.0375 49.2212 9.06396 49.3458C9.37638 49.3941 9.69209 49.418 10.0082 49.4172C10.5436 49.4118 11.0772 49.3537 11.6011 49.2437V49.2645C11.6103 49.8049 11.6503 50.3443 11.7212 50.88C11.8698 51.5299 12.08 52.1642 12.349 52.7743L12.3688 52.8229C11.9904 53.0523 11.5858 53.2354 11.1637 53.3683C10.8503 53.405 10.5111 53.4238 10.2611 53.4367C10.0876 53.4457 9.94969 53.4546 9.87828 53.4625C9.50949 53.5039 9.16484 53.6665 8.89832 53.9247C8.51709 54.3926 8.23346 54.9321 8.06416 55.5115C7.9501 55.803 7.83306 56.1065 7.71999 56.3495C7.61595 56.4989 7.4891 56.6311 7.34407 56.7412C7.15931 56.4432 6.91806 56.1841 6.6339 55.9786L6.60216 55.9538C6.33938 55.7583 6.02202 55.65 5.69456 55.6439C5.3671 55.6379 5.04595 55.7344 4.77614 55.9201L4.52817 56.0847L4.46172 56.1293C4.0566 56.3878 3.66712 56.6699 3.29529 56.9743C3.00808 57.2278 2.80903 57.5661 2.72695 57.9402C2.6251 57.9538 2.52521 57.9795 2.42939 58.0166C2.05452 58.1749 1.7247 58.4236 1.46941 58.7405C1.21412 59.0574 1.0413 59.4325 0.966395 59.8325C0.950128 60.1474 0.917018 60.4612 0.867208 60.7726C0.85729 60.7855 0.83646 60.8093 0.799761 60.851C0.552701 61.118 0.414811 61.468 0.413342 61.8318C0.411873 62.1955 0.546931 62.5466 0.791827 62.8156C1.45047 63.232 2.19155 63.5006 2.96401 63.6031H3.03641L3.2209 63.5783L3.30421 63.5535C3.39275 63.5295 3.47853 63.4962 3.56012 63.4543L3.90627 63.486C4.12288 63.5125 4.3378 63.5512 4.54999 63.6021C4.98015 63.7102 5.42084 63.7711 5.86421 63.7836C6.3506 63.7897 6.83077 63.6738 7.26075 63.4464C7.87047 63.113 8.3603 62.5969 8.66126 61.9707C8.73962 61.8358 8.81996 61.6969 8.89832 61.5878L9.02131 61.6206C9.26387 61.692 9.51316 61.7382 9.76521 61.7584C10.7901 61.7527 11.7803 61.3865 12.5623 60.724C12.7686 60.5614 12.964 60.3779 13.1425 60.2123C13.3243 60.0339 13.5182 59.8682 13.7227 59.7164C13.962 59.6334 14.2145 59.5954 14.4676 59.6044C15.0117 59.6228 15.553 59.6892 16.0854 59.8027C17.1128 60.0758 18.2054 59.9526 19.1462 59.4576C19.6085 59.1948 20.0736 58.9518 20.4476 58.7554L20.511 58.7217C20.7164 58.6136 20.8969 58.5234 21.0407 58.4391C21.8874 57.865 22.5559 57.0647 22.9699 56.1293C23.1682 55.7415 23.4599 55.0176 23.5402 54.8162C23.6195 54.8162 23.7019 54.8232 23.7862 54.8232C24.3539 54.8076 24.9197 54.7482 25.4783 54.6457C25.8403 54.5882 26.1835 54.5346 26.4444 54.5227H26.49C26.5892 54.5138 26.6983 54.5098 26.8044 54.5098C27.3301 54.5098 28.0938 54.5723 28.6661 54.6358C29.1452 54.6893 29.4695 54.7349 30.1024 54.7647C30.1877 54.7647 30.2799 54.7756 30.3771 54.7845C30.5755 54.8004 30.8056 54.8192 31.0526 54.8192C31.6062 54.8234 32.1532 54.6988 32.6505 54.4553C32.7725 54.5743 32.9738 54.852 33.1087 54.972H33.0482C32.8519 54.9705 32.6574 55.0091 32.4766 55.0855C32.2958 55.1619 32.1325 55.2745 31.9968 55.4163C31.5176 55.2583 31.0081 55.2145 30.509 55.2883C29.8851 55.3413 29.2655 55.4361 28.6542 55.572C28.4331 55.6047 28.2236 55.6923 28.045 55.8267C27.8664 55.9611 27.7243 56.1381 27.6316 56.3415C27.5324 56.5657 27.4876 56.8102 27.5011 57.055C27.5145 57.2998 27.5858 57.5379 27.709 57.7498C28.0393 58.3449 28.3577 58.8735 28.6939 59.4358L28.8417 59.6847C28.9815 59.9111 29.1802 60.0953 29.4166 60.2176C29.6529 60.3398 29.9181 60.3956 30.1837 60.3789C30.2829 60.3789 30.393 60.372 30.515 60.364H30.5487L30.6122 60.4771C30.8725 61.0143 31.2409 61.4921 31.6943 61.8804C32.2734 62.3575 33.0021 62.6153 33.7524 62.6083C34.0887 62.6092 34.4232 62.5587 34.7443 62.4586C36.2132 62.0351 37.6431 61.4863 39.0182 60.8183H39.2007L39.3148 60.8123C39.404 60.8024 39.4943 60.7964 39.5866 60.7895C40.3446 60.8058 41.079 60.5249 41.6328 60.007L41.6933 59.9435L41.7419 59.8711C41.9958 59.5032 42.2289 59.1343 42.4461 58.7594C42.456 58.802 42.4679 58.8467 42.4818 58.8943L42.4917 58.924C42.6632 59.3489 42.9619 59.7104 43.3468 59.959C43.7318 60.2076 44.1842 60.331 44.6421 60.3125H44.6907C45.5474 60.2427 46.388 60.04 47.1822 59.7115L47.2318 59.6936C47.331 59.6569 47.4361 59.6192 47.5413 59.5825L47.6137 59.5548C48.3607 59.3045 49.1618 59.263 49.9307 59.4348L50.0547 59.4546L50.1806 59.4467C51.0934 59.3559 51.9532 58.9758 52.6345 58.3617C53.2268 58.9961 53.9466 59.4981 54.7465 59.8348C55.5465 60.1715 56.4087 60.3353 57.2764 60.3154C57.3429 60.3154 57.4113 60.3154 57.4837 60.3154L57.7813 60.2936L57.8646 60.2748C58.1485 60.2175 58.4062 60.0695 58.5987 59.853C58.7912 59.6366 58.9081 59.3634 58.9318 59.0748C58.9429 58.9593 58.9385 58.843 58.9189 58.7287C59.0303 58.7163 59.1408 58.6981 59.2502 58.6741C59.5244 58.6182 59.775 58.4801 59.9688 58.2784C60.1626 58.0766 60.2905 57.8207 60.3353 57.5445C60.391 57.2653 60.3532 56.9755 60.2277 56.7198C60.1022 56.4642 59.896 56.2571 59.641 56.1303ZM43.672 53.0559L43.5084 53.2057C43.1356 53.5245 42.8026 53.8872 42.5165 54.2857C42.2993 53.9207 42.1545 53.6529 42.0374 53.408C42.5157 53.3371 42.9825 53.2037 43.426 53.0113C43.5133 53.0113 43.5986 53.0053 43.6829 52.9994L43.672 53.0559Z" fill="white"/>
<path d="M35.9157 57.47C35.882 57.4135 35.8453 57.3491 35.8076 57.2717C35.7083 57.0663 35.6302 56.8513 35.5745 56.63C35.4604 56.2333 35.3622 55.8862 34.9318 55.9487C34.3109 56.0374 33.6843 56.0805 33.0571 56.0776C33.0482 56.0776 32.8409 56.0776 32.7765 56.2234C32.7031 56.391 32.8697 56.5457 33.0482 56.7094C33.1512 56.7983 33.2443 56.8981 33.3259 57.0069C33.4629 57.2266 33.5816 57.4571 33.681 57.6962C33.8606 58.0929 34.0163 58.438 34.1998 58.4955C34.2829 58.5198 34.3691 58.5315 34.4557 58.5302C34.9686 58.4925 35.4583 58.3014 35.8611 57.9818C36.0962 57.7765 36.0198 57.6486 35.9157 57.47Z" fill="#D2003C"/>
<path d="M5.94654 56.8494L5.91281 56.8226C5.8355 56.7751 5.7459 56.7515 5.65521 56.7547C5.56453 56.7579 5.47679 56.7877 5.403 56.8405L5.08163 57.0547C4.71006 57.2914 4.35271 57.5497 4.01141 57.8283C3.87931 57.961 3.79999 58.1372 3.78824 58.3241C3.7719 58.4281 3.79565 58.5345 3.8547 58.6217C3.88545 58.6554 4.15821 58.9598 4.21573 59.0084C4.33536 59.1166 4.4899 59.1782 4.65116 59.182C4.77928 59.1783 4.9047 59.1443 5.01716 59.0828C5.5953 58.6537 6.06506 58.0954 6.38891 57.4524C6.46131 57.26 6.23715 57.0785 5.94654 56.8494Z" fill="#D2003C"/>
<path d="M3.76544 59.7552C3.62956 59.5618 3.17628 59.0322 2.92236 59.0322C2.90097 59.0323 2.87978 59.0363 2.85987 59.0441C2.67601 59.1267 2.51164 59.2471 2.37748 59.3975C2.24331 59.5478 2.14238 59.7248 2.08126 59.9169C1.99298 61.1069 1.95926 61.2309 1.63393 61.5949C1.54367 61.6941 1.48118 61.9301 1.58533 62.0342C2.03162 62.2342 2.49681 62.389 2.97393 62.4964H2.99972C3.10486 62.4656 3.19115 62.1988 3.42722 61.3777C3.55517 60.9374 3.69899 60.4365 3.86066 59.9833C3.86959 59.9506 3.87157 59.9059 3.76544 59.7552Z" fill="#D2003C"/>
<path d="M59.1471 57.1222L58.427 56.7631C57.6466 56.2236 57.0189 55.4915 56.6049 54.6379C56.4175 54.3245 56.2241 54.0012 56.0098 53.7046C55.8395 53.486 55.646 53.2865 55.4326 53.1096C55.2858 52.9976 55.157 52.8638 55.0507 52.7129C54.0954 50.3398 53.4777 47.8444 53.2158 45.2996C53.1063 44.6102 52.8752 43.9457 52.5334 43.337C51.3379 41.5758 50.0354 39.8897 48.6333 38.288C48.5411 38.1889 48.4399 38.0897 48.3527 38.0074L48.2812 37.938L43.5153 33.975C42.9377 33.5252 42.2881 33.1765 41.5941 32.9436C41.1117 32.7776 40.6045 32.6954 40.0944 32.7006C39.4419 32.6958 38.795 32.8206 38.191 33.0675C37.8111 33.2659 37.4412 33.5049 37.0821 33.734C36.4851 34.1513 35.8392 34.494 35.1589 34.7545C34.6168 34.984 34.0613 35.1807 33.4955 35.3436C32.3673 35.6031 31.3122 36.114 30.4089 36.8381C30.152 37.0741 29.9407 37.2735 29.7632 37.4411C28.9449 38.2127 28.8596 38.294 28.1881 38.294C26.8019 38.2343 25.4447 38.7025 24.3902 39.6041C23.5782 40.4398 22.6078 41.1053 21.5357 41.5618C21.0343 41.7135 20.5171 41.8067 19.9943 41.8395C19.4316 41.8681 18.8732 41.9542 18.328 42.0963C17.0925 42.5296 15.9553 43.2037 14.9824 44.0798C14.6502 44.3386 14.2048 44.6808 13.9906 44.8176C13.8825 44.8871 13.7495 44.9704 13.6424 45.0329C12.4754 45.87 11.0988 46.3665 9.66604 46.4669H9.55495C8.99677 46.4244 8.46259 46.2223 8.01609 45.8847C7.56958 45.5471 7.22958 45.0882 7.03661 44.5628C6.88154 43.9798 6.88755 43.3657 7.05401 42.7858C7.22047 42.206 7.54114 41.6822 7.98186 41.2702C8.42125 40.8309 8.92115 40.4054 9.40518 39.9948C10.1507 39.4111 10.8305 38.748 11.4325 38.0173C11.7207 37.5863 11.8627 37.0742 11.8377 36.5564C11.8127 36.0386 11.622 35.5425 11.2937 35.1412C10.5062 34.5084 9.57182 34.0845 8.57698 33.9085L8.47779 33.8837C8.42324 33.8708 8.32306 33.8589 8.27148 33.846C7.91639 33.7766 7.57718 33.728 7.22903 33.6427C6.3942 33.2843 5.60316 32.8314 4.87138 32.293C4.58068 32.7477 4.4527 33.2874 4.50835 33.8242C4.62593 34.4503 4.88897 35.0399 5.27627 35.5457C5.66356 36.0515 6.16428 36.4592 6.73806 36.736C6.78369 36.7548 6.83031 36.7727 6.87692 36.7905C7.21278 36.9183 7.57132 36.9757 7.93028 36.9591H8.15147H8.37166C8.60458 36.9495 8.8378 36.9688 9.06596 37.0166C9.18599 37.0515 9.29337 37.1204 9.37519 37.2148C9.45701 37.3093 9.50979 37.4254 9.52718 37.5492C9.54503 37.7059 9.47362 37.8279 9.27326 37.9836C9.08977 38.1383 8.9033 38.291 8.71782 38.4447C7.73345 39.2057 6.82737 40.0628 6.01301 41.0034C5.53977 41.6255 5.23462 42.3589 5.12691 43.133C5.01921 43.9072 5.11259 44.696 5.39805 45.4236C5.73029 46.1897 6.25872 46.8547 6.93003 47.3515C7.60135 47.8483 8.39181 48.1592 9.22168 48.253C9.48186 48.2939 9.74486 48.3142 10.0082 48.3135C10.8391 48.2816 11.6627 48.1463 12.4601 47.9109C12.4844 47.9042 12.5094 47.9005 12.5345 47.9C12.5712 47.9 12.6337 47.9 12.6515 48.0805C12.6754 48.4306 12.6932 48.8292 12.7101 49.213C12.7388 49.8388 12.7656 50.4309 12.8093 50.6798C12.946 51.2562 13.1353 51.8189 13.3746 52.3608C13.452 52.5502 13.5135 52.701 13.5343 52.7744C13.5707 52.893 13.5747 53.0193 13.5457 53.14C13.5167 53.2607 13.456 53.3714 13.3697 53.4607C12.7683 53.9321 12.0771 54.276 11.3383 54.4712C10.9783 54.5159 10.5974 54.5367 10.3187 54.5506C10.1768 54.5575 10.0648 54.5635 10.0053 54.5714C9.87929 54.5835 9.76129 54.6385 9.671 54.7271C9.42145 55.0954 9.22823 55.4988 9.0977 55.9241C8.96777 56.2584 8.83288 56.6025 8.70096 56.8891C8.28088 57.4743 7.71776 57.9421 7.06538 58.2478C6.91065 58.337 6.7579 58.4253 6.61011 58.5175L6.59226 58.5354C6.36564 58.9305 6.0845 59.2917 5.75711 59.6084C5.50331 59.8123 5.18983 59.9275 4.86443 59.9367H4.84261L4.82773 59.9536C4.40044 60.5412 4.12976 61.2279 4.04119 61.9489C4.01837 62.057 3.99556 62.1661 3.97077 62.2742L3.95093 62.3734L4.01441 62.3794C4.27609 62.4096 4.53576 62.4553 4.79203 62.5162C5.14529 62.6058 5.50699 62.658 5.87117 62.6719C6.1825 62.6789 6.49024 62.6044 6.76385 62.4557C7.18106 62.2163 7.51191 61.8511 7.7091 61.4124C7.85369 61.1351 8.03593 60.8791 8.25065 60.6518C8.31148 60.5827 8.38693 60.5281 8.47152 60.4919C8.55611 60.4557 8.6477 60.4388 8.73964 60.4425C8.93212 60.452 9.12269 60.4853 9.30699 60.5417C9.47854 60.5919 9.65462 60.6251 9.83267 60.6408C10.5866 60.6193 11.3101 60.3392 11.8819 59.8475C12.0544 59.7116 12.225 59.5499 12.3917 59.3952C12.6385 59.1479 12.9082 58.9244 13.1971 58.7278C13.5991 58.5513 14.0358 58.4675 14.4746 58.4828C15.0998 58.5029 15.7219 58.5792 16.3333 58.7109C16.6214 58.7872 16.9181 58.8258 17.2161 58.826C17.7007 58.8332 18.179 58.7154 18.6047 58.4838C19.0788 58.2151 19.5549 57.9661 19.9378 57.7658C20.1619 57.6488 20.3573 57.5446 20.514 57.4593C21.152 56.982 21.6582 56.3503 21.985 55.6236C22.1833 55.2269 22.5305 54.3621 22.5335 54.3532L22.5493 54.3135L21.7559 53.7086L21.7231 53.7631C21.4603 54.1999 21.1725 54.6211 20.8612 55.0246C19.4647 56.9288 17.1913 57.1717 15.3623 57.1717C15.2363 57.1717 15.1104 57.1648 14.9844 57.1648C13.9709 57.1207 12.9602 57.3 12.0238 57.6901C11.0873 58.0802 10.2482 58.6715 9.56586 59.422C9.55369 59.4385 9.53822 59.4522 9.52043 59.4623C9.50264 59.4724 9.48294 59.4787 9.46258 59.4808C9.44222 59.4828 9.42165 59.4806 9.4022 59.4742C9.38275 59.4679 9.36485 59.4575 9.34964 59.4438C9.33453 59.4198 9.32499 59.3928 9.32173 59.3646C9.31847 59.3365 9.32156 59.308 9.33079 59.2812C9.35732 59.1478 9.40809 59.0204 9.48056 58.9053C10.8979 56.895 13.3141 56.5975 15.2631 56.5618C16.4402 56.531 17.5979 56.255 18.6622 55.7516C19.7881 55.0912 20.6328 54.0412 21.0368 52.8002C21.2408 52.1066 21.3871 51.3974 21.4742 50.6798C21.5477 50.1172 21.652 49.559 21.7866 49.0077C21.7987 48.9747 21.8205 48.9461 21.8492 48.9257C21.8779 48.9053 21.9121 48.8942 21.9473 48.8937C21.967 48.8942 21.9865 48.8983 22.0048 48.9056C22.0792 48.9175 22.2191 48.972 22.22 49.0801C21.8827 50.3543 21.8968 51.696 22.2607 52.9628C22.4108 53.2276 22.6378 53.4405 22.9117 53.5733C23.1855 53.7061 23.4933 53.7526 23.7941 53.7066C24.3037 53.6907 24.8113 53.6363 25.3127 53.544C25.6737 53.4796 26.0379 53.4342 26.4037 53.4081C26.5386 53.3962 26.6765 53.3902 26.8163 53.3902C27.4358 53.4096 28.0518 53.4907 28.6553 53.6322C29.1817 53.752 29.7166 53.8315 30.2551 53.8702C30.3543 53.8702 30.4535 53.8831 30.5656 53.8921C30.756 53.9079 30.9524 53.9228 31.1518 53.9228C31.5186 53.9512 31.8837 53.8498 32.1833 53.6362C32.3509 53.4993 32.2914 53.295 32.217 53.0412L32.2041 52.9955C32.1912 52.9519 32.1764 52.9023 32.1605 52.8507C32.0544 52.5086 31.8937 51.9909 32.1605 51.7529C32.2031 51.7217 32.2545 51.7047 32.3073 51.7043C32.3343 51.7016 32.3614 51.7082 32.3841 51.723C32.4068 51.7377 32.4238 51.7598 32.4323 51.7856C32.462 51.8848 32.4908 51.984 32.5195 52.0831C32.6146 52.5123 32.7856 52.921 33.0244 53.2901C33.7087 54.1034 34.5553 54.7648 35.51 55.2319C35.9366 55.4837 36.3008 55.8285 36.5756 56.2406C36.8504 56.6527 37.0286 57.1215 37.097 57.6121C37.097 58.1159 36.609 58.4679 36.245 58.6871C35.6211 59.0269 34.9334 59.2332 34.2255 59.2931C33.9731 59.2707 33.7322 59.1767 33.5312 59.0223C32.9728 58.5106 33.0353 58.3341 32.6733 57.7241C32.4853 57.3885 32.2693 57.0694 32.0276 56.7701C31.8564 56.5816 31.6411 56.4387 31.4009 56.3542C31.1607 56.2698 30.9033 56.2463 30.6519 56.2861C30.0729 56.343 29.4983 56.4385 28.932 56.5717C28.8717 56.5827 28.8149 56.608 28.7664 56.6454C28.7179 56.6829 28.6791 56.7314 28.6533 56.787C28.6261 56.8531 28.6148 56.9248 28.6205 56.9962C28.6262 57.0675 28.6486 57.1365 28.686 57.1975C29.0093 57.7737 29.3238 58.3013 29.657 58.8597L29.8048 59.1086C29.8508 59.1656 29.9109 59.2096 29.979 59.2364C30.0472 59.2631 30.1211 59.2718 30.1936 59.2613C30.269 59.2613 30.3523 59.2554 30.4396 59.2494C30.5269 59.2435 30.6281 59.2365 30.7233 59.2365C30.8325 59.2228 30.9435 59.2353 31.0469 59.2729C31.1504 59.3105 31.2435 59.3721 31.3184 59.4527C31.4176 59.6045 31.5078 59.7691 31.5961 59.9268C31.7896 60.3434 32.068 60.7149 32.4134 61.0177C32.7931 61.3334 33.2736 61.5024 33.7673 61.4937C33.9903 61.4944 34.212 61.4609 34.4249 61.3946C35.9192 60.9689 37.3698 60.4027 38.7574 59.7036H39.2107C39.3098 59.6937 39.409 59.6848 39.5152 59.6779C39.9963 59.7057 40.4698 59.5481 40.8383 59.2375C41.2724 58.6087 41.659 57.9484 41.9948 57.262C42.1427 57.0059 42.2211 56.7156 42.2224 56.4199C42.2236 56.1242 42.1475 55.8333 42.0018 55.576C41.419 54.7259 40.9489 53.8038 40.6032 52.8329L40.5933 52.8061L40.5655 52.7982C40.4604 52.7674 40.3572 52.7268 40.2571 52.6871C40.0371 52.5845 39.7993 52.5255 39.5568 52.5135H39.5231C39.4085 52.5004 39.2924 52.5189 39.1875 52.567C39.0826 52.6151 38.9929 52.6909 38.928 52.7863L38.9151 52.8121L40.514 55.9678C40.6563 56.2322 40.7118 56.5348 40.6727 56.8326C40.425 57.4819 40.0576 58.0791 39.5896 58.5929C39.5498 58.6244 39.502 58.6443 39.4517 58.6504C39.4318 58.6504 39.3525 58.6336 39.4041 58.4521C39.589 57.7664 39.6853 57.0598 39.6907 56.3496C39.2807 55.3919 38.7952 54.4683 38.2386 53.5876L38.2138 53.5479C37.9718 53.2315 37.8316 52.849 37.8121 52.4511C37.8212 52.3677 37.8541 52.2886 37.9068 52.2234C37.9596 52.1581 38.03 52.1095 38.1097 52.0831C38.3365 52.0082 38.5686 51.9502 38.804 51.9096C39.3723 51.7846 39.9615 51.6557 40.1708 51.3373C40.8334 50.3088 41.268 49.1502 41.4453 47.9396C41.4562 47.8772 41.4999 47.7601 41.5891 47.7601C41.6407 47.7601 41.6883 47.778 41.7141 47.899C41.8289 48.5642 41.8108 49.2457 41.6608 49.9039C41.5108 50.5621 41.232 51.1841 40.8403 51.734C40.7834 51.825 40.7632 51.9342 40.7837 52.0395C40.8084 52.1216 40.8597 52.1931 40.9296 52.2428C41.6951 52.4206 42.4997 52.2985 43.1781 51.9016C43.7747 51.8962 44.3692 51.828 44.9516 51.6983C45.1311 51.6646 45.3096 51.6319 45.4862 51.5992C45.5367 51.6256 45.5761 51.6692 45.5973 51.7221C45.1224 52.2594 44.8049 52.9173 44.6798 53.6233C44.5479 53.7582 44.4001 53.8931 44.2572 54.02C43.6804 54.4182 43.2821 55.0261 43.1474 55.7139C43.1453 55.7477 43.1502 55.7816 43.1618 55.8135C43.1733 55.8454 43.1912 55.8745 43.2145 55.8992C43.2377 55.9239 43.2657 55.9436 43.2968 55.9571C43.3279 55.9706 43.3614 55.9776 43.3953 55.9777C43.4886 55.9725 43.5796 55.9471 43.6621 55.9033C43.7479 55.8595 43.8426 55.8358 43.9389 55.8339C43.9799 55.84 44.0175 55.8602 44.0454 55.8909C44.0732 55.9216 44.0895 55.9611 44.0916 56.0025L43.4965 56.8732C43.4126 57.048 43.3659 57.2383 43.3594 57.4321C43.3529 57.6259 43.3867 57.8189 43.4588 57.9989C43.5253 58.2071 43.4955 58.3678 43.552 58.5493C43.6517 58.753 43.8094 58.9226 44.0054 59.0368C44.2013 59.151 44.4266 59.2046 44.653 59.1909C45.398 59.124 46.1282 58.9431 46.8182 58.6544L47.1862 58.5225C48.127 58.1829 49.1442 58.1142 50.1221 58.3241C51.0369 58.1689 51.8721 57.7085 52.4917 57.018C52.6722 57.0402 52.8466 57.0979 53.0047 57.1878C53.1629 57.2776 53.3017 57.3979 53.4131 57.5417C53.9014 58.0803 54.5007 58.5066 55.1698 58.7912C55.8388 59.0758 56.5616 59.2118 57.2883 59.1899H57.4669L57.6266 59.177C57.7902 59.1384 57.8329 59.059 57.8418 58.9559C57.8527 58.8319 57.7575 58.7119 57.5819 58.6276L56.7012 58.1595C55.9647 57.799 55.3708 57.2013 55.015 56.4626C54.7754 55.7448 54.4493 55.0588 54.044 54.4197C53.9825 54.3205 53.913 54.2213 53.8396 54.1152C53.7101 53.9395 53.5953 53.7534 53.4965 53.5588C54.4772 53.9946 55.2476 54.7981 55.6419 55.7962C55.9472 56.3128 56.3722 56.7486 56.881 57.0668C57.3898 57.3851 57.9676 57.5765 58.5659 57.625C58.7186 57.6252 58.8709 57.6089 59.0201 57.5764C59.0761 57.5686 59.1283 57.5435 59.1692 57.5045C59.2101 57.4656 59.2378 57.4147 59.2483 57.3592C59.2612 57.3141 59.2582 57.2659 59.2398 57.2227C59.2213 57.1795 59.1886 57.144 59.1471 57.1222ZM41.9978 42.9214C41.971 43.0147 41.9135 43.0752 41.851 43.0752C41.8232 43.0752 41.7518 43.0623 41.732 42.9433C41.6129 42.0865 41.3793 41.2496 41.0377 40.455C40.9485 40.2843 40.8446 40.1217 40.7272 39.969C40.513 39.6715 40.3305 39.4236 40.5358 39.0824C40.5809 39.026 40.6391 38.9813 40.7052 38.9521C40.7713 38.9229 40.8435 38.9101 40.9157 38.9148C40.993 38.9139 41.0695 38.9302 41.1398 38.9624C41.4733 39.181 41.7291 39.4992 41.8708 39.8718C42.2262 40.8511 42.2706 41.9161 41.9978 42.9214ZM50.011 55.6157C49.9929 55.8038 49.9206 55.9826 49.8028 56.1304C49.4646 56.2983 49.0887 56.3758 48.7117 56.3555C48.3933 56.3436 48.2832 56.299 48.2158 56.2008C48.1483 56.1026 48.2624 55.8765 48.2624 55.8765C48.3764 55.6315 48.5381 55.4116 48.738 55.2298C48.9379 55.0479 49.1721 54.9077 49.4268 54.8174C49.5821 54.7665 49.7508 54.7753 49.9 54.8421C50.1271 54.9582 50.022 55.5354 50.011 55.6157ZM52.1931 50.6054C52.1728 50.7825 52.1201 50.9543 52.0374 51.1122C52.0126 51.1785 51.9682 51.2357 51.9101 51.2761C51.8519 51.3165 51.7829 51.3382 51.7121 51.3383C51.4721 51.3383 51.4899 51.0567 51.4879 51.018C51.4788 50.6407 51.4187 50.2664 51.3094 49.9053C51.1457 49.5463 50.3582 48.5347 49.9039 48.5773C49.6484 48.665 49.4272 48.8313 49.2721 49.0524C49.0043 49.3995 49.0063 49.4411 48.923 49.4937C48.8397 49.5463 48.7335 49.5185 48.6978 49.3142C48.6398 49.0622 48.6476 48.7996 48.7206 48.5515C48.7939 48.2887 48.8964 48.0349 49.0261 47.7948C49.0261 47.7948 49.2632 47.2474 49.3524 47.1105C49.4096 47.0084 49.4923 46.9228 49.5925 46.8622C49.6926 46.8015 49.8067 46.7678 49.9238 46.7644C50.056 46.7601 50.1871 46.7899 50.3045 46.8508C50.4219 46.9118 50.5217 47.0019 50.5943 47.1125C50.7437 47.279 50.8695 47.4652 50.9682 47.6659C51.1111 47.8928 51.2774 48.1042 51.4641 48.2967C51.7855 48.6794 52.0221 49.1259 52.1584 49.6068C52.2349 49.9346 52.246 50.2743 52.1912 50.6064L52.1931 50.6054Z" fill="#D2003C"/>
<path d="M90.601 56.3997C90.5619 56.3642 90.5159 56.3372 90.4659 56.3201C90.416 56.3031 90.363 56.2964 90.3104 56.3005C90.2772 56.3008 90.2441 56.3032 90.2112 56.3074C89.9784 56.3379 89.7438 56.3531 89.509 56.3531C89.3771 56.3531 89.259 56.3531 89.1509 56.3451C89.0428 56.3372 88.9654 56.3372 88.8791 56.3372C88.7518 56.3359 88.6246 56.3465 88.4993 56.3689H88.4745L88.4606 56.3917C88.2182 56.7924 88.0776 57.2463 88.0509 57.7137C88.1154 58.2522 88.6669 58.3623 89.0815 58.4456C89.2444 58.4823 89.4105 58.5029 89.5774 58.5071C89.695 58.5224 89.8144 58.5023 89.9204 58.4493C90.0265 58.3963 90.1142 58.3128 90.1725 58.2096C90.3895 57.6765 90.5452 57.1206 90.6367 56.5524C90.6429 56.5259 90.6428 56.4984 90.6367 56.4719C90.6305 56.4454 90.6183 56.4207 90.601 56.3997Z" fill="#D2003C"/>
<path d="M120.372 58.1798C120.072 57.8143 119.709 57.5053 119.301 57.2674C119.158 57.1758 119.02 57.0764 118.888 56.9699L118.816 56.9163C118.733 56.8445 118.627 56.8059 118.518 56.8082C118.33 56.8334 118.151 56.9072 118 57.0226C117.849 57.1379 117.731 57.2907 117.657 57.4657C117.644 57.7117 117.994 58.1471 118.451 58.6905L118.55 58.8075C118.637 58.9278 118.748 59.029 118.876 59.105C119.004 59.181 119.146 59.2303 119.294 59.2499C119.425 59.2503 119.554 59.2241 119.675 59.173C119.795 59.1218 119.904 59.0468 119.995 58.9523C120.168 58.8026 120.538 58.4188 120.372 58.1798Z" fill="#D2003C"/>
<path d="M122.278 61.3536C122.215 61.2295 122.162 61.1001 122.121 60.9669C122.082 60.7864 122.058 60.594 122.034 60.4075C122.014 60.134 121.958 59.8642 121.867 59.6052C121.802 59.4696 121.7 59.3548 121.573 59.2735C121.447 59.1921 121.3 59.1473 121.149 59.144C121.046 59.1438 120.944 59.1675 120.852 59.2135C120.403 59.4376 120.139 59.6756 120.212 60.1794C120.425 60.8302 120.602 61.4924 120.742 62.1629C120.761 62.274 120.835 62.636 121.01 62.636C121.023 62.6357 121.036 62.6337 121.049 62.63L122.339 62.2075C122.369 62.1996 122.396 62.1851 122.42 62.165C122.443 62.1449 122.462 62.1198 122.475 62.0915C122.545 61.9239 122.409 61.6333 122.278 61.3536Z" fill="#D2003C"/>
<path d="M120.01 62.3751C119.911 61.5863 119.692 60.8172 119.362 60.0941L119.346 60.0574H119.308C118.565 60.103 118.101 59.5 117.656 58.9199C117.509 58.7275 117.369 58.546 117.223 58.3893C117.002 58.1412 116.763 57.9092 116.509 57.6951C116.285 57.5263 116.091 57.3207 115.935 57.0871C115.801 56.7467 115.691 56.397 115.606 56.0408C115.527 55.7493 115.452 55.4746 115.384 55.2881C115.369 55.2504 115.354 55.2108 115.34 55.1701C115.206 54.8111 115.043 54.3648 114.576 54.2874C114.336 54.254 114.093 54.2345 113.85 54.2289C113.539 54.2557 113.226 54.2133 112.934 54.105C112.641 53.9966 112.376 53.8249 112.157 53.6022C112.034 53.41 111.968 53.1869 111.966 52.9587C111.965 52.7305 112.028 52.5065 112.149 52.3129C112.223 52.1375 112.283 51.9568 112.33 51.7724C112.585 50.9557 112.633 50.0884 112.471 49.2484C112.442 49.1344 112.404 49.0223 112.371 48.9132C112.253 48.6368 112.205 48.335 112.234 48.0355C112.257 47.9813 112.298 47.9363 112.349 47.9076C112.401 47.8789 112.461 47.8681 112.519 47.8768C112.649 47.885 112.778 47.9103 112.901 47.9522C112.992 47.978 113.063 47.9919 113.149 48.0117C113.571 48.1168 114.004 48.1743 114.438 48.1833C115.205 48.1815 115.963 48.0264 116.669 47.7271C117.402 47.3956 118.027 46.8633 118.47 46.1918C118.913 45.5203 119.156 44.737 119.173 43.9327C119.003 42.1575 117.906 40.4428 115.817 38.6894L115.659 38.5575C115.388 38.3333 115.064 38.0517 115.051 37.7978C115.039 37.5439 115.694 37.3932 116.105 37.3019C116.204 37.2801 116.285 37.2613 116.357 37.2424L116.462 37.2147C116.992 37.1095 117.5 36.9121 117.962 36.6315C118.516 36.1998 118.931 35.6153 119.157 34.9501C119.382 34.2849 119.408 33.5683 119.23 32.8887C119.221 32.858 119.214 32.8269 119.208 32.7955C119.181 32.6685 119.147 32.5089 119.03 32.5089C118.987 32.5117 118.947 32.5309 118.918 32.5624C118.873 32.6021 118.828 32.6447 118.783 32.6894C118.609 32.8681 118.414 33.0252 118.203 33.1575C117.703 33.4132 117.165 33.5867 116.611 33.6712C116.256 33.7379 115.905 33.8267 115.561 33.937C114.965 34.0734 114.408 34.3458 113.934 34.7329C113.46 35.1199 113.082 35.6112 112.83 36.1684C112.75 36.462 112.732 36.7688 112.775 37.0699C112.818 37.371 112.922 37.6602 113.081 37.9198C113.617 38.6854 114.243 39.3845 114.944 40.0024C116.106 40.8888 116.956 42.1208 117.373 43.5211C117.437 43.9427 117.372 44.3736 117.187 44.7576C117.002 45.1417 116.705 45.4611 116.336 45.6742C115.842 45.9538 115.281 46.0937 114.714 46.0788C113.925 46.0725 113.149 45.8777 112.451 45.5105C111.581 45.0514 110.741 44.5387 109.935 43.9753C108.743 43.0986 107.434 42.393 106.046 41.8788C105.425 41.6272 104.778 41.4456 104.117 41.3373C103.17 41.2223 102.264 40.8863 101.471 40.3565C101.208 40.1849 100.946 39.9965 100.693 39.812C100.033 39.2669 99.276 38.8495 98.4625 38.5813C98.1716 38.4907 97.8727 38.428 97.5699 38.3938C97.1263 38.3686 96.6961 38.2322 96.3191 37.9971C96.1445 37.8722 95.969 37.7432 95.7924 37.6153C95.1673 37.1295 94.5039 36.6951 93.8087 36.3161C92.6122 35.7706 91.352 35.3774 90.0575 35.1459C89.6452 35.0046 89.2931 34.7277 89.0587 34.3604C88.8755 34.1133 88.6573 33.8942 88.411 33.7099C87.5285 32.8727 86.3764 32.3775 85.1617 32.3135C85.0476 32.3135 84.9305 32.3135 84.8145 32.3274C84.1687 32.4479 83.575 32.7624 83.1125 33.2289C81.8796 34.3079 80.5544 35.2669 79.273 36.1951C77.2618 37.5519 75.3952 39.1114 73.7027 40.8494C72.0433 42.5611 71.4392 44.7013 70.855 46.7711C70.7687 47.0765 70.6824 47.381 70.5932 47.6864C70.4365 48.2507 70.2907 48.8339 70.1508 49.3972C69.39 52.4507 68.6035 55.4993 65.5525 57.4799C65.5115 57.5056 65.4786 57.5426 65.4579 57.5864C65.4372 57.6302 65.4294 57.6791 65.4356 57.7272C65.4417 57.7752 65.4615 57.8206 65.4926 57.8578C65.5237 57.8949 65.5648 57.9225 65.611 57.937C66.0821 58.0709 66.5819 58.0647 67.0494 57.919C67.5169 57.7733 67.9319 57.4946 68.2434 57.1169C69.0369 56.1827 69.4426 55.2812 70.366 54.2934C70.3968 54.2627 70.5039 54.1615 70.5902 54.1873C70.6537 54.2061 70.6834 54.2438 70.6537 54.3579C70.5186 54.749 70.3173 55.114 70.0586 55.4369C69.7983 55.7722 69.5925 56.1464 69.4486 56.5456C69.0372 57.4268 68.4064 58.1877 67.6166 58.7552C67.5494 58.7995 67.4883 58.8526 67.4351 58.9129C67.3676 58.9962 67.3706 59.0329 67.3706 59.0329C67.3508 59.2313 67.5035 59.3443 67.812 59.3582C69.522 59.3582 70.738 58.1423 71.9133 56.9661C71.9394 56.9405 71.9705 56.9207 72.0046 56.9079C72.0388 56.8951 72.0753 56.8896 72.1117 56.8918C72.1762 56.8839 72.2415 56.8946 72.3002 56.9225C72.4409 57.0256 72.5735 57.1393 72.6969 57.2627C73.0502 57.6406 73.4976 57.9178 73.9933 58.066H74.0032H74.0131C74.5959 57.9721 75.1845 57.9191 75.7747 57.9073C75.9393 57.9073 76.1 57.9132 76.2398 57.9232C76.8637 58.1116 77.4866 58.3456 78.0877 58.5728C78.5142 58.7334 78.9526 58.898 79.393 59.0488H79.4029H79.4138C79.9831 59.027 80.3928 58.4974 80.6903 58.0293C80.7953 57.7136 80.7985 57.3729 80.6993 57.0554C80.6537 56.8715 80.6314 56.6826 80.6328 56.4931C80.7625 56.4469 80.9029 56.44 81.0365 56.4732C81.1687 56.4856 81.3019 56.4823 81.4332 56.4633C81.4781 56.4534 81.5206 56.4346 81.5582 56.4081C81.5958 56.3816 81.6277 56.348 81.6522 56.309C81.6766 56.2701 81.6931 56.2267 81.7006 56.1813C81.7082 56.136 81.7066 56.0896 81.6961 56.0448C81.5653 55.5488 81.3321 55.0857 81.0117 54.6851C80.756 54.3437 80.5521 53.9664 80.4067 53.5655C80.1752 53.0487 79.845 52.5821 79.4346 52.1919C78.9739 51.779 78.6316 51.2508 78.4428 50.6616C78.4428 50.6616 78.4031 50.5377 78.4477 50.4921C78.4924 50.4464 78.6114 50.5 78.6114 50.5C78.8147 50.6497 79.022 50.8173 79.2214 50.979C79.8141 51.5577 80.5501 51.9684 81.3539 52.1691C82.149 52.2748 82.9521 52.3079 83.7532 52.2683C83.7995 52.2636 83.8442 52.2488 83.8842 52.2249C83.9241 52.201 83.9582 52.1685 83.9841 52.1298C84.01 52.0912 84.027 52.0472 84.0339 52.0012C84.0408 51.9552 84.0374 51.9082 84.024 51.8636C83.6664 51.1525 83.3781 50.4085 83.1631 49.6421C82.8113 48.5446 82.7545 47.3738 82.9984 46.2474C83.0075 46.2039 83.0309 46.1648 83.0649 46.1362C83.0989 46.1076 83.1415 46.0912 83.1859 46.0897C83.1957 46.0898 83.2055 46.0919 83.2146 46.0957C83.279 46.1206 83.3354 46.1628 83.3775 46.2175C83.4197 46.2722 83.446 46.3374 83.4537 46.4061L83.4656 46.5618C83.41 48.1485 83.8364 49.7148 84.6885 51.0544C84.9502 51.4247 85.3004 51.7237 85.7072 51.9241C85.9809 52.0512 86.229 52.2273 86.4392 52.4438C86.5413 52.5876 86.6042 52.7555 86.6216 52.931C86.639 53.1065 86.6103 53.2835 86.5384 53.4445L85.3124 55.2524C85.0088 55.6424 84.7807 56.0857 84.6399 56.5595C84.5707 56.9985 84.5661 57.4452 84.626 57.8855L84.635 57.9846C84.5955 57.9616 84.564 57.927 84.5447 57.8855C84.3202 57.5644 84.1725 57.196 84.113 56.8087C84.0535 56.4215 84.0838 56.0258 84.2015 55.6521C84.3652 55.2742 85.362 53.861 85.6546 53.3949C85.7478 53.2481 85.8232 53.0974 85.7439 52.9982C85.4301 52.7797 85.075 52.6275 84.7004 52.5509C84.6873 52.5492 84.6739 52.5492 84.6608 52.5509C84.495 52.6215 84.3583 52.7463 84.2729 52.905L84.2045 53.0041L82.6929 55.7473L82.6592 55.8465C82.547 56.108 82.5159 56.3972 82.5699 56.6765C82.6522 57.0881 82.7822 57.5304 82.8774 57.8528C82.9032 57.942 82.93 58.0323 82.9548 58.1215C83.0371 58.5384 83.1972 58.9361 83.4269 59.2937C83.4902 59.3696 83.5703 59.4298 83.6608 59.4696C83.7514 59.5093 83.8498 59.5276 83.9486 59.5228C84.0647 59.5197 84.1804 59.5078 84.2948 59.4871C84.4751 59.4484 84.6612 59.4437 84.8433 59.4732C85.0627 59.5512 85.2543 59.6924 85.3937 59.8789C85.5477 60.0772 85.7537 60.229 85.9889 60.3172C86.456 60.4729 86.946 60.6018 87.4211 60.7258C88.0668 60.882 88.7029 61.0751 89.3265 61.304C89.6768 61.4322 90.0448 61.5055 90.4175 61.5212C90.7915 61.5257 91.1523 61.3832 91.4223 61.1245C91.8473 60.7888 92.1248 60.3007 92.1959 59.7638C92.2951 59.2422 92.4657 59.2055 92.8456 59.1847C92.9782 59.1889 93.1104 59.1684 93.2354 59.1242C93.6641 58.7759 94.012 58.3387 94.2551 57.8428C94.3286 57.7046 94.409 57.5703 94.4961 57.4402C94.571 57.3401 94.6129 57.2191 94.6161 57.0941C94.616 57.0457 94.6062 56.9978 94.5872 56.9533C94.5683 56.9088 94.5406 56.8685 94.5059 56.8348C94.4711 56.8012 94.4299 56.7748 94.3848 56.7573C94.3397 56.7399 94.2915 56.7316 94.2431 56.7331H94.144C94.144 56.7331 92.5302 56.7251 92.0878 56.7331C91.4253 56.7698 91.1346 57.4055 90.9035 57.9688C90.8248 58.177 90.7289 58.3784 90.6169 58.5708C90.5227 58.7332 90.3846 58.8659 90.2185 58.9536C90.0524 59.0413 89.8649 59.0805 89.6776 59.0666C89.4966 59.0434 89.3176 59.007 89.142 58.9575C88.2711 58.7433 87.3705 58.5222 87.0035 57.6584C86.9656 57.5378 86.9575 57.4098 86.98 57.2854C87.0024 57.1611 87.0548 57.044 87.1325 56.9443C87.6475 56.3216 88.2196 55.7486 88.8415 55.2326C89.3045 55.1197 89.7405 54.9159 90.124 54.6329C90.5074 54.3499 90.8308 53.9935 91.0751 53.5843C91.1659 53.4406 91.2348 53.2842 91.2795 53.1202C91.3268 52.874 91.4609 52.6531 91.6574 52.4974C91.7992 52.4269 91.9133 52.4517 91.944 52.5747C91.9831 53.0295 91.8937 53.4862 91.6861 53.8927C91.6494 53.9919 91.6117 54.0831 91.578 54.1764L91.5542 54.2448L91.6266 54.2517C91.8731 54.2765 92.1208 54.2887 92.3685 54.2884C93.2355 54.2646 94.0987 54.1627 94.9474 53.984C95.7861 53.8087 96.6389 53.7091 97.4955 53.6865C97.5887 53.6865 97.6829 53.6864 97.7791 53.6914C98.1689 53.6914 98.5478 53.7251 98.9148 53.7579C99.2818 53.7906 99.6448 53.8243 100.018 53.8243C100.15 53.8243 100.275 53.8243 100.396 53.8114C100.857 53.843 101.316 53.7279 101.708 53.4826C102.1 53.2373 102.405 52.8744 102.578 52.4458C102.811 51.2776 102.786 50.0725 102.503 48.9152C102.49 48.8359 102.482 48.7853 102.481 48.7744V48.7426C102.475 48.7097 102.48 48.676 102.495 48.646C102.509 48.6161 102.533 48.5913 102.562 48.575C102.661 48.5205 102.777 48.575 102.831 48.7089C103.212 49.8488 103.48 51.0234 103.632 52.2157C103.817 53.234 104.218 54.201 104.806 55.0521C105.206 55.6434 105.747 56.1255 106.38 56.4546C107.014 56.7837 107.719 56.9493 108.433 56.9364C108.784 56.9227 109.135 56.8856 109.481 56.8253C109.646 56.8039 109.812 56.7976 109.977 56.8065C110.91 56.802 111.832 57.0162 112.667 57.4317C113.503 57.8473 114.229 58.4527 114.789 59.1995C114.804 59.222 114.811 59.2489 114.808 59.2759C114.805 59.2953 114.797 59.3137 114.785 59.3297C114.773 59.3457 114.758 59.3589 114.741 59.3683C114.724 59.3778 114.705 59.3833 114.685 59.3845C114.665 59.3857 114.645 59.3824 114.627 59.3751L114.464 59.2491C113.46 58.3112 112.22 57.6645 110.876 57.3787C110.614 57.3324 110.348 57.3102 110.082 57.3122C109.686 57.3194 109.29 57.3492 108.897 57.4015C108.527 57.4512 108.155 57.4797 107.782 57.4868C107.35 57.4952 106.92 57.418 106.517 57.2597C105.756 56.9209 105.068 56.4349 104.495 55.8297C103.921 55.2245 103.473 54.512 103.176 53.7331C103.16 53.7016 103.136 53.6749 103.106 53.6559C103.076 53.6369 103.042 53.6262 103.006 53.625C102.958 53.6265 102.911 53.6416 102.871 53.6686C102.685 53.7846 102.653 53.8481 102.625 53.9661C102.665 54.3943 102.731 54.8196 102.824 55.2395C102.878 55.7921 103.055 56.3257 103.341 56.8015C103.627 57.2774 104.015 57.6835 104.478 57.9906C105.067 58.4809 105.779 58.7993 106.537 58.9109C106.776 58.9339 107.017 58.9232 107.252 58.8792C107.661 58.7895 108.079 58.7443 108.497 58.7443C109.866 58.7598 111.196 59.2057 112.298 60.0187C112.49 60.1366 112.67 60.2717 112.838 60.4223C113.069 60.6434 113.337 60.8214 113.631 60.948C113.823 61.0246 114.028 61.0637 114.235 61.063C114.598 61.0586 114.95 60.9418 115.243 60.7288C115.376 60.6629 115.523 60.6267 115.671 60.6227C116.082 60.6227 116.311 60.943 116.6 61.3486C116.784 61.6255 116.999 61.8815 117.238 62.1123C117.601 62.4133 118.067 62.56 118.537 62.5209C118.758 62.5209 118.983 62.505 119.203 62.4901C119.424 62.4752 119.669 62.4703 119.798 62.4544C119.867 62.4473 119.935 62.436 120.003 62.4207L120.01 62.3751ZM76.467 56.264C76.4111 56.3393 76.3365 56.3986 76.2505 56.4361C76.1645 56.4735 76.0702 56.4877 75.977 56.4772C75.7806 56.4797 75.5875 56.426 75.4206 56.3225C75.2598 56.1967 75.1301 56.0357 75.0414 55.8519C74.9526 55.6681 74.9073 55.4664 74.9088 55.2623C74.8971 55.2137 74.8974 55.1629 74.9097 55.1144C74.922 55.0659 74.946 55.0211 74.9794 54.9839C75.0129 54.9467 75.055 54.9182 75.1019 54.9009C75.1489 54.8836 75.1994 54.8779 75.249 54.8845C75.6379 54.9118 76.0008 55.0897 76.2607 55.3803C76.2795 55.3992 76.6673 55.9129 76.467 56.259V56.264ZM76.8885 49.5202C76.8469 49.5946 76.7802 49.652 76.7004 49.6821C76.6205 49.7122 76.5326 49.7132 76.4521 49.6848C76.2896 49.5948 76.1595 49.456 76.0802 49.2881C75.975 49.1016 75.8887 48.938 75.6398 48.9569C75.6269 48.9556 75.6139 48.9556 75.6011 48.9569C75.3921 48.9862 75.1968 49.0778 75.0407 49.2197C74.9514 49.2881 74.6003 49.5519 74.511 49.6273C74.0089 49.9586 73.6305 50.4468 73.4349 51.0157C73.3863 51.22 73.3863 51.22 73.3684 51.3132C73.3666 51.4098 73.3447 51.5049 73.304 51.5925C73.2634 51.6801 73.2049 51.7583 73.1323 51.822L73.1175 51.8289C73.0936 51.8359 73.0689 51.8396 73.0441 51.8398C72.9684 51.8385 72.8957 51.8104 72.8387 51.7605C72.8086 51.7384 72.784 51.7096 72.7668 51.6764C72.7496 51.6432 72.7402 51.6065 72.7396 51.5691C72.6891 51.1136 72.7467 50.6525 72.9079 50.2235C73.069 49.7944 73.3291 49.4094 73.667 49.0997C74.0932 48.723 74.4764 48.3002 74.8096 47.8392C74.9772 47.624 75.1508 47.4008 75.3303 47.1955C75.4672 47.0577 75.6894 47.1757 76.0583 47.5763C76.3984 48.0515 76.6852 48.5627 76.9133 49.1006C76.9366 49.1681 76.9461 49.2395 76.9414 49.3107C76.9366 49.3819 76.9176 49.4514 76.8855 49.5152L76.8885 49.5202ZM84.9405 38.2143C84.756 38.3899 84.5636 38.5654 84.3691 38.7429C83.6691 39.3257 83.0465 39.9956 82.5163 40.7363C82.3064 41.043 82.1264 41.3692 81.9788 41.7102C81.9609 41.7449 81.9242 41.8213 81.8468 41.8213C81.8279 41.8199 81.8093 41.8149 81.7923 41.8064C81.7753 41.7978 81.7601 41.7861 81.7477 41.7717C81.6575 41.2656 81.7083 40.7444 81.8945 40.2652C82.3926 39.0932 83.2064 38.0824 84.2452 37.3456C84.3691 37.2687 84.5119 37.2275 84.6578 37.2266C84.7492 37.2194 84.8406 37.241 84.9192 37.2883C84.9978 37.3356 85.0597 37.4062 85.0962 37.4904C85.1605 37.609 85.1802 37.7468 85.1516 37.8787C85.1231 38.0106 85.0481 38.1279 84.9405 38.2094V38.2143Z" fill="#D2003C"/>
<path d="M50.5615 33.6336C50.5615 31.3512 51.2384 29.1201 52.5067 27.2223C53.7749 25.3246 55.5774 23.8455 57.6864 22.9721C59.7954 22.0987 62.116 21.8702 64.3548 22.3156C66.5936 22.7609 68.6501 23.8601 70.2641 25.4741C71.8782 27.088 72.9773 29.1443 73.4225 31.3829C73.8677 33.6215 73.639 35.9418 72.7653 38.0504C71.8916 40.1591 70.4122 41.9613 68.5141 43.2292C66.616 44.4971 64.3845 45.1737 62.1018 45.1735C59.0411 45.1732 56.1057 43.9573 53.9415 41.7932C51.7773 39.6291 50.5615 36.694 50.5615 33.6336Z" fill="white"/>
<path d="M53.429 39.8587C55.1931 41.1116 57.2783 41.835 59.4395 41.9438C61.6007 42.0527 63.748 41.5424 65.6292 40.4731C67.5103 39.4038 69.0471 37.8197 70.0589 35.9072C71.0707 33.9947 71.5155 31.8331 71.341 29.6765C71.2775 29.0143 71.1591 28.3584 70.9869 27.7158C72.5198 30.0451 73.0804 32.8817 72.5487 35.6189C72.017 38.3561 70.4354 40.7766 68.1419 42.3629C65.8485 43.9492 63.0253 44.5753 60.2762 44.1073C57.5271 43.6393 55.0702 42.1144 53.431 39.8587H53.429Z" fill="#DADADA"/>
<path fill-rule="evenodd" clip-rule="evenodd" d="M55.262 41.8293C53.462 40.3263 52.2071 38.2724 51.6913 35.985C52.2626 36.5801 53.3675 37.7116 53.3675 37.7116C54.0711 39.009 54.848 40.2652 55.6944 41.4743C55.5635 41.6079 55.4185 41.7269 55.262 41.8293ZM62.1058 22.9575C63.4705 22.9557 64.8228 23.2163 66.0891 23.7251C65.9614 24.2471 65.7504 24.745 65.4643 25.1999C63.904 25.0298 62.331 25.0092 60.7668 25.1384L58.7117 23.5089C59.8049 23.1434 60.9501 22.9576 62.1028 22.9585L62.1058 22.9575ZM61.2022 40.0154L65.8174 39.8905L66.71 42.4055C65.4984 43.0882 64.2072 43.6188 62.8656 43.9854C61.625 43.7408 60.4452 43.253 59.3941 42.5503L61.2022 40.0154ZM66.0455 32.0131C66.6444 30.7869 67.3322 29.6062 68.1036 28.4805C69.2179 28.9996 70.2825 29.6191 71.2845 30.3311C71.5735 31.8383 71.6157 33.3824 71.4095 34.903C70.4126 35.4396 69.3504 35.845 68.2494 36.109C68.2494 36.109 66.9778 33.9728 66.0425 32.0181L66.0455 32.0131ZM54.8404 25.8088C54.2304 26.8121 53.6816 27.8514 53.1969 28.9209C52.573 29.6994 52.0295 30.4928 51.7954 30.8419C52.3191 28.9122 53.3741 27.1683 54.8404 25.8088ZM58.9557 36.3004C56.4611 35.6974 54.7571 35.0944 54.7571 35.0944C54.5953 33.4922 54.5813 31.8784 54.7154 30.2736C55.7946 29.7113 58.7265 28.4022 58.7265 28.4022C59.7174 29.5717 60.6271 30.8076 61.4492 32.1014C60.8045 33.349 58.9557 36.3004 58.9557 36.3004Z" fill="#001D46"/>
<path d="M38.0859 63.2231L40.0696 65.6529C40.2015 65.8118 40.3004 65.9953 40.3606 66.1928C40.4207 66.3903 40.441 66.5978 40.4201 66.8032C40.3993 67.0086 40.3377 67.2078 40.239 67.3892C40.1404 67.5705 40.0066 67.7304 39.8454 67.8595L36.1339 70.8853C35.9316 71.0805 35.6696 71.202 35.39 71.2304C35.1725 71.228 34.9573 71.1857 34.7552 71.1055C34.8245 71.3134 34.8245 71.5382 34.7552 71.7461C34.6179 72.0628 34.3945 72.3346 34.1105 72.5306L30.5467 75.4354C30.3877 75.5668 30.2041 75.6653 30.0067 75.7252C29.8093 75.785 29.6019 75.8051 29.3967 75.7841C29.1914 75.7632 28.9924 75.7016 28.8112 75.6031C28.6299 75.5046 28.47 75.3711 28.3408 75.2103L26.3571 72.7795L38.0859 63.2231ZM28.564 73.0047L29.5558 74.2195L33.5957 70.927L32.6038 69.7121L28.564 73.0047ZM33.8209 68.7213L34.8127 69.9362L38.8536 66.6436L37.8617 65.4288L33.8209 68.7213Z" fill="#001D46"/>
<path d="M42.0325 67.813L44.5052 69.7399C44.6691 69.8655 44.8064 70.0224 44.9089 70.2015C45.0115 70.3806 45.0774 70.5784 45.1027 70.7833C45.128 70.9882 45.1122 71.196 45.0563 71.3947C45.0004 71.5934 44.9054 71.779 44.777 71.9406L41.8321 75.7172C41.6792 75.9528 41.4509 76.1297 41.1844 76.219C40.9722 76.2651 40.7534 76.2719 40.5387 76.2388C40.6533 76.4256 40.7041 76.6445 40.6835 76.8626C40.6202 77.202 40.4628 77.5167 40.2293 77.771L37.1307 81.7469C37.0076 81.8992 36.9163 82.0746 36.8619 82.2626C36.809 82.4613 36.7683 82.663 36.7399 82.8666L35.4703 81.8749C35.5028 81.6843 35.5503 81.4966 35.6122 81.3135C35.6745 81.1211 35.7698 80.9409 35.8938 80.781L39.3733 76.3182L38.1374 75.3532L33.9716 80.6987L32.7357 79.7347L42.0325 67.813ZM39.0985 74.1224L40.3344 75.0864L43.5401 70.9776L42.3042 70.0137L39.0985 74.1224Z" fill="#001D46"/>
<path d="M45.99 73.4549C46.1233 73.1704 46.3161 72.9178 46.5554 72.7141C47.0191 72.3182 47.6132 72.1086 48.2227 72.126C48.5362 72.1367 48.844 72.2122 49.1269 72.3478C49.4097 72.4833 49.6615 72.6759 49.8662 72.9134C50.2619 73.3768 50.4715 73.9705 50.4544 74.5796C50.4454 74.8933 50.37 75.2016 50.2332 75.484L44.6629 87.1211L43.2485 86.4447L46.1765 80.3307L44.7621 79.6533L41.8351 85.7684L40.4207 85.091L45.99 73.4549ZM45.4376 78.2401L46.8519 78.9164L49.1025 74.2156L47.6881 73.5392L45.4376 78.2401Z" fill="#001D46"/>
<path d="M52.0374 76.1226C52.1082 75.8172 52.2435 75.5304 52.4342 75.2816C52.6176 75.0414 52.8439 74.8373 53.1017 74.6796C53.3599 74.5224 53.6446 74.4135 53.9418 74.3583C54.2506 74.3034 54.5674 74.3131 54.8722 74.3866C55.1771 74.4602 55.4635 74.5961 55.7133 74.7857C56.1972 75.1563 56.526 75.6936 56.6357 76.2931C56.6933 76.6016 56.6838 76.9189 56.6079 77.2234L56.2112 78.8925L54.6867 78.5255L55.2421 76.2188L53.7176 75.8518L50.9107 87.5097L52.4342 87.8767L53.6532 82.8099L52.9936 82.6512L53.3606 81.1269L55.5426 81.6535L54.1094 87.6039C54.0383 87.9092 53.9031 88.1959 53.7127 88.4449C53.342 88.9288 52.8046 89.2575 52.205 89.3672C51.8963 89.4222 51.5796 89.4126 51.2747 89.3392C50.9698 89.2658 50.6835 89.1302 50.4336 88.9408C49.9491 88.5703 49.6202 88.0324 49.5111 87.4324C49.4536 87.1239 49.463 86.8066 49.5389 86.5021L52.0374 76.1226Z" fill="#001D46"/>
<path d="M58.543 77.4815C58.551 77.1677 58.6261 76.8593 58.7632 76.577C59.0283 76.0281 59.4878 75.5973 60.0526 75.3681C60.3438 75.2516 60.6559 75.1967 60.9693 75.2067C61.2827 75.2168 61.5906 75.2917 61.8737 75.4266C62.4227 75.6915 62.8537 76.151 63.0828 76.7158C63.2017 77.0062 63.2568 77.3187 63.2445 77.6322L62.8289 90.5248L61.2617 90.4752L61.4799 83.6997L59.9128 83.6481L59.6946 90.4246L58.1274 90.3741L58.543 77.4815ZM59.9634 82.0841L61.5305 82.1337L61.6981 76.9261L60.131 76.8745L59.9634 82.0841Z" fill="#001D46"/>
<path d="M64.8275 75.3095L66.2885 75.0586C66.8367 76.5839 67.4146 78.097 68.0223 79.5978C68.63 81.0986 69.1953 82.6639 69.7184 84.2937L69.759 84.2858C69.6929 83.9684 69.6053 83.5823 69.4962 83.1274C69.3891 82.6732 69.2849 82.2041 69.1798 81.7201C69.0746 81.2362 68.9814 80.7631 68.8822 80.299C68.783 79.8348 68.7126 79.4352 68.6551 79.1019L67.9152 74.7799L69.4605 74.5142L72.0116 89.424L70.5495 89.6749C70.0007 88.1489 69.4228 86.6355 68.8158 85.1347C68.2088 83.6339 67.6434 82.0686 67.1197 80.4388L67.079 80.4467C67.1584 80.7476 67.249 81.1297 67.3508 81.5932C67.4526 82.0567 67.5551 82.5301 67.6583 83.0134C67.7627 83.4967 67.8619 83.9704 67.9558 84.4345C68.0497 84.8987 68.1251 85.2977 68.182 85.6316L68.9219 89.9545L67.3766 90.2183L64.8275 75.3095Z" fill="#001D46"/>
<path d="M72.4212 75.1766L70.9552 75.73L70.4017 74.2632L74.8016 72.6021L75.3561 74.0688L73.8881 74.6222L78.6788 87.3056L77.2129 87.859L72.4212 75.1766Z" fill="#001D46"/>
<path d="M75.8857 71.9664L77.2515 71.1958L84.6786 84.374L83.3128 85.1436L75.8857 71.9664Z" fill="#001D46"/>
<path d="M78.7294 70.3527L79.877 69.4135C81.1056 70.4714 82.3547 71.5025 83.6243 72.5068C84.8939 73.5111 86.1575 74.594 87.4152 75.7557L87.4489 75.7289C87.232 75.4863 86.9652 75.1934 86.6485 74.8502C86.3317 74.5071 86.0087 74.1511 85.6794 73.7821C85.3488 73.4132 85.0291 73.0496 84.7203 72.6912C84.4115 72.3329 84.149 72.0228 83.9328 71.761L81.1555 68.3663L82.3696 67.3745L91.943 79.086L90.7955 80.0241C89.5669 78.9663 88.3178 77.9352 87.0482 76.9309C85.7786 75.9266 84.515 74.8436 83.2573 73.682L83.2246 73.7088C83.4434 73.9316 83.7106 74.2195 84.026 74.5726L84.994 75.6555C85.3247 76.0258 85.6444 76.3894 85.9532 76.7464C86.262 77.1035 86.5245 77.4132 86.7407 77.6757L89.5179 81.0724L88.3039 82.0642L78.7294 70.3527Z" fill="#001D46"/>
<path d="M85.0803 67.774C84.831 67.5831 84.6251 67.3414 84.4763 67.0649C84.1872 66.5283 84.1083 65.9032 84.2551 65.3115C84.3315 65.0073 84.4703 64.7223 84.6625 64.4745C84.8547 64.2266 85.0963 64.0213 85.3719 63.8715C85.6383 63.7289 85.9283 63.6358 86.2279 63.5968C86.5278 63.5592 86.8321 63.577 87.1255 63.6494C87.4302 63.7239 87.7153 63.8629 87.9617 64.057L96.4004 70.6025C96.6501 70.7926 96.8561 71.0341 97.0045 71.3106C97.2937 71.8472 97.3725 72.4723 97.2257 73.064C97.1491 73.3681 97.0104 73.6531 96.8184 73.9011C96.6263 74.149 96.3851 74.3546 96.1098 74.505C95.5727 74.7941 94.9473 74.8729 94.3552 74.7261C94.0504 74.6512 93.765 74.5123 93.5181 74.3185L85.0803 67.774ZM86.4828 64.898L85.5227 66.1367L94.9999 73.4845L95.9611 72.2458L86.4828 64.898Z" fill="#001D46"/>
</g>
<defs>
<clipPath id="clip0_1_107">
<rect width="124" height="100" fill="white"/>
</clipPath>
</defs>
</svg>
