<svg width="79" height="100" viewBox="0 0 79 100" fill="none" xmlns="http://www.w3.org/2000/svg">
<g clip-path="url(#clip0_1_182)">
<mask id="mask0_1_182" style="mask-type:luminance" maskUnits="userSpaceOnUse" x="-6" y="-4" width="91" height="109">
<path d="M84.7659 -3.84619H-5.76382V104.701H84.7659V-3.84619Z" fill="white"/>
</mask>
<g mask="url(#mask0_1_182)">
<path d="M39.501 99.7048C61.2 99.7048 78.805 82.1078 78.805 60.4142C78.805 38.7416 61.2 21.145 39.501 21.145C17.8021 21.145 0.196617 38.7416 0.196617 60.4142C0.195763 82.1108 17.8008 99.7048 39.501 99.7048Z" fill="#00544D"/>
</g>
<mask id="mask1_1_182" style="mask-type:luminance" maskUnits="userSpaceOnUse" x="-6" y="-4" width="91" height="109">
<path d="M84.7659 -3.84619H-5.76382V104.701H84.7659V-3.84619Z" fill="white"/>
</mask>
<g mask="url(#mask1_1_182)">
<path d="M39.501 98.1111C60.2951 98.1111 77.1674 81.226 77.1674 60.4162C77.1674 39.6277 60.2951 22.7427 39.501 22.7427C18.7074 22.7427 1.83469 39.6277 1.83469 60.4162C1.83384 81.2281 18.7061 98.1128 39.501 98.1128" fill="white"/>
</g>
<mask id="mask2_1_182" style="mask-type:luminance" maskUnits="userSpaceOnUse" x="-6" y="-4" width="91" height="109">
<path d="M84.7659 -3.84619H-5.76382V104.701H84.7659V-3.84619Z" fill="white"/>
</mask>
<g mask="url(#mask2_1_182)">
<path d="M39.501 96.6239C59.4761 96.6239 75.6591 80.4076 75.6591 60.417C75.6591 40.4478 59.4765 24.2529 39.501 24.2529C19.5256 24.2529 3.34296 40.4478 3.34296 60.417C3.3421 80.4042 19.5247 96.6222 39.501 96.6222" fill="#00544D"/>
</g>
<mask id="mask3_1_182" style="mask-type:luminance" maskUnits="userSpaceOnUse" x="-6" y="-4" width="91" height="109">
<path d="M84.7659 -3.84619H-5.76382V104.701H84.7659V-3.84619Z" fill="white"/>
</mask>
<g mask="url(#mask3_1_182)">
<path d="M39.501 87.0686C54.1972 87.0686 66.1347 75.1433 66.1347 60.4147C66.1347 45.7074 54.1972 33.7822 39.501 33.7822C24.8053 33.7822 12.8674 45.7074 12.8674 60.4147C12.8661 75.1455 24.804 87.0686 39.501 87.0686Z" fill="white"/>
</g>
<mask id="mask4_1_182" style="mask-type:luminance" maskUnits="userSpaceOnUse" x="-6" y="-4" width="91" height="109">
<path d="M84.7659 -3.84619H-5.76382V104.701H84.7659V-3.84619Z" fill="white"/>
</mask>
<g mask="url(#mask4_1_182)">
<path d="M39.501 85.7306C53.4644 85.7306 64.7985 74.4092 64.7985 60.4139C64.7985 46.4614 53.4644 35.1187 39.501 35.1187C25.5377 35.1187 14.2035 46.4614 14.2035 60.4139C14.2022 74.4097 25.5368 85.7302 39.501 85.7302" fill="#00544D"/>
</g>
<mask id="mask5_1_182" style="mask-type:luminance" maskUnits="userSpaceOnUse" x="-6" y="-4" width="91" height="109">
<path d="M84.7659 -3.84619H-5.76382V104.701H84.7659V-3.84619Z" fill="white"/>
</mask>
<g mask="url(#mask5_1_182)">
<path d="M56.0697 58.6026C56.048 56.1662 55.1214 54.829 53.4625 54.829C51.6305 54.829 50.6826 56.7696 50.6826 60.5867C50.6826 62.312 50.8336 64.2313 51.8461 65.2662C52.2986 65.719 52.902 65.9565 53.6351 65.9565C55.0572 65.9565 56.0697 64.7057 56.3066 62.657L58.8712 62.8294C58.548 66.3659 56.5222 68.4576 53.4625 68.4576C52.0617 68.4576 50.8549 67.9835 49.8853 67.0132C48.485 65.6113 47.6659 63.1962 47.6659 60.4145C47.6659 57.6538 48.485 55.2602 49.8853 53.8371C50.8766 52.8668 52.1047 52.3706 53.5701 52.3706C56.7161 52.3706 58.5048 54.3763 58.8712 58.3655L56.0742 58.6005L56.0697 58.6026Z" fill="white"/>
</g>
<mask id="mask6_1_182" style="mask-type:luminance" maskUnits="userSpaceOnUse" x="-6" y="-4" width="91" height="109">
<path d="M84.7659 -3.84619H-5.76382V104.701H84.7659V-3.84619Z" fill="white"/>
</mask>
<g mask="url(#mask6_1_182)">
<path d="M38.8093 56.8164V59.2096H42.2169V61.1925H38.8093V65.3121H36.7202V54.7651H43.0753V56.8164H38.8093Z" fill="white"/>
</g>
<mask id="mask7_1_182" style="mask-type:luminance" maskUnits="userSpaceOnUse" x="-6" y="-4" width="91" height="109">
<path d="M84.7659 -3.84619H-5.76382V104.701H84.7659V-3.84619Z" fill="white"/>
</mask>
<g mask="url(#mask7_1_182)">
<path d="M28.5316 58.6026C28.4886 56.1662 27.5837 54.829 25.9241 54.829C24.093 54.829 23.1447 56.7696 23.1447 60.5867C23.1447 62.312 23.2955 64.2313 24.3082 65.2662C24.7609 65.719 25.3641 65.9565 26.0968 65.9565C27.5188 65.9565 28.5316 64.7057 28.7688 62.657L31.3331 62.8294C30.9882 66.3659 28.9842 68.4576 25.9239 68.4576C24.5236 68.4576 23.3169 67.9835 22.3471 67.0132C20.9464 65.6113 20.1278 63.1962 20.1278 60.4145C20.1278 57.6538 20.9464 55.2602 22.3471 53.8371C23.3384 52.8668 24.5665 52.3706 26.0319 52.3706C29.1781 52.3706 30.9449 54.3763 31.333 58.3655L28.5317 58.6005L28.5316 58.6026Z" fill="white"/>
</g>
<mask id="mask8_1_182" style="mask-type:luminance" maskUnits="userSpaceOnUse" x="-6" y="-4" width="91" height="109">
<path d="M84.7659 -3.84619H-5.76382V104.701H84.7659V-3.84619Z" fill="white"/>
</mask>
<g mask="url(#mask8_1_182)">
<path d="M71.5195 71.3291V70.5094C71.6922 70.4665 71.8427 70.3801 71.9937 70.2294C72.2306 70.0136 72.2956 69.7119 72.3815 69.4098L72.7698 68.0083L71.5196 67.6632V66.8218L73.6096 67.3827L72.9849 69.7549C72.8557 70.2294 72.7264 70.6175 72.3386 70.9626C72.1037 71.1592 71.8219 71.2874 71.5187 71.3344M71.5187 64.5182V63.8283L74.1046 64.0007L74.0617 64.6693L71.5166 64.5197L71.5187 64.5182ZM71.5187 60.8515V60.0323L74.3415 60.2047L74.2768 61.0243L71.5182 60.8534L71.5187 60.8515ZM71.5187 55.5695V54.7503L73.8031 54.4481L73.9107 55.2682L71.5193 55.5716L71.5187 55.5695ZM71.5187 52.7874V51.8384C72.0358 51.4286 72.359 50.8681 72.1221 50.1134C71.9928 49.7467 71.7772 49.488 71.5187 49.3156V48.4313C72.0791 48.7118 72.5316 49.2078 72.7901 49.9625C73.1787 51.1976 72.5766 52.189 71.5176 52.7916M71.5176 48.4369V49.3212C70.8282 48.8899 69.8153 48.9976 69.061 49.2563C68.9534 49.278 68.8241 49.3212 68.7165 49.3642V48.4369C68.7595 48.4152 68.8024 48.3939 68.8458 48.3724C69.7767 48.0903 70.746 48.069 71.519 48.4365M71.519 51.8425V52.7915L71.1528 52.1016C71.2852 52.0332 71.392 51.9478 71.5201 51.8409M71.5201 54.7512V55.5704L68.7189 55.9156V55.0963L71.5202 54.7502L71.5201 54.7512ZM71.5201 60.0332V60.8525L70.2056 60.7665C69.8178 60.7448 69.279 60.7231 68.9342 60.9389C68.8483 60.9819 68.7836 61.047 68.719 61.1112V60.1409C69.1927 59.9252 69.7102 59.9252 70.249 59.9686L71.5216 60.0327L71.5201 60.0332ZM71.5201 63.8324V64.5223L69.9688 64.4363C69.5163 64.3929 69.1068 64.3499 68.7189 64.1775V63.3366L68.7406 63.3579C69.0851 63.703 69.5809 63.7247 70.0117 63.746L71.5191 63.8358L71.5201 63.8324ZM71.5201 66.8281V67.6695L70.7227 67.4537L70.3999 68.6615C70.2919 69.0496 70.1627 69.4807 70.3349 69.8689C70.4425 70.171 70.7444 70.408 71.0459 70.4727C71.2185 70.5374 71.3691 70.5374 71.5201 70.5157V71.3354C71.3261 71.3571 71.1322 71.3354 70.9383 71.292C70.2273 71.0979 69.7961 70.5375 69.8178 69.8042C69.5809 70.257 69.1714 70.5809 68.719 70.6885V69.9123C68.8912 69.8689 69.0634 69.8042 69.2144 69.6965C69.5376 69.4595 69.6456 69.0709 69.7315 68.7045L70.1193 67.2814L68.719 66.9146V66.0523L71.5203 66.8216L71.5201 66.8281ZM68.7188 53.5461V52.8133C68.8264 52.8133 68.9556 52.8133 69.0849 52.7915L69.1495 53.5461C69.0001 53.5632 68.8506 53.5632 68.7182 53.5418M68.7182 48.4307V49.358C68.3087 49.5304 67.8992 49.7461 67.5977 50.0049C67.1452 50.4147 66.8433 51.0399 67.059 51.6867C67.3175 52.5064 67.9856 52.7868 68.7182 52.8085V53.5413C67.6407 53.5201 66.7787 53.0455 66.4126 51.9024C65.8489 50.1546 67.2282 48.9281 68.7142 48.4324M68.7142 55.0948V55.914L68.1755 55.9787L68.5633 58.9764L67.8306 59.0628L67.3781 55.2675L68.7147 55.0966L68.7142 55.0948ZM68.7142 60.1418V61.1121C68.4557 61.3925 68.3694 61.8236 68.3477 62.1688C68.3264 62.5786 68.4127 63.0314 68.7142 63.3336V64.1745C68.5416 64.0881 68.391 63.9804 68.2401 63.8511C67.7442 63.3765 67.5937 62.7297 67.6366 62.0611C67.6796 61.4359 67.8522 60.7674 68.3693 60.3576C68.4761 60.2721 68.5828 60.208 68.7109 60.1439M68.7109 66.0499V66.9121L67.806 66.6533L67.3965 68.1845C67.3102 68.5292 67.2239 68.9395 67.3748 69.2625C67.5041 69.5864 67.7844 69.8017 68.1075 69.8881C68.3014 69.9315 68.517 69.9528 68.711 69.9098V70.6861C68.4524 70.7508 68.1505 70.7291 67.8702 70.6644C67.3319 70.5133 66.9224 70.2115 66.7068 69.6941C66.4482 69.1119 66.5558 68.6157 66.7284 68.0552L67.3531 65.683L68.7111 66.0548L68.7109 66.0499ZM63.1938 81.3618V78.9901C63.2588 78.9684 63.3235 78.9684 63.4094 78.9684C64.0774 78.9684 64.6162 79.5076 64.6162 80.1762C64.6162 80.8448 64.0774 81.384 63.4094 81.384C63.3282 81.3797 63.2642 81.3797 63.1958 81.3583M63.1958 44.8925V43.5988L64.8339 46.0356L64.2304 46.4454L63.1928 44.8941L63.1958 44.8925ZM63.1958 43.5122V42.5417L67.4628 39.6521L67.937 40.3206L63.1969 43.5129L63.1958 43.5122ZM63.1958 36.9784V35.8571L63.7134 35.3611L64.2734 35.9435L63.1973 36.9785L63.1958 36.9784ZM63.1958 35.8571V36.9784L60.0715 39.9115L62.1404 42.0893L61.6233 42.5853L59.8564 40.7092V39.0054L63.2 35.8588L63.1958 35.8571ZM63.1958 42.5417L62.097 43.2753L63.1958 44.8925V43.5988L63.1529 43.5343L63.1958 43.5126V42.5425V42.5417ZM63.1958 78.9865V81.3583C62.6358 81.2507 62.2046 80.7548 62.2046 80.1726C62.2046 79.5658 62.6359 79.0914 63.1953 78.9846M59.8559 35.2752V32.2991L59.9418 32.213L60.6958 32.7737L59.8546 35.2754L59.8559 35.2752ZM59.8559 32.2991V35.2752L59.3818 36.6765V34.2186L59.7479 33.1405L59.3818 33.4209V32.6227L59.8559 32.2991ZM59.8559 39.0038V40.7076L59.3818 40.1899V39.4568L59.8559 39.0038ZM59.3818 32.6227V33.4209L58.4119 34.0891V33.3129L59.3813 32.6223L59.3818 32.6227ZM59.3818 34.2186V36.6765L58.4983 39.2429L58.412 39.1567V36.9571L58.4553 36.8277L58.412 36.806V36.0298L58.6709 36.2239L59.3798 34.2174L59.3818 34.2186ZM59.3818 39.4568V40.1899L58.9941 39.8019L59.3827 39.4558L59.3818 39.4568ZM58.4126 33.3128V34.089L57.0769 35.0378L58.4126 36.0298V36.8061L56.5381 35.4044L55.2666 36.3103V35.5344L58.4138 33.3133L58.4126 33.3128ZM58.4126 36.9572V39.1568L57.8308 38.747L58.4116 36.9564L58.4126 36.9572ZM55.2697 90.3076V89.1212L56.8643 90.8034L56.11 91.1486L55.273 90.3067L55.2697 90.3076ZM55.2697 84.0769V83.4947L55.5929 83.7318L55.2683 84.0779L55.2697 84.0769ZM55.2697 32.1709V31.0712C55.356 30.834 55.356 30.6184 55.2697 30.4027V29.3459C55.5282 29.5183 55.7655 29.6911 55.9377 29.9928C56.1963 30.4459 56.218 30.9633 56.0024 31.4378C55.8316 31.7823 55.5711 32.0412 55.2722 32.1707M55.2722 29.3455V30.4022C55.2509 30.3373 55.2075 30.2726 55.1646 30.2082C54.9919 29.9279 54.7121 29.7983 54.4319 29.669L53.1175 29.0223L52.557 30.1652V28.3106L52.665 28.0733L54.8631 29.1515C55.0126 29.216 55.1407 29.281 55.2731 29.3455M55.2731 31.0707V32.1704C54.9928 32.2997 54.6696 32.3214 54.3252 32.2567V32.2782C54.9716 32.7742 55.1872 33.5937 54.8206 34.3269C54.5838 34.8227 54.1959 35.1676 53.6571 35.297C53.2476 35.3834 52.9028 35.3189 52.5579 35.1895V34.4561C52.8164 34.5423 53.0967 34.6071 53.3557 34.5423C53.7001 34.4778 53.9587 34.262 54.1096 33.9388C54.2606 33.5937 54.2819 33.1623 54.1096 32.8389C53.9374 32.4723 53.5708 32.2997 53.2476 32.1274L52.5579 31.8037V31.1137L53.3123 31.4803C53.6784 31.6527 54.0879 31.847 54.4974 31.7606C54.8206 31.7176 55.1009 31.4588 55.2301 31.1784C55.243 31.1566 55.243 31.1134 55.2643 31.0703M55.2643 35.5344V36.3108L54.9398 36.5689L54.3797 36.1593L55.2637 35.5341L55.2643 35.5344ZM55.2643 83.4959V84.0781L54.1221 85.3939L53.7989 85.1348L55.0275 83.3018L55.2623 83.4984L55.2643 83.4959ZM55.2643 89.1241V90.3089L54.7043 89.7263L52.5491 90.7618V90.0715L54.273 89.2523L52.5491 87.4193V86.2762L55.265 89.1267L55.2643 89.1241ZM52.5484 92.8549V90.8491L52.8286 92.7255L52.5468 92.8537L52.5484 92.8549ZM52.5484 28.3121V30.1668L52.1823 30.9215L52.5484 31.1154V31.8054L51.902 31.482L50.8678 33.6383L52.2898 34.3286C52.3762 34.3718 52.4625 34.4148 52.5484 34.4578V35.1912C52.3762 35.1478 52.2039 35.0616 52.0313 34.9755L49.8336 33.9187L52.5452 28.3123L52.5484 28.3121ZM52.5484 86.278V87.421L52.0313 86.8818L52.4842 90.1162L52.5484 90.0732V90.7635H52.5271L52.5484 90.8491V92.8549L52.2252 93.0062L51.3203 86.2562L52.1606 85.8464L52.5492 86.2823L52.5484 86.278ZM41.1041 93.3933V92.7677L42.0958 92.7248L41.1041 90.0722V88.7785H41.449L43.8839 95.14L43.0653 95.1834L42.3109 93.3288L41.1067 93.3929L41.1041 93.3933ZM41.1041 30.4019V27.1888C41.2984 27.6416 41.3843 28.1591 41.406 28.6766C41.406 29.2377 41.3206 29.8415 41.1028 30.4022M43.7547 32.3646L44.7242 26.6719L42.8931 26.3482L43.0219 25.6582L47.4395 26.3915L47.332 27.103L45.5217 26.8013L44.5521 32.494L43.7536 32.3645L43.7547 32.3646ZM49.6562 93.8475L45.0669 89.168L46.4456 94.6454L45.7992 94.8177L44.2045 88.5421L45.1957 88.2838L49.4623 92.6611L48.1695 87.5287L48.8376 87.3563L50.4106 93.6529L49.659 93.8452L49.6562 93.8475ZM41.1028 27.1894V30.4022C40.7367 31.351 40.004 32.106 38.8405 32.1277H38.7544V31.4806H38.8188C40.1983 31.4377 40.5861 29.8418 40.5427 28.7421C40.5427 28.1597 40.4351 27.4912 40.1332 26.9736C39.8317 26.4777 39.3576 26.1327 38.7544 26.1327V25.4641C39.9415 25.4637 40.7144 26.2184 41.103 27.1889M41.103 88.7786V90.0724L40.9525 89.6629L40.1122 92.8326L41.103 92.7679V93.3935L39.9182 93.4582L39.4656 95.3558L38.776 95.3988L40.5217 88.8214L41.0982 88.7787L41.103 88.7786ZM38.7544 25.4624V26.131H38.7327C37.2889 26.174 36.9226 27.7267 36.9443 28.8912C36.9655 29.9909 37.4397 31.4574 38.7544 31.4789V32.126C36.9655 32.126 36.1253 30.5086 36.1038 28.9128C36.0606 27.2954 36.815 25.5056 38.6898 25.4625L38.7544 25.4624ZM35.3937 92.2487V91.5801C35.803 91.6452 36.1476 91.6452 36.5142 91.3648C36.751 91.1707 36.9018 90.8903 36.9452 90.5668C37.0096 90.2 36.9018 89.8766 36.622 89.6178C36.3632 89.3808 36.1047 89.3374 35.76 89.2944L35.3936 89.2514V88.5394L35.8461 88.6041C36.3849 88.6692 36.8803 88.8199 37.2684 89.1867C37.6562 89.5748 37.8286 90.157 37.7423 90.6962C37.6562 91.4507 37.0959 92.0763 36.3203 92.184L37.1821 95.3324L36.3418 95.2247L35.5444 92.2704L35.3928 92.249L35.3937 92.2487ZM35.3936 88.5394V89.2514L34.1653 89.0785L33.8421 91.3647L35.3505 91.58L35.3937 91.5801V92.2487L33.7558 92.0333L33.368 94.8148L32.5706 94.7067L33.4543 88.2811L35.3934 88.5375L35.3936 88.5394ZM32.0752 32.9923V32.3023C32.2691 32.324 32.4843 32.324 32.6999 32.2593C34.0577 31.9359 34.1007 30.2968 33.8421 29.2186C33.6912 28.6579 33.4543 28.0325 33.0448 27.6012C32.7862 27.2993 32.4416 27.1052 32.0752 27.0405V26.3508C33.4326 26.4372 34.3377 27.6664 34.6612 28.9816C35.0273 30.5128 34.6612 32.4751 32.8726 32.9065C32.5916 32.9714 32.3332 32.9928 32.0745 32.9928M32.0745 26.3509V27.041C31.8803 27.0195 31.6866 27.0195 31.4927 27.0624C30.0702 27.4076 30.0488 29.0252 30.329 30.1461C30.5444 31.0519 31.1262 32.1304 32.0745 32.3027V32.9928C30.7169 32.9066 29.8117 31.6775 29.4885 30.3402C29.1224 28.766 29.4885 26.8684 31.2986 26.4156C31.5787 26.351 31.8375 26.3295 32.0745 26.3509ZM29.0362 91.757V91.0884L29.9626 91.4119L30.0058 88.1554L29.0362 89.4496V88.3928L29.9195 87.2068L30.8029 87.5085L30.7382 94.3226L29.9411 94.0426L29.9194 92.0586L29.0363 91.7551L29.0362 91.757ZM29.0362 88.3938V89.4505L28.0664 90.7659L29.0362 91.0893V91.7579L27.6569 91.2834L26.752 92.5558V91.4775L29.0362 88.392L29.0362 88.3938ZM26.752 89.0861C27.0106 88.9137 27.2262 88.655 27.3767 88.3745C27.6355 87.9 27.6999 87.2532 27.5062 86.7356C27.3336 86.3688 27.0752 86.0888 26.752 85.873V86.908C26.8596 87.2101 26.8382 87.5119 26.752 87.7923V89.0853L26.752 89.0861ZM26.752 35.022V33.6204L27.2691 34.7849L26.752 35.022ZM26.752 31.6579V30.9465L28.1311 30.3211L28.3897 30.925L26.752 31.6579ZM26.752 28.6822V27.9275L27.4845 27.5826L27.7862 28.2294L26.752 28.6822ZM26.752 27.9275V28.6822L25.222 29.3722V28.5959L26.752 27.9275ZM26.752 30.9465V31.6579L26.0193 31.9818L26.752 33.6204V35.022L26.5364 35.1304L25.222 32.2405V30.2565L25.7393 31.3996L26.752 30.9465ZM26.752 85.8741V86.9091C26.7304 86.9091 26.7304 86.8878 26.7304 86.8878C26.5796 86.5644 26.3642 86.4133 26.0625 86.2622L25.222 85.8094V85.053L26.3208 85.6135C26.472 85.6989 26.6013 85.7844 26.752 85.8741ZM26.7521 87.793V89.0867C26.5796 89.1948 26.4072 89.2811 26.2348 89.3241C25.8901 89.4318 25.5453 89.4101 25.222 89.3241V88.6122C25.4374 88.6773 25.6745 88.6986 25.9116 88.6339C26.2348 88.5262 26.4935 88.2892 26.6443 88.0087C26.6874 87.9403 26.7087 87.8549 26.7519 87.7907M26.7519 91.4788V92.5572L26.5148 92.8806L25.8683 92.6626L26.7519 91.4788ZM25.2218 28.5942V29.3704L24.8986 29.5213L25.2218 30.2545V32.2385L23.8644 29.2195L25.2218 28.5942ZM25.2218 85.0514V85.806L24.8123 85.5906L23.6488 87.79L24.8557 88.4369C24.985 88.5015 25.1141 88.5662 25.2219 88.6092V89.3212C25.0279 89.2565 24.8123 89.1701 24.6186 89.0624L23.3257 88.3938L22.0976 90.7226L21.3863 90.3344L24.4031 84.5985L25.223 85.0473L25.2218 85.0514ZM18.111 41.7266V39.6996C18.3266 39.9799 18.4561 40.3248 18.4342 40.6916C18.4342 41.1019 18.3048 41.4267 18.1109 41.7258M18.1109 36.8105L19.447 40.1744L19.9641 39.7433L19.2102 37.932L21.063 36.401L22.7655 37.4358L23.4119 36.8966L18.1107 33.5542V34.4815L20.5243 36.0342L18.9944 37.3066L18.1108 35.1069V36.811L18.1109 36.8105ZM18.1107 33.5542V34.4815L17.7877 34.2656L18.1108 35.1069L18.1109 36.8105L17.6799 35.7536V33.2736L18.1107 33.5542ZM18.1109 39.7002V41.7272C18.0033 41.8781 17.8738 42.0291 17.7448 42.2017L17.6799 42.2879V39.2687C17.7231 39.2904 17.7448 39.3336 17.7877 39.3551C17.8958 39.462 18.0247 39.5731 18.111 39.7013M17.6801 33.2748V35.7548L17.2923 34.7628V33.5552L17.6372 33.2533L17.6801 33.2748ZM17.6801 39.2696V42.2888L17.2923 42.7631V41.6635C17.4864 41.4264 17.6372 41.1243 17.6372 40.8226C17.6586 40.4989 17.5294 40.2187 17.2923 40.0029V39.0543C17.4217 39.1227 17.5506 39.1868 17.68 39.2723M17.2919 33.5577V34.7653L16.9255 33.8597L17.2919 33.5577ZM17.2919 39.0586V40.0072C17.2704 39.9857 17.2489 39.9642 17.2274 39.9642C16.9255 39.7054 16.5162 39.5976 16.1499 39.6837C15.762 39.7701 15.5033 40.0718 15.2664 40.3738L14.8786 40.8481V39.8561C15.051 39.619 15.2018 39.3603 15.2018 39.0801C15.2233 38.7781 15.094 38.4762 14.8786 38.2819V37.3118C15.0079 37.3548 15.1372 37.441 15.245 37.5272C15.8052 38.0017 15.956 38.6917 15.6328 39.3388L15.6543 39.3603C16.15 38.9501 16.7534 38.8654 17.2919 39.0612M17.2919 41.668V42.7677L16.2146 44.0833L14.8787 43.0049V41.9484L16.1931 43.0264L17.1843 41.7974C17.2279 41.7546 17.2493 41.7119 17.292 41.6692M14.8788 81.3914V78.9759H14.9435C15.6113 78.9759 16.1501 79.5151 16.1501 80.1836C16.1501 80.8522 15.6113 81.3914 14.9435 81.3914L14.8788 81.3914ZM14.8788 46.0495V45.1007L15.4174 45.4239L14.9864 46.1357L14.8788 46.0459L14.8788 46.0495ZM11.5817 66.6435C11.8833 66.924 12.0988 67.2908 12.2284 67.7649C12.5084 68.7356 12.1852 69.5331 11.5817 70.1374V68.6709C11.6464 68.4552 11.6464 68.2181 11.5817 67.9807V66.6454V66.6435ZM14.8788 37.314V38.2841C14.8571 38.2626 14.8357 38.2411 14.8142 38.2196C14.5125 37.9824 14.211 37.9177 13.8444 38.0469C13.5429 38.1547 13.349 38.392 13.1547 38.6295L12.2285 39.7723L13.8659 41.1093L14.6633 40.1387C14.7281 40.0526 14.8142 39.9664 14.8789 39.8583V40.8503L14.3401 41.5191L14.8789 41.9504V43.0069L11.5819 40.3113V39.4972L12.7456 38.0956C13.0688 37.7075 13.3274 37.4053 13.823 37.2544C14.1889 37.1468 14.5553 37.1681 14.8786 37.3194M14.8786 45.1062V46.055L11.5816 44.0707V43.1221L14.8787 45.105L14.8786 45.1062ZM14.8786 78.9822V81.3977C14.232 81.3543 13.7366 80.8368 13.7366 80.19C13.7366 79.5431 14.2319 79.0062 14.8784 78.9848M11.5814 54.6387V53.8407L11.8182 53.776L11.689 54.617L11.5814 54.6387ZM11.5814 52.4592V51.6182L12.4432 51.877L12.228 52.6532L11.5815 52.4567L11.5814 52.4592ZM11.5814 48.5147V47.6306L13.7363 48.5797L13.3912 49.3127L11.5815 48.5135L11.5814 48.5147ZM9.55598 66.0233C10.3533 66.0016 11.0862 66.1739 11.5817 66.6485V67.9856V67.9643C11.3231 66.9936 10.4828 66.7565 9.59915 66.7778L9.55602 66.0257L9.55598 66.0233ZM11.5814 70.1429C11.0859 70.66 10.3747 71.0269 9.66351 71.2209C9.10325 71.372 8.52151 71.4367 7.98273 71.372V70.512C8.47833 70.5554 9.03864 70.4694 9.49129 70.34C9.98672 70.2107 10.5686 69.9732 10.9565 69.6281C11.258 69.3693 11.4951 69.0459 11.5814 68.6795V70.1458L11.5814 70.1429ZM11.5814 39.5019V40.3214L11.1935 39.9979L11.5814 39.5019ZM11.5814 43.1216V44.0702L9.44811 42.7765L9.85762 42.0866L11.5815 43.1208L11.5814 43.1216ZM11.5814 47.6301V48.5142L8.13368 46.9832L7.98272 47.285V45.5382L8.54319 44.2662L9.18958 44.5462L8.45689 46.2285L11.5819 47.6259L11.5814 47.6301ZM11.5814 51.6173V52.4582L7.98273 51.3799V50.5389L11.5813 51.6159L11.5814 51.6173ZM11.5814 53.8395V54.6375L8.73711 55.392L8.47835 57.1824L11.258 57.5705L11.1504 58.3897L7.98272 57.9152V56.0393L8.04736 55.5648C8.11221 55.2196 8.13368 54.9179 7.98272 54.6158V53.4727C8.34928 53.7319 8.60763 54.12 8.67246 54.5945L11.5818 53.8295L11.5814 53.8395ZM7.98281 65.0105V64.1482H8.15525C9.25429 64.0831 10.741 63.5444 10.6551 62.1642C10.5687 60.8488 9.08186 60.482 7.98282 60.525V59.6844C9.51285 59.6627 11.1936 60.3743 11.3015 62.1209C11.4307 63.9755 9.81459 64.9028 8.19842 64.9892C8.11259 65.0148 8.04811 65.0148 7.9832 65.0148M7.9832 71.3781C6.97046 71.2487 6.10851 70.6661 5.78551 69.4805C5.44063 68.2297 6.08701 67.259 7.16459 66.6985L7.50926 67.3884C6.77635 67.8199 6.19483 68.4021 6.45335 69.3294C6.66874 70.1273 7.29365 70.4291 7.98317 70.515V71.3813L7.9832 71.3781ZM7.9832 45.5405V47.2872L7.37998 48.6673L6.73359 48.3873L7.9835 45.5412L7.9832 45.5405ZM7.9832 50.5447V51.3857L6.00069 50.8039L6.23811 50.0262L7.98337 50.5432L7.9832 50.5447ZM7.9832 53.4764V54.6194C7.96193 54.5548 7.91877 54.4901 7.85393 54.4254C7.66001 54.1666 7.37997 54.0156 7.0568 53.9726C6.69045 53.9079 6.36728 54.0155 6.1085 54.296C5.87142 54.5335 5.82847 54.8139 5.78552 55.1586L5.54844 56.7545L7.83244 57.078L7.98319 56.043V57.9189L4.72941 57.4443L5.09576 55.0509C5.1604 54.5334 5.31115 54.0372 5.6992 53.6491C6.08702 53.261 6.64728 53.0886 7.18606 53.1746C7.48754 53.2173 7.76767 53.3241 7.98332 53.4737M7.98332 59.6874V60.5279H7.85405C7.27231 60.5713 6.60444 60.7007 6.10862 61.0241C5.61318 61.3475 5.28979 61.865 5.33297 62.4689C5.3976 63.849 6.84152 64.1942 7.98331 64.1512V65.0134C6.43201 65.0351 4.77266 64.3235 4.66488 62.5336C4.6432 62.5336 4.6432 62.5119 4.6432 62.4906V62.2536C4.70804 60.6143 6.23789 59.7734 7.74644 59.6874L7.98332 59.6874Z" fill="white"/>
</g>
<mask id="mask9_1_182" style="mask-type:luminance" maskUnits="userSpaceOnUse" x="-6" y="-4" width="91" height="109">
<path d="M84.7659 -3.84619H-5.76382V104.701H84.7659V-3.84619Z" fill="white"/>
</mask>
<g mask="url(#mask9_1_182)">
<path d="M34.2209 38.0315C29.9543 40.5115 25.7094 47.714 25.2785 48.4473C24.8258 49.1806 21.0118 45.6007 21.5072 44.8676C23.3604 42.0642 27.1098 39.304 30.3206 38.1394C33.2082 37.1048 35.2551 37.2986 34.2209 38.0315Z" fill="white"/>
</g>
<mask id="mask10_1_182" style="mask-type:luminance" maskUnits="userSpaceOnUse" x="-6" y="-4" width="91" height="109">
<path d="M84.7659 -3.84619H-5.76382V104.701H84.7659V-3.84619Z" fill="white"/>
</mask>
<g mask="url(#mask10_1_182)">
<path d="M36.2249 39.4316C33.7038 42.9036 31.8073 50.2355 31.5916 51.0551C31.3763 51.8961 26.2905 49.9984 26.6142 49.0928C26.9591 48.1655 28.1228 45.9659 29.9758 43.486C31.0746 41.9982 33.3159 39.4318 35.0826 38.5693C35.9875 38.1167 37.1097 38.2462 36.2249 39.4304" fill="white"/>
</g>
<mask id="mask11_1_182" style="mask-type:luminance" maskUnits="userSpaceOnUse" x="-6" y="-4" width="91" height="109">
<path d="M84.7659 -3.84619H-5.76382V104.701H84.7659V-3.84619Z" fill="white"/>
</mask>
<g mask="url(#mask11_1_182)">
<path d="M39.0057 51.9402C39.0057 52.8888 32.7566 52.3067 32.9073 51.2283C33.0583 50.1718 34.7176 42.6458 37.4112 39.3249C37.5836 39.1091 37.6697 39.0014 37.9066 38.8289C38.2946 38.5269 38.8981 38.8072 38.8764 39.3249C39.0045 43.7266 39.0045 50.9702 39.0045 51.9402" fill="white"/>
</g>
<mask id="mask12_1_182" style="mask-type:luminance" maskUnits="userSpaceOnUse" x="-6" y="-4" width="91" height="109">
<path d="M84.7659 -3.84619H-5.76382V104.701H84.7659V-3.84619Z" fill="white"/>
</mask>
<g mask="url(#mask12_1_182)">
<path d="M34.2209 82.6281C29.9543 80.1266 25.7094 72.9456 25.2785 72.2127C24.8258 71.4795 21.0118 75.0377 21.5072 75.7705C23.3604 78.5741 27.1098 81.3346 30.3206 82.4987C33.2082 83.5543 35.2553 83.3363 34.2211 82.6269" fill="white"/>
</g>
<mask id="mask13_1_182" style="mask-type:luminance" maskUnits="userSpaceOnUse" x="-6" y="-4" width="91" height="109">
<path d="M84.7659 -3.84619H-5.76382V104.701H84.7659V-3.84619Z" fill="white"/>
</mask>
<g mask="url(#mask13_1_182)">
<path d="M36.2249 81.2264C33.7038 77.7541 31.8073 70.4007 31.5916 69.5597C31.3763 68.7405 26.2905 70.6593 26.6142 71.565C26.9591 72.471 28.1228 74.6921 29.9758 77.1718C31.0746 78.66 33.3159 81.2262 35.0826 82.0889C35.9875 82.5419 37.1097 82.4094 36.2249 81.2257" fill="white"/>
</g>
<mask id="mask14_1_182" style="mask-type:luminance" maskUnits="userSpaceOnUse" x="-6" y="-4" width="91" height="109">
<path d="M84.7659 -3.84619H-5.76382V104.701H84.7659V-3.84619Z" fill="white"/>
</mask>
<g mask="url(#mask14_1_182)">
<path d="M39.0057 68.6964C39.0057 67.7261 32.7566 68.33 32.9073 69.3867C33.0583 70.4647 34.7176 78.0123 37.4112 81.3333C37.5836 81.5273 37.6697 81.6567 37.9066 81.8291C38.2946 82.1095 38.9196 81.9154 38.8764 81.5703C39.0045 77.1729 39.0045 69.6472 39.0045 68.6985" fill="white"/>
</g>
<mask id="mask15_1_182" style="mask-type:luminance" maskUnits="userSpaceOnUse" x="-6" y="-4" width="91" height="109">
<path d="M84.7659 -3.84619H-5.76382V104.701H84.7659V-3.84619Z" fill="white"/>
</mask>
<g mask="url(#mask15_1_182)">
<path d="M44.8432 82.6281C49.1097 80.1266 53.3551 72.9456 53.7855 72.2127C54.238 71.4795 58.052 75.0377 57.5779 75.7705C55.7247 78.5741 51.9535 81.3346 48.7645 82.4987C45.8564 83.5543 43.811 83.3363 44.8444 82.6269" fill="white"/>
</g>
<mask id="mask16_1_182" style="mask-type:luminance" maskUnits="userSpaceOnUse" x="-6" y="-4" width="91" height="109">
<path d="M84.7659 -3.84619H-5.76382V104.701H84.7659V-3.84619Z" fill="white"/>
</mask>
<g mask="url(#mask16_1_182)">
<path d="M42.8404 81.2264C45.383 77.7541 47.258 70.4007 47.4736 69.5597C47.6892 68.7405 52.7743 70.6593 52.4511 71.565C52.1279 72.471 50.9427 74.6921 49.0899 77.1718C47.9906 78.66 45.7496 81.2262 43.9826 82.0889C43.0731 82.5419 41.9543 82.4094 42.8382 81.2257" fill="white"/>
</g>
<mask id="mask17_1_182" style="mask-type:luminance" maskUnits="userSpaceOnUse" x="-6" y="-4" width="91" height="109">
<path d="M84.7659 -3.84619H-5.76382V104.701H84.7659V-3.84619Z" fill="white"/>
</mask>
<g mask="url(#mask17_1_182)">
<path d="M40.0604 68.6964C40.0604 67.7261 46.3096 68.33 46.1584 69.3867C46.0074 70.4647 44.3481 78.0123 41.6545 81.3333C41.504 81.5273 41.396 81.6567 41.1804 81.8291C40.7713 82.1095 40.1678 81.9154 40.1895 81.5703C40.0614 77.1729 40.0614 69.6472 40.0614 68.6985" fill="white"/>
</g>
<mask id="mask18_1_182" style="mask-type:luminance" maskUnits="userSpaceOnUse" x="-6" y="-4" width="91" height="109">
<path d="M84.7659 -3.84619H-5.76382V104.701H84.7659V-3.84619Z" fill="white"/>
</mask>
<g mask="url(#mask18_1_182)">
<path d="M44.7364 38.0315C48.9816 40.5115 53.2483 47.714 53.6788 48.4473C54.1312 49.1806 57.9453 45.6007 57.4499 44.8676C55.5967 42.0642 51.8473 39.304 48.6365 38.1394C45.7498 37.1048 43.7043 37.2988 44.7377 38.0317" fill="white"/>
</g>
<mask id="mask19_1_182" style="mask-type:luminance" maskUnits="userSpaceOnUse" x="-6" y="-4" width="91" height="109">
<path d="M84.7659 -3.84619H-5.76382V104.701H84.7659V-3.84619Z" fill="white"/>
</mask>
<g mask="url(#mask19_1_182)">
<path d="M42.7336 39.4316C45.2545 42.9036 47.1508 50.2355 47.3664 51.0551C47.582 51.8961 52.6676 49.9984 52.3443 49.0928C51.9994 48.1655 50.836 45.9659 48.9827 43.486C47.8839 41.9982 45.6428 39.4318 43.8759 38.5693C42.9663 38.1167 41.8475 38.2462 42.7315 39.4304" fill="white"/>
</g>
<mask id="mask20_1_182" style="mask-type:luminance" maskUnits="userSpaceOnUse" x="-6" y="-4" width="91" height="109">
<path d="M84.7659 -3.84619H-5.76382V104.701H84.7659V-3.84619Z" fill="white"/>
</mask>
<g mask="url(#mask20_1_182)">
<path d="M39.9537 51.9402C39.9537 52.8888 46.2028 52.3067 46.0516 51.2283C45.9011 50.1718 44.2418 42.6458 41.5482 39.3249C41.376 39.1091 41.2897 39.0014 41.0524 38.8289C40.6646 38.5269 40.0616 38.8072 40.0828 39.3249C39.9547 43.7266 39.9547 50.9702 39.9547 51.9402" fill="white"/>
</g>
<mask id="mask21_1_182" style="mask-type:luminance" maskUnits="userSpaceOnUse" x="-6" y="-4" width="91" height="109">
<path d="M84.7659 -3.84619H-5.76382V104.701H84.7659V-3.84619Z" fill="white"/>
</mask>
<g mask="url(#mask21_1_182)">
<path d="M39.501 0.293457L41.5892 6.2238L47.8622 6.37465L42.8617 10.1917L44.651 16.2084L39.501 12.6503L34.3502 16.2084L36.1382 10.1917L31.139 6.37465L37.4086 6.2238L39.501 0.293457Z" fill="#FAD716"/>
</g>
</g>
<defs>
<clipPath id="clip0_1_182">
<rect width="79" height="100" fill="white"/>
</clipPath>
</defs>
</svg>
