<svg width="81" height="100" viewBox="0 0 81 100" fill="none" xmlns="http://www.w3.org/2000/svg">
<g clip-path="url(#clip0_1_177)">
<path d="M-0.101505 35.1618V-0.121582H81V35.1618C81.1218 68.259 66.3631 88.8055 40.4391 99.9189C14.5353 88.8055 -0.223309 68.259 -0.101505 35.1618Z" fill="#000200"/>
<path fill-rule="evenodd" clip-rule="evenodd" d="M57.1466 85.587H23.7519C28.5226 89.7368 34.1053 93.2185 40.4391 96.093C46.7729 93.2185 52.3759 89.7368 57.1466 85.587ZM12.9519 72.9554H67.9466C70.1797 69.3117 72.0271 65.344 73.4684 61.0323H7.43008C8.87143 65.344 10.7188 69.3117 12.9519 72.9554ZM4.50677 48.4007H76.3917C76.9195 44.6355 77.2038 40.6612 77.2444 36.4776H3.65414C3.69474 40.6612 3.97895 44.6355 4.50677 48.4007ZM41.4947 23.8461H77.2241V11.923H41.4947V23.8461ZM3.65414 33.3805H38.3075V3.72461H3.65414V33.3805Z" fill="#C52613"/>
<path d="M21.6406 26.8624C18.6665 28.1802 14.172 27.5871 11.5308 25.4049C9.46015 23.8462 7.32857 21.0527 6.57745 17.4494C8.16293 17.0284 8.34767 15.33 9.03384 14.0689C9.60226 13.0567 10.7594 11.498 11.6526 10.7895C13.5325 9.14176 15.4956 7.91706 20.5647 8.1782C20.9504 8.96767 20.8286 11.5183 20.5444 12.5911C20.4835 12.7936 20.4429 12.9758 20.3008 13.1175C18.9609 10.2531 16.4132 10.2754 13.9263 11.579C8.97293 14.4535 9.62256 24.7369 17.5196 25.5061C19.306 25.6883 20.1586 25.3442 21.6406 24.8786V26.8624ZM25.2541 6.39682C28.218 7.75309 29.7609 10.081 31.1414 13.3806C30.8571 13.6033 30.6135 13.5223 30.309 13.9272C29.7203 14.6762 29.3549 16.9029 27.8932 18.5831C27.2172 18.9656 25.4774 18.8867 25.4774 18.8867C26.6529 17.5891 27.1441 15.8219 27.1218 14.2308C27.0812 10.3239 24.7263 7.91504 20.9301 7.38872C18.3316 7.04459 17.2556 7.59115 15.1647 8.05674L13.9466 4.81787C14.8805 5.06079 15.5707 5.3037 16.6263 5.34419C19.5496 5.48589 22.209 5.00006 25.2541 6.39682ZM17.9459 24.9393C17.1541 24.9596 15.8549 24.6357 15.3068 24.332V11.5992C16.0376 11.2754 17.1338 11.3158 17.9053 11.5183L17.9459 19.3118C22.6353 19.6154 23.8534 20.5466 26.4722 23.8462C28.1368 25.9312 29.7 29.5142 32.9887 28.1377C33.3744 27.9758 33.7805 27.6721 34.0647 27.5709C33.8211 29.5345 32.0955 31.2146 30.6135 31.8624C29.7 32.2673 29.2534 31.498 28.4211 30.5466C24.8887 26.4575 24.1782 21.2754 17.9662 21.4778L17.9459 24.9393ZM22.2293 23.2592C23.3235 24.1802 24.7811 26.0669 24.8684 27.1053C24.8481 28.5426 24.8684 30.0203 25.7617 31.1539L26.6346 32.0041C24.6857 32.3482 22.1887 32.3887 21.0316 31.0932C22.9195 29.6701 22.2293 23.2592 22.2293 23.2592ZM35.1 8.82597C35.7111 10.6944 35.3599 14.1438 33.0699 14.7976C33.212 13.6033 32.398 12.4899 31.4438 12.2673C30.9404 11.6924 30.5506 10.9575 30.1669 10.1822C32.5726 10.2227 34.1134 10.3401 35.1 8.82597ZM25.315 10.1822C25.6805 10.6276 26.1677 11.5992 26.2895 12.2673L24.8887 12.2875L24.8684 19.4737C25.8835 19.5142 30.0654 19.5952 30.979 19.3118C31.5677 19.1377 31.9209 18.8057 32.2782 18.4616C33.009 19.7571 32.5421 23.1984 30.2887 24.1296C30.4105 20.0405 26.0256 22.2673 25.0917 21.3968C24.2086 20.3665 23.2971 19.915 22.2496 19.4535C22.1278 17.7733 22.2293 15.7693 22.2293 14.0689C22.2293 11.2349 22.0466 12.1256 21.2143 9.61544C22.6617 10.0648 23.9772 10.2248 25.315 10.1822ZM15.3068 27.8138C15.4286 27.8138 16.9511 28.0567 17.9053 28.077C18.0981 29.7126 17.8241 30.2187 19.6917 31.9636C18.5346 32.4899 15.2865 32.3685 14.109 31.0932C15.0693 30.2673 15.3636 29.2349 15.3068 27.8138Z" fill="white"/>
</g>
<defs>
<clipPath id="clip0_1_177">
<rect width="81" height="100" fill="white"/>
</clipPath>
</defs>
</svg>
