<svg width="86" height="100" viewBox="0 0 86 100" fill="none" xmlns="http://www.w3.org/2000/svg">
<g clip-path="url(#clip0_1_89)">
<path d="M43.0106 0C32.1621 14.1511 17.8396 19.4393 0.0642325 15.9067C-1.08695 51.0389 13.2358 79.0625 43.0104 100C72.7643 79.0625 87.0861 51.0389 85.9358 15.9067C68.1602 19.4393 53.8379 14.1511 43.0106 0Z" fill="#92062A"/>
<path d="M43.0106 1.45605C32.247 14.9433 18.2229 20.1243 0.938122 16.9987C0.128173 51.1027 14.1309 78.4202 43.0106 98.9083C71.8692 78.4202 85.8721 51.1027 85.0621 16.9987C67.7762 20.1243 53.7523 14.9433 43.0106 1.45605Z" fill="white"/>
<path d="M43.0106 7.51465C32.7587 18.4764 20.0559 23.1433 4.88086 21.5589C5.05136 31.2356 6.50053 40.3129 9.24998 48.812H76.7496C79.4992 40.3129 80.9696 31.2356 81.1399 21.5589C65.9648 23.1433 53.2412 18.4764 43.0106 7.51465Z" fill="#92062A"/>
<path d="M49.7884 51.1026C43.8626 49.9254 37.3835 49.9254 30.3931 51.1026H10.0176C15.9212 67.7369 26.9186 82.0389 43.0106 94.0058C59.0812 82.0386 70.0781 67.7369 75.9824 51.1026H49.7884Z" fill="#006039"/>
<path d="M52.7932 29.5225C52.7293 29.5012 52.6863 29.4802 52.6446 29.4582C52.1752 30.2295 51.7916 31.0851 51.4932 32.0272C51.7702 32.07 52.0475 32.1342 52.3245 32.2198C52.4315 32.7125 52.3669 33.2903 52.1119 33.9111C49.4471 40.7618 50.5555 44.3161 55.4792 44.5726C51.8765 39.1351 53.3469 34.789 59.8688 31.5564L58.7823 29.1802C56.6723 30.2505 54.6478 30.3575 52.7932 29.5225Z" fill="white"/>
<path d="M36.0625 29.0946C32.0977 30.4863 29.4552 30.6148 28.1124 29.4804L24.5527 33.2052C26.535 32.6059 27.6434 33.9331 27.8777 37.1871C29.2631 36.4595 30.7127 35.8598 32.2261 35.3892C32.2042 34.7469 32.1621 34.1258 32.1195 33.5046C36.4035 31.3213 41.561 30.593 47.6356 31.3639C47.5716 30.8503 47.614 30.3578 47.7423 29.8654C47.8273 29.4372 47.9766 29.0519 48.1892 28.6449C43.0957 27.8958 39.046 28.0458 36.0625 29.0946Z" fill="white"/>
<path d="M35.4442 20.5523L32.0555 23.9566C34.5705 23.6136 35.9769 25.1552 36.3395 28.5808C37.6394 28.1738 39.1525 27.9168 40.8578 27.8097C40.7724 26.6969 40.6873 25.6263 40.5809 24.6414C43.8843 24.4487 46.7402 23.6566 49.1915 22.2867C50.0649 23.3996 51.3438 24.1919 52.9851 24.7057C47.3371 28.1955 46.4848 31.6846 50.4706 35.217C51.0033 29.5867 53.7735 26.0113 58.8039 24.534C55.3298 22.6715 52.3029 20.7448 49.7032 18.7539C41.7103 21.5586 36.9573 22.158 35.4442 20.5523Z" fill="white"/>
<path d="M50.1934 35.5169C49.8519 35.2169 49.5537 34.9176 49.2767 34.6176C46.5491 34.2536 43.9487 34.1253 41.4763 34.2112C41.4763 35.2169 41.4763 36.2452 41.4763 37.3151C44.2469 37.2298 47.273 37.4438 50.4916 37.9361C50.6619 37.0158 50.9396 36.0094 51.323 34.9176C51.1736 34.8748 51.0459 34.8533 50.8966 34.8533C50.8966 34.9816 50.875 35.1316 50.8542 35.2597C50.8542 35.3669 50.7903 35.4526 50.7265 35.5167C50.6621 35.5809 50.5772 35.6239 50.4709 35.6239C50.3637 35.6241 50.2783 35.5812 50.1934 35.5169Z" fill="white"/>
<path d="M41.0072 41.8114L41.05 39.6062C41.0923 36.6731 41.0923 33.9756 41.0283 31.5352C39.4298 31.6634 37.8955 31.8987 36.4673 32.2845C36.5741 37.2299 36.6166 42.2394 36.5527 47.2919C38.087 47.0989 39.558 46.9919 40.9006 46.9281L40.9432 45.0012L44.0551 44.5729L44.6091 45.0656C44.3321 45.8575 44.0978 46.6068 43.9271 47.3131C40.6662 47.1849 36.7867 47.5274 32.2259 48.3625C32.3534 45.4082 32.4173 42.4324 32.3534 39.3494C30.7549 39.9057 29.3057 40.6338 27.9419 41.5331C28.2827 52.7728 27.0894 61.9785 24.3613 69.1504L25.8745 70.7773C28.7946 70.178 31.011 71.1626 32.5029 73.7528C33.0568 73.0257 33.5048 72.2332 33.9095 71.3556C32.8228 69.6427 31.331 68.5293 29.4341 68.08C30.6914 62.8561 31.5655 57.3968 32.0128 51.6808C36.4036 50.9525 39.9839 50.6106 42.7759 50.6536C43.0746 50.674 43.33 50.674 43.6071 50.6957C43.7992 53.5862 45.4614 55.6414 48.5521 56.8185V55.6199C47.0174 54.0572 46.2074 52.4943 46.1225 50.91C46.7401 50.9957 47.316 51.1025 47.8487 51.2308C49.0848 51.5308 49.958 52.1509 50.4274 53.0719C50.5768 51.1889 50.5768 49.2828 50.4274 47.3561C49.5114 47.5061 48.3814 47.5491 46.9957 47.5061C47.507 46.5855 48.232 45.6864 49.1913 44.7444L47.6354 41.7043C46.2288 41.8973 44.7154 42.0894 43.1167 42.2394C41.9662 42.4324 41.263 42.2607 41.0072 41.8114Z" fill="white"/>
<path d="M40.815 51.0815C39.5152 51.1241 38.0658 51.2526 36.4889 51.4241C36.4243 54.6779 36.3396 57.932 36.2114 61.2075C36.9574 61.2722 37.746 61.315 38.5345 61.3358C39.2379 61.3358 39.9411 61.3358 40.6233 61.3358L40.815 51.0815Z" fill="white"/>
<path d="M36.1691 37.8723C36.1477 36.866 36.1265 35.8384 36.1265 34.832C27.5583 36.4377 20.8236 41.2121 15.9001 49.1329C15.3246 50.1179 14.7061 50.9315 14.1095 51.574C14.9194 51.8734 15.5587 52.4512 16.0488 53.308C18.5002 57.7394 21.7398 60.9941 25.7891 63.0493C26.0878 61.8075 26.3436 60.5226 26.5567 59.174C23.5944 57.6324 21.5051 55.3634 20.3546 52.4089C19.8643 51.1892 19.9922 49.9684 20.6954 48.748C24.0843 42.8392 29.2422 39.2209 36.1691 37.8723Z" fill="white"/>
<path d="M31.288 60.8651C31.0751 62.2138 30.8407 63.5409 30.542 64.8475C32.8655 65.4461 35.3591 65.7461 38.066 65.7461C42.8401 65.7676 47.1878 64.9543 51.0882 63.3482C54.8188 61.807 58.4629 61.2504 62.0011 61.6572C62.1505 59.4303 62.9602 57.8034 64.4738 56.8183C65.9865 55.8339 67.1804 56.1122 68.0537 57.6319L69.972 57.5898C68.885 56.3901 69.4607 55.0846 71.6563 53.6502C68.1604 53.6502 66.0076 53.1577 65.1344 52.1084C57.696 58.7667 48.8082 61.9783 38.5352 61.7215C35.8278 61.6572 33.4406 61.3787 31.288 60.8651Z" fill="white"/>
<path d="M40.6235 66.0674C39.771 66.1099 38.9185 66.1531 38.066 66.1531C37.2988 66.1531 36.5526 66.1316 35.8278 66.0889C35.274 69.7287 34.08 72.6185 32.2261 74.7162L33.5473 76.8148C35.551 74.3529 38.3002 74.0529 41.7315 75.9587C45.1634 77.8422 48.7226 78.249 52.3887 77.1357C45.035 76.1081 41.1137 72.4042 40.6235 66.0674Z" fill="white"/>
<path d="M35.721 75.5728C35.1458 75.8295 34.6127 76.2363 34.1442 76.7718C35.6364 78.613 37.0216 79.4476 38.3214 79.2334C37.1921 78.099 36.3395 76.8793 35.721 75.5728Z" fill="white"/>
<path d="M63.9618 38.7709L62.7255 36.9514C60.0828 37.1225 57.5039 36.8014 55.0105 35.9238C54.6695 36.3944 54.4348 36.8657 54.2645 37.3793C54.0938 37.8503 54.0089 38.3426 53.9868 38.8566C56.2676 39.82 57.6532 41.3186 58.1431 43.3953C58.7402 46.0073 61.1914 47.1846 65.4747 46.9066C66.6262 46.6708 66.8602 45.986 66.2212 44.8514C65.5815 43.7163 64.7292 43.8236 63.6848 45.1297C61.6602 44.8727 60.6369 43.8663 60.6155 42.1322C60.5729 40.3985 61.6809 39.2636 63.9618 38.7709Z" fill="white"/>
</g>
<defs>
<clipPath id="clip0_1_89">
<rect width="86" height="100" fill="white"/>
</clipPath>
</defs>
</svg>
