<svg width="84" height="100" viewBox="0 0 84 100" fill="none" xmlns="http://www.w3.org/2000/svg">
<g clip-path="url(#clip0_1_145)">
<path d="M84 58.0571C84 81.2214 65.196 99.9998 42 99.9998C18.804 99.9998 0 81.2214 0 58.0571C0 34.8927 18.804 16.1143 42 16.1143C65.196 16.1143 84 34.8927 84 58.0571Z" fill="black"/>
<path d="M82.0667 58.057C82.0667 80.1539 64.1271 98.069 42 98.069C19.873 98.069 1.93341 80.1539 1.93341 58.057C1.93341 35.9554 19.873 18.0449 42 18.0449C64.1271 18.0449 82.0667 35.9554 82.0667 58.057Z" fill="white"/>
<path d="M30.6042 94.0593C34.2014 95.1918 38.0263 95.809 42 95.809C45.969 95.809 49.7986 95.1918 53.3912 94.0593C50.1751 91.5809 46.2432 90.1143 42 90.1143C37.7521 90.1143 33.8203 91.5809 30.6042 94.0593Z" fill="#0D80BF"/>
<path d="M53.3912 22.0503C49.7986 20.9178 45.969 20.3052 42 20.3052C38.0263 20.3052 34.2014 20.9178 30.6042 22.0503C33.8203 24.5333 37.7521 26 42 26C46.2432 26 50.1751 24.5333 53.3912 22.0503Z" fill="#0D80BF"/>
<path d="M56.5004 43.2471C62.0449 41.2143 67.0364 38.0629 71.1867 34.0621C67.0318 29.0264 61.5941 25.0953 55.3757 22.7422C53.2843 24.5383 50.8768 25.9214 48.2556 26.7847C52.4942 29.8526 55.6266 35.9372 56.5004 43.2471Z" fill="#0D80BF"/>
<path d="M35.7398 26.7847C33.1232 25.9214 30.7111 24.5383 28.6244 22.7422C22.4059 25.0953 16.9683 29.0264 12.8134 34.0621C16.959 38.0629 21.9551 41.2143 27.495 43.2471C28.3734 35.9372 31.5058 29.8526 35.7398 26.7847Z" fill="#0D80BF"/>
<path d="M27.495 72.8628C21.9551 74.8957 16.959 78.0517 12.8134 82.0524C16.9683 87.0835 22.4059 91.0193 28.6244 93.3677C30.7111 91.5716 33.1232 90.1885 35.7398 89.3252C31.5058 86.2574 28.3734 80.1727 27.495 72.8628Z" fill="#0D80BF"/>
<path d="M56.5004 72.8628C55.6266 80.1727 52.4942 86.2574 48.2556 89.3252C50.8768 90.1885 53.2843 91.5716 55.3757 93.3677C61.5941 91.0193 67.0318 87.0835 71.1867 82.0524C67.0364 78.0517 62.0449 74.8957 56.5004 72.8628Z" fill="#0D80BF"/>
<path d="M72.2975 80.6416C77.0101 74.3434 79.8033 66.523 79.8033 58.0574C79.8033 49.5871 77.0101 41.7713 72.2975 35.4731C64.457 42.9734 53.7677 47.6053 42 47.6053C30.2278 47.6053 19.543 42.9734 11.7026 35.4731C6.98996 41.7713 4.19678 49.5871 4.19678 58.0574C4.19678 66.523 6.98996 74.3434 11.7026 80.6416C19.543 73.1414 30.2278 68.5048 42 68.5048C53.7677 68.5048 64.457 73.1414 72.2975 80.6416Z" fill="black"/>
<path d="M48.8226 38.6338C49.2362 38.4992 49.6127 38.0722 49.6127 37.3899C49.6127 36.9769 49.5012 36.638 49.2362 36.3735C48.9713 36.1089 48.6321 35.9976 48.1441 35.9976C47.1681 35.9976 46.8195 36.5545 46.5221 36.9397L47.2006 37.3899C47.4981 37.014 47.8094 36.9026 47.9954 36.9026C48.33 36.9026 48.6321 37.1811 48.6321 37.5384C48.6321 37.803 48.5391 37.9794 48.3718 38.1418C48.2324 38.2718 48.0279 38.3692 47.7304 38.3692H47.4655V39.1582H47.842C48.1441 39.1582 48.3765 39.2279 48.5205 39.4228C48.6367 39.5806 48.7483 39.7662 48.7483 40.1375C48.7483 40.843 48.33 40.9637 48.0279 40.9637C47.8327 40.9637 47.6933 40.9451 47.5771 40.8523C47.433 40.7363 47.3122 40.5506 47.2378 40.365L46.3734 40.7038C46.4849 41.0797 46.6754 41.3814 46.9775 41.567C47.2378 41.7573 47.6143 41.8687 48.0697 41.8687C48.5577 41.8687 48.9713 41.7202 49.2734 41.4185C49.5755 41.0797 49.7289 40.6666 49.7289 40.1004C49.7289 39.6873 49.5895 38.8751 48.8226 38.6338Z" fill="black"/>
<path d="M41.4702 38.4806C41.4702 39.5713 41.2843 40.4392 40.945 41.0054C40.6801 41.4556 40.3036 41.7527 39.811 41.8687C39.6902 41.8966 39.5275 41.9058 39.3974 41.9058C39.0906 41.9058 38.8304 41.8269 38.4957 41.6042L38.835 40.8523C39.0116 40.9358 39.244 41.0054 39.4346 41.0054C39.6669 41.0054 39.8854 40.8941 40.0759 40.6666C40.2665 40.4392 40.378 40.0633 40.4524 39.5713C40.2432 39.743 40.1131 39.9101 39.6251 39.9101C39.2115 39.9101 38.8722 39.7616 38.6073 39.4228C38.3424 39.084 38.2308 38.6338 38.2308 38.0675C38.2308 37.3899 38.3796 36.9026 38.6445 36.5638C38.9094 36.225 39.323 36.0347 39.811 35.9976H39.8528C40.4152 35.9976 40.8288 36.225 41.0937 36.638C41.3586 37.0511 41.4702 37.6545 41.4702 38.4806ZM39.811 39.0468C40.0527 39.0468 40.1875 38.9215 40.2665 38.7452C40.3501 38.5595 40.378 38.295 40.378 37.9562C40.378 37.6173 40.3501 37.3342 40.2665 37.1625C40.1642 36.9676 40.0016 36.9026 39.811 36.9026C39.6576 36.9026 39.481 36.9908 39.3974 37.1625C39.2951 37.3853 39.2487 37.687 39.2487 37.9562C39.2487 38.4992 39.4067 39.0468 39.811 39.0468Z" fill="black"/>
<path d="M34.3455 36.5637V37.3156L35.3633 37.0139V40.8522H34.2711V41.7201H37.3617V40.8522H36.3439V36.1089L34.3455 36.5637Z" fill="black"/>
<path d="M48.4462 75.4478H47.275L45.8807 81.0915H46.8242L47.1635 79.6991H48.4834L48.7855 81.0915H49.8405L48.4462 75.4478ZM47.354 78.7987L47.6933 77.1418L47.8141 76.5013H47.8281L47.9443 77.1047L48.2928 78.7987H47.354Z" fill="black"/>
<path d="M34.1595 75.522V81.0914H35.2145V78.6827H36.646V77.7823H35.2145V76.427H37.2874V75.522H34.1595Z" fill="black"/>
<path d="M37.2223 47.8511C37.2223 47.8511 39.244 47.8882 39.3323 47.8928C39.3741 47.9671 40.9915 50.9978 41.103 51.2067C40.8939 51.2067 39.9086 51.2067 39.9086 51.2067L38.2866 49.1274L36.5716 51.2345C36.5716 51.2345 35.6328 51.2113 35.433 51.2067C35.5399 51.0071 37.2223 47.8511 37.2223 47.8511Z" fill="white"/>
<path d="M65.7444 64.7034C64.5174 63.4039 63.9179 61.682 63.9179 59.4495C63.9179 57.2217 64.5314 55.4395 65.7444 54.1539C66.9202 52.8729 68.5655 52.2231 70.629 52.2231C72.6925 52.2231 74.3377 52.8729 75.5089 54.1539C76.7405 55.4581 77.3401 57.1893 77.3401 59.4495C77.3401 61.682 76.7405 63.4039 75.5089 64.7034C74.347 65.9751 72.7064 66.6388 70.629 66.6759C68.5841 66.6759 66.9435 66.0122 65.7444 64.7034ZM67.7057 55.8247C67.0085 56.7159 66.6693 57.8994 66.6693 59.4495C66.6693 60.9719 67.0085 62.1461 67.7057 63.0326C68.3935 63.9144 69.3509 64.3414 70.629 64.3414C71.9071 64.3414 72.8645 63.9144 73.5523 63.0326C74.2494 62.1461 74.5841 60.9719 74.5841 59.4495C74.5841 57.8994 74.2494 56.7159 73.5523 55.8247C72.8505 54.9708 71.8978 54.5577 70.629 54.5577C69.402 54.5577 68.4446 54.9708 67.7057 55.8247Z" fill="white"/>
<path d="M62.7885 52.5991C62.7885 52.7476 62.7885 66.1144 62.7885 66.2629C62.6491 66.2629 60.2138 66.2629 60.0743 66.2629C60.0743 66.1144 60.0743 52.7476 60.0743 52.5991C60.2138 52.5991 62.6491 52.5991 62.7885 52.5991Z" fill="white"/>
<path d="M58.3037 52.5991C58.3037 52.7476 58.3037 66.1144 58.3037 66.2629C58.1642 66.2629 55.9148 66.2629 55.7754 66.2629C55.7754 66.1144 55.7754 55.1936 55.7754 55.1936L55.6267 55.175C55.6267 55.175 52.8428 66.1515 52.8149 66.2629C52.7034 66.2629 50.1379 66.2629 50.031 66.2629C50.0031 66.1515 47.1821 55.175 47.1821 55.175L47.0333 55.1936C47.0333 55.1936 47.0333 66.1144 47.0333 66.2629C46.8939 66.2629 44.6445 66.2629 44.5051 66.2629C44.5051 66.1144 44.5051 52.7476 44.5051 52.5991C44.6491 52.5991 48.4834 52.5991 48.5949 52.5991C48.6228 52.7105 51.402 63.325 51.402 63.325C51.402 63.325 54.1859 52.7105 54.2138 52.5991C54.3254 52.5991 58.1596 52.5991 58.3037 52.5991Z" fill="white"/>
<path d="M43.1851 52.5991C43.1851 52.7337 43.1851 54.683 43.1851 54.8176C43.0364 54.8176 35.9489 54.8176 35.9489 54.8176V57.9412C35.9489 57.9412 42.4369 57.9412 42.5856 57.9412C42.5856 58.0804 42.5856 60.0251 42.5856 60.1643C42.4369 60.1643 35.9489 60.1643 35.9489 60.1643V63.8541C35.9489 63.8541 43.4175 63.8541 43.5616 63.8541C43.5616 63.9887 43.5616 66.1237 43.5616 66.2629C43.4175 66.2629 33.4578 66.2629 33.3091 66.2629C33.3091 66.1144 33.3091 52.7476 33.3091 52.5991C33.4578 52.5991 43.0411 52.5991 43.1851 52.5991Z" fill="white"/>
<path d="M27.5414 52.5991C29.0519 52.5991 30.1627 52.9101 30.8459 53.5181C31.5476 54.1447 31.9148 55.1518 31.9148 56.4374C31.9148 57.2311 31.7382 57.9458 31.3989 58.5074C31.0829 59.0319 30.5763 59.4124 29.8931 59.6399L29.67 59.7141L29.8931 59.7837C30.4741 59.9648 30.9156 60.2943 31.1712 60.7306C31.4129 61.1065 31.5383 61.7238 31.5755 62.7263L31.6499 64.4203C31.6917 65.2743 31.859 65.7477 32.1797 65.9566C32.1797 65.9984 32.1797 66.1701 32.1797 66.2629C32.0403 66.2629 29.2703 66.2629 29.1774 66.2629C29.0751 66.0448 29.024 65.873 28.9822 65.6967C28.9311 65.4739 28.8753 65.1908 28.8613 64.606L28.8242 63.1347C28.787 62.2297 28.6243 61.6634 28.3129 61.3525C28.0387 61.0415 27.4996 60.8791 26.7142 60.8791H23.5864C23.5864 60.8791 23.5864 66.119 23.5864 66.2629C23.4469 66.2629 21.0116 66.2629 20.8722 66.2629C20.8722 66.1144 20.8722 52.7476 20.8722 52.5991C21.0163 52.5991 27.5414 52.5991 27.5414 52.5991ZM23.6607 54.8176H23.5864V58.6234H27.0163C27.7599 58.6234 28.3362 58.461 28.6847 58.1547C29.0287 57.8855 29.2006 57.3982 29.2006 56.702C29.2006 56.0986 29.0333 55.6391 28.6894 55.291C28.3362 54.9801 27.8249 54.8176 27.165 54.8176H23.6607Z" fill="white"/>
<path d="M8.44928 64.6709C7.26416 63.3714 6.65997 61.6031 6.65997 59.4124C6.65997 57.2125 7.24557 55.5091 8.44928 54.191C9.61117 52.8822 11.2006 52.2231 13.1805 52.2231C14.928 52.2231 16.3037 52.6223 17.3958 53.4484C18.4741 54.3024 19.1108 55.4117 19.306 56.7391C19.134 56.7391 16.6336 56.7391 16.5453 56.7391C16.3641 56.1125 15.9737 55.5277 15.4532 55.1332C14.9047 54.7248 14.1797 54.5159 13.2967 54.5159C12.093 54.5159 11.1728 54.9475 10.4849 55.8247V55.8294C9.82031 56.7205 9.48569 57.9133 9.48569 59.3753C9.48569 60.8976 9.82496 62.0718 10.5221 62.9583C11.2611 63.8541 12.2417 64.3043 13.4454 64.3043C14.3935 64.3043 15.1511 64.0258 15.7599 63.4549C16.3641 62.963 16.7545 62.2157 16.9125 61.2318L16.9264 61.1436C16.9264 61.1436 13.9288 61.1436 13.7847 61.1436C13.7847 61.0044 13.7847 59.0597 13.7847 58.9204C13.9288 58.9204 19.2177 58.9204 19.3618 58.9204C19.3618 59.069 19.3618 66.1143 19.3618 66.2629C19.227 66.2629 17.6886 66.2629 17.5771 66.2629C17.5539 66.1515 17.2146 64.5363 17.2146 64.5363L17.117 64.6756C16.629 65.3485 16.0434 65.8591 15.3741 66.1932C14.77 66.5135 14.0078 66.6759 13.1061 66.6759C11.2006 66.6759 9.63441 66.003 8.44928 64.6709Z" fill="white"/>
<path d="M42 0L43.6731 5.14248H49.0829L44.7049 8.31708L46.378 13.4549L42 10.2803L37.622 13.4549L39.2951 8.31708L34.9171 5.14248H40.3269L42 0Z" fill="#ABAAAA"/>
<path d="M20.2959 3.73633L21.969 8.87417H27.3788L23.0008 12.0534L24.6739 17.1913L20.2959 14.0167L15.9179 17.1913L17.591 12.0534L13.213 8.87417H18.6274L20.2959 3.73633Z" fill="#93754F"/>
<path d="M63.6995 3.73633L65.3726 8.87417H70.7823L66.409 12.0534L68.0775 17.1913L63.6995 14.0167L59.3261 17.1913L60.9946 12.0534L56.6212 8.87417H62.031L63.6995 3.73633Z" fill="#F8C300"/>
<path d="M40.3036 78.1211C40.6429 78.2325 40.9078 78.381 41.0937 78.6455C41.2843 78.9101 41.3586 79.2118 41.3586 79.5877C41.3586 80.075 41.2146 80.4602 40.8706 80.7155C40.5453 80.9569 40.1224 81.0914 39.6855 81.0914H38.0775V75.522H39.7366C40.5453 75.522 41.1681 76.0139 41.1681 76.8772C41.1681 77.1789 41.0937 77.4434 40.945 77.6662C40.8009 77.8844 40.5685 78.0282 40.3036 78.1211ZM39.4717 76.3528H39.1324V77.7823H39.4717C39.9086 77.7823 40.1503 77.4481 40.1503 77.0304C40.1503 76.4873 39.9086 76.3528 39.4717 76.3528ZM40.3036 79.4763C40.3036 79.1189 40.1967 78.9147 40.0573 78.7848C39.9086 78.6502 39.6251 78.6084 39.4345 78.6084H39.1324V80.2653H39.6855C39.9551 80.2653 40.3036 80.0982 40.3036 79.4763Z" fill="black"/>
<path d="M42.3765 75.522V81.0914H43.4315V78.9843H43.9195C44.3749 78.9472 44.7514 78.7987 45.0535 78.5341C45.3927 78.1953 45.5415 77.7823 45.5415 77.216C45.5415 76.6498 45.3927 76.2367 45.0906 75.935C44.8257 75.6705 44.4121 75.522 43.9195 75.522H42.3765ZM44.4353 77.216C44.4353 77.8612 44.1425 78.1953 43.6964 78.1953H43.4315V76.3528H43.6964C44.0821 76.3528 44.4353 76.5245 44.4353 77.216Z" fill="black"/>
<path d="M42.7529 36.7866C42.4508 37.2785 42.3021 38.0304 42.3021 38.9726C42.3021 39.9101 42.4508 40.6249 42.7529 41.1168C43.055 41.6042 43.4687 41.8687 44.0357 41.8687C44.6027 41.8687 45.0163 41.6042 45.3184 41.1168C45.6158 40.6249 45.7692 39.9101 45.7692 38.9726C45.7692 38.0304 45.6158 37.2785 45.3184 36.7866C45.0163 36.2621 44.6027 35.9976 44.0357 35.9976C43.4687 35.9976 43.055 36.2621 42.7529 36.7866ZM44.7142 38.9726C44.7142 39.6688 44.677 40.2304 44.5608 40.532C44.4493 40.8198 44.2959 40.9637 44.0357 40.9637C43.7708 40.9637 43.6174 40.8198 43.5058 40.532C43.3943 40.2304 43.3571 39.6688 43.3571 38.9726C43.3571 38.2439 43.3943 37.6638 43.5058 37.3528C43.6174 37.0511 43.7708 36.9026 44.0357 36.9026C44.3006 36.9026 44.4539 37.0511 44.5608 37.3528C44.677 37.6638 44.7142 38.2439 44.7142 38.9726Z" fill="black"/>
</g>
<defs>
<clipPath id="clip0_1_145">
<rect width="84" height="100" fill="white"/>
</clipPath>
</defs>
</svg>
