<svg width="85" height="100" viewBox="0 0 85 100" fill="none" xmlns="http://www.w3.org/2000/svg">
<g clip-path="url(#clip0_1_2)">
<path fill-rule="evenodd" clip-rule="evenodd" d="M42.502 14.7471C65.9748 14.7471 85.0039 33.8328 85.0039 57.3755C85.0039 80.9181 65.9748 100.004 42.502 100.004C19.0291 100.004 0 80.9181 0 57.3755C0 33.8328 19.0291 14.7471 42.502 14.7471Z" fill="white"/>
<path fill-rule="evenodd" clip-rule="evenodd" d="M42.502 17.0268C64.7203 17.0268 82.727 35.091 82.727 57.3716C82.727 79.6521 64.7164 97.7163 42.502 97.7163C20.2875 97.7163 2.27294 79.656 2.27294 57.3755C2.27294 35.095 20.2836 17.0268 42.502 17.0268ZM42.502 15.9619C65.3063 15.9619 83.7927 34.5034 83.7927 57.3755C83.7927 80.2476 65.3063 98.7891 42.502 98.7891C19.6976 98.7891 1.21118 80.2476 1.21118 57.3755C1.21118 34.5034 19.6976 15.9619 42.502 15.9619Z" fill="#006637"/>
<path fill-rule="evenodd" clip-rule="evenodd" d="M62.758 28.0508L63.2378 29.1631L62.4238 30.0545L63.6192 29.9401L64.2052 30.9971L64.4647 29.8139L65.6405 29.5772L64.6063 28.9619L64.7478 27.759L63.8473 28.5596L62.758 28.0548V28.0508ZM66.2697 31.9989L66.6 33.4543L65.4124 34.3497L66.8871 34.4838L67.3629 35.8997L67.9449 34.5271L69.4235 34.5074L68.3067 33.5253L68.7471 32.0975L67.477 32.8667L66.2658 32.0029L66.2697 31.9989ZM69.278 37.0553L69.2977 38.9801L67.5595 39.7768L69.3803 40.3527L69.5966 42.2656L70.7016 40.6958L72.5734 41.0784L71.433 39.5323L72.3729 37.856L70.5639 38.4713L69.2741 37.0514L69.278 37.0553ZM71.4291 43.5238L70.8471 45.9139L68.4444 46.3438L70.5168 47.6414L70.1786 50.0789L72.0425 48.4894L74.2369 49.5662L73.3127 47.2865L75.0037 45.5155L72.5695 45.697L71.4212 43.5238H71.4291ZM13.5669 43.5238L14.1489 45.9139L16.5517 46.3438L14.4793 47.6414L14.8175 50.0789L12.9535 48.4894L10.7592 49.5662L11.6833 47.2865L9.98841 45.5155L12.4226 45.697L13.5709 43.5238H13.5669ZM15.718 37.0553L15.6983 38.9801L17.4365 39.7768L15.6158 40.3527L15.3995 42.2656L14.2944 40.6958L12.4226 41.0784L13.563 39.5323L12.6232 37.856L14.4321 38.4713L15.7219 37.0514L15.718 37.0553ZM18.7224 31.9989L18.3921 33.4543L19.5797 34.3497L18.105 34.4838L17.6292 35.8997L17.0472 34.5271L15.5686 34.5074L16.6854 33.5253L16.2449 32.0975L17.5151 32.8667L18.7224 32.0029V31.9989ZM22.238 28.0508L21.7622 29.1631L22.5762 30.0545L21.3807 29.9401L20.7948 30.9971L20.5353 29.8139L19.3555 29.5772L20.3898 28.9619L20.2482 27.759L21.1487 28.5596L22.238 28.0548V28.0508ZM67.5635 55.3878C67.882 54.6975 68.1651 53.9758 68.4365 53.2303C67.6893 53.1002 67.0916 52.9937 66.5096 52.8911C65.1018 52.6663 64.1737 53.1278 63.7175 53.7509C63.2614 54.3702 62.9743 54.9539 62.64 55.8019C62.3097 56.6459 62.3294 58.196 64.7046 59.257C66.7731 60.2154 68.3264 61.1699 71.61 58.3616C73.5329 56.8077 74.2683 57.3322 74.9722 57.4782C75.9789 57.8174 76.0851 58.2276 75.8885 59.2885C75.625 60.598 74.1503 59.9038 73.4386 59.6238C73.1672 60.669 72.8802 61.4657 72.424 62.5898C72.8526 62.7712 73.3874 63.0157 73.8711 63.2169C76.0576 64.0964 78.5272 63.6192 79.1013 60.9608C79.4434 59.1741 79.3412 58.3064 79.3412 57.9948C79.3097 56.3462 78.0985 54.879 76.0025 54.5003C73.9576 54.0901 72.5931 53.9758 69.7342 56.1332C68.2674 57.2257 68.0236 57.6359 66.6944 57.1074C65.9866 56.8392 65.3063 56.5986 65.7034 55.7664C66.0062 55.1274 66.3208 55.021 67.5753 55.3917M63.513 63.4338L69.9387 66.0764C69.4393 67.0782 69.1954 67.591 68.5073 68.6204L63.513 63.4338ZM60.0682 59.3043C59.5216 59.8801 58.9632 60.4757 58.3143 61.0397L72.2706 78.6109C73.1082 77.4592 73.9694 76.0788 74.6891 74.7969L70.8707 70.975C71.6926 69.638 72.0504 68.8728 72.7189 67.3109L77.0604 69.2081C77.548 67.9459 77.9255 66.7903 78.189 65.5716L60.0682 59.3043ZM58.6879 73.8464C60.2216 72.8485 61.1496 72.0597 59.2581 69.8352L57.1464 67.161C55.8566 65.3941 55.1055 66.3486 54.1381 66.7942L58.6879 73.8424V73.8464ZM61.9322 88.4516L50.7837 65.5952C52.2151 65.0706 53.4263 64.4711 54.6375 63.7533C56.1712 62.7633 57.4531 63.7651 58.739 64.9602L61.9951 68.0012C65.0821 70.8843 64.5237 73.0339 63.8394 73.7241L71.9442 79.0645C71.0673 80.2832 70.2022 81.3482 69.2269 82.3618L61.3187 75.9526L60.3985 76.5797L66.3012 85.2371C65.0192 86.3612 63.399 87.5444 61.9322 88.4555M47.8422 66.4866C48.6523 66.2933 49.1871 66.1474 49.95 65.895L60.3592 89.4021C58.9514 90.1752 57.2172 91.0311 55.4751 91.6858L47.8422 66.4866ZM47.0557 66.6483C45.4238 66.9402 44.4878 67.0625 42.3604 67.0782L41.8098 94.0247C45.9979 94.1351 50.2567 93.4488 53.8707 92.2419L52.6673 87.6864C50.7326 88.3096 48.8489 88.7711 46.9731 88.9407L45.9075 79.7389C47.8501 79.5299 48.9118 79.2933 50.2961 78.8436L49.3759 75.4162C48.0821 75.7869 46.8473 75.9881 45.4945 76.1419L44.7434 69.638C45.7541 69.6104 46.8158 69.4329 47.7478 69.1923L47.0597 66.6483H47.0557ZM21.7465 87.4853L33.7404 65.3744C34.4443 65.6662 35.2466 65.9265 35.9583 66.1395L34.6449 77.5263C35.0028 76.702 39.0964 66.8574 39.0964 66.8179C39.7217 66.9165 40.9093 67.027 41.4323 67.0506L39.82 93.9261C38.4476 93.8866 36.328 93.5711 34.8297 93.2122L37.1184 79.6482L31.3613 88.913L31.2158 77.6485C30.74 79.0763 25.9817 90.0016 25.9817 90.0411C24.279 89.1655 22.8869 88.2938 21.7465 87.4853ZM14.1096 80.3345L29.5917 63.1972C29.5327 63.1814 30.9916 64.0846 31.6916 64.4435L19.737 80.3464C20.9875 81.5927 21.4633 81.9832 22.9852 83.1349L20.8184 86.8266C18.5454 85.1858 15.5607 82.2711 14.1096 80.3385M22.3245 63.7454L15.4073 66.6404C15.9264 67.662 16.4258 68.4587 17.1219 69.3816L22.3245 63.7454ZM25.3368 59.6317C25.8952 60.2193 26.5873 60.878 27.2715 61.4578L13.6181 79.7232C12.7451 78.5794 11.8406 77.2265 11.1013 75.9683L14.9276 71.827C14.086 70.553 13.3389 69.4723 12.6468 67.8473L8.22274 69.8036C7.73118 68.5139 7.31434 67.0861 7.10985 66.1001L25.3368 59.6317ZM19.1353 55.1629L14.2315 56.5C14.2905 56.9299 14.3692 57.2533 14.495 57.6872C14.8489 58.8626 15.3995 58.8468 16.7798 58.3419L18.573 57.6675C19.2926 57.3441 20.0083 57.0206 19.6308 56.2003C19.387 55.7506 19.1314 55.1393 19.1314 55.1629M20.6808 52.4099C20.9914 53.2264 21.9155 55.0091 22.297 55.6007C23.229 57.0325 22.6116 58.6614 20.8734 59.5528L17.3146 61.375C15.6158 62.223 12.399 61.8443 11.7895 59.5607C11.5181 58.7837 11.3923 58.1644 11.2075 57.3283L6.11494 58.7521C5.99304 56.9063 5.97731 56.5828 6.08742 55.0091L20.6808 52.4099ZM42.5019 21.8349C54.3072 21.8349 63.8748 31.431 63.8748 43.2713C63.8748 55.1117 54.3072 64.7078 42.5019 64.7078C30.6967 64.7078 21.1291 55.1117 21.1291 43.2713C21.1291 31.431 30.6967 21.8349 42.5019 21.8349ZM42.5019 18.1865C64.0793 18.1865 81.5709 35.7301 81.5709 57.3717C81.5709 79.0132 64.0793 96.5568 42.5019 96.5568C20.9246 96.5568 3.42908 79.0172 3.42908 57.3756C3.42908 35.7341 20.9206 18.1865 42.5019 18.1865Z" fill="#006637"/>
<path fill-rule="evenodd" clip-rule="evenodd" d="M58.3183 31.8923C49.0456 29.7111 43.3868 24.6745 42.502 23.7791C41.6368 24.6666 35.7893 29.7782 26.7092 31.8923C26.5284 51.8023 41.2082 62.0335 42.502 62.9051C43.7918 62.0414 58.4481 52.1691 58.3183 31.8923ZM42.734 23.4557C47.8108 28.027 53.6112 30.3856 58.4402 31.5294C54.8774 26.6899 49.1754 23.5346 42.734 23.4557ZM26.5519 31.5333C31.2355 30.4329 36.9808 28.0112 42.2582 23.4557C35.8168 23.5346 30.1148 26.6939 26.5519 31.5333ZM42.1599 63.1812C32.1164 56.1646 26.0211 43.7484 26.2963 31.8883C24.0234 35.1225 22.6903 39.0627 22.6903 43.3185C22.6903 54.1767 31.3771 62.9998 42.1599 63.1812ZM58.7116 31.908C58.9986 43.8391 53.1235 56.062 42.8441 63.1812C53.623 62.9958 62.3019 54.1728 62.3019 43.3185C62.3019 39.0706 60.9727 35.1383 58.7076 31.908M42.4981 22.9312C53.6977 22.9312 62.7777 32.0382 62.7777 43.2711C62.7777 54.5041 53.6977 63.6111 42.4981 63.6111C31.2984 63.6111 22.2184 54.5041 22.2184 43.2711C22.2184 32.0382 31.2984 22.9312 42.4981 22.9312Z" fill="#006637"/>
<path d="M36.7488 39.532V34.1009C36.7488 33.04 35.5298 32.756 34.5388 32.8151C35.514 31.2572 36.9612 30.7366 38.3454 31.9159C39.2734 30.6064 41.5543 28.8 43.6896 28.8671C53.2769 29.0169 53.6898 42.8175 46.9103 45.2866C40.347 47.6807 39.3324 39.2283 43.434 39.5163C46.1081 39.749 45.2665 44.2256 42.8638 42.8175C43.7997 45.5626 49.8085 42.7544 46.7451 37.3509C48.7743 35.2724 47.0125 31.1349 44.0239 31.0916C41.4914 31.0561 40.4296 33.4383 40.4217 35.0554V50.339C40.3903 53.0447 40.7717 55.1548 42.9975 56.3341C40.7481 57.3912 38.4083 55.8569 37.9954 53.5417C37.028 53.9519 36.0095 53.6679 35.1955 52.3545C36.0292 52.244 36.7567 51.6958 36.7488 50.4021V41.6816L35.6281 40.6246L36.7488 39.5281V39.532ZM35.2899 32.4641C36.0528 32.4365 37.1421 32.9887 37.1421 34.1009V39.6819L36.1786 40.6325L37.1421 41.5238V50.5402C37.1421 51.1712 37.0005 52.1612 35.8837 52.5911C36.6977 53.5772 37.4606 53.3997 38.3415 52.9106C38.5263 55.6281 40.6852 56.5234 42.1166 56.2158C40.2487 54.8393 40.0481 52.6582 40.0324 50.765V35.0239C40.0324 33.4738 41.0981 30.7248 44.0357 30.7326C47.3193 30.7405 49.136 35.0594 47.2091 37.3588C50.5635 43.5827 42.557 46.7064 42.3132 42.0129C44.9205 44.2492 45.53 40.0724 43.375 39.8949C39.8633 39.607 40.9369 47.2823 46.926 44.8764C53.1353 42.3284 52.8443 29.4784 43.6896 29.2378C41.5818 29.1826 39.651 30.8589 38.3926 32.4957C37.4134 31.5254 36.3988 31.2769 35.2859 32.4681M44.0278 59.7931H40.9841C41.7509 60.4242 42.3014 60.8068 42.5138 60.9409C42.7065 60.8068 43.257 60.4242 44.0317 59.7931M45.5339 58.4837H39.4897C39.9616 58.9254 40.3981 59.308 40.7874 59.6354H44.2244C44.6137 59.312 45.0581 58.9254 45.5339 58.4837ZM46.8513 57.1939H38.1842C38.5774 57.6041 38.9589 57.9788 39.3167 58.322H45.7069C46.0727 57.9788 46.4541 57.6041 46.8513 57.1939ZM46.8434 42.5888H47.3075C47.276 42.644 47.2445 42.6992 47.2091 42.7505H46.7097C46.7569 42.6992 46.8002 42.644 46.8434 42.5888ZM44.7199 42.5888H46.8395C46.7962 42.644 46.753 42.6992 46.7058 42.7505H44.5783C44.6294 42.6992 44.6766 42.6479 44.7199 42.5888ZM44.5547 42.5888H44.7238C44.6806 42.6479 44.6334 42.7031 44.5823 42.7505H44.2795C44.3856 42.715 44.48 42.6598 44.5587 42.5888M47.4883 41.2517H47.7754C47.7675 41.3069 47.7558 41.3621 47.744 41.4134H47.4451C47.4608 41.3621 47.4765 41.3069 47.4883 41.2517ZM45.0895 41.2517H47.4923C47.4805 41.3069 47.4648 41.3621 47.449 41.4134H45.0974C45.0974 41.3582 45.0974 41.3069 45.0935 41.2517M44.8733 41.2517H45.0895C45.0895 41.3069 45.0935 41.3621 45.0935 41.4134H44.9008C44.8929 41.3582 44.8851 41.3069 44.8733 41.2517ZM41.0942 41.2517H41.2672C41.2515 41.3069 41.2397 41.3582 41.2279 41.4134H41.0588C41.0706 41.3582 41.0824 41.303 41.0942 41.2517ZM40.4217 41.2517H41.0942C41.0824 41.3069 41.0706 41.3582 41.0588 41.4134H40.4217V41.2517ZM40.1583 41.2517H40.4217V41.4134H40.1543V41.2517H40.1583ZM47.5985 39.9541H47.8265C47.8305 40.0093 47.8344 40.0645 47.8383 40.1158H47.6103C47.6103 40.0606 47.6063 40.0093 47.6024 39.9541M44.5036 39.9541H47.5985C47.6024 40.0093 47.6063 40.0645 47.6063 40.1158H44.6609C44.6137 40.0566 44.5587 40.0053 44.5036 39.9541ZM43.8901 39.9541H44.5036C44.5587 40.0053 44.6137 40.0606 44.6609 40.1158H44.1654C44.0828 40.0527 43.9924 40.0014 43.8941 39.9541M41.8846 39.9541H42.4705C42.3486 40.0014 42.2346 40.0527 42.1323 40.1158H41.7076C41.7627 40.0566 41.8217 40.0053 41.8885 39.9541M40.4217 39.9541H41.8846C41.8217 40.0053 41.7627 40.0606 41.7037 40.1158H40.4217V39.9541ZM40.1583 39.9541H40.4217V40.1158H40.1583V39.9541ZM47.3271 38.6367H47.567C47.5827 38.6919 47.5985 38.7472 47.6142 38.7984H47.3822C47.3664 38.7432 47.3468 38.6919 47.331 38.6367M40.4217 38.6367H47.3232C47.3428 38.6919 47.3586 38.7472 47.3743 38.7984H40.4178V38.6367H40.4217ZM40.1622 38.6367H40.4217V38.7984H40.1622V38.6367ZM46.7805 37.3233H47.1108C47.1108 37.3233 47.0833 37.3588 47.0676 37.3746C47.0872 37.414 47.103 37.4495 47.1187 37.485H46.8198C46.7962 37.4416 46.7726 37.3983 46.749 37.3549C46.7608 37.343 46.7687 37.3312 46.7805 37.3233ZM40.4217 37.3233H46.7766C46.7766 37.3233 46.7569 37.347 46.7451 37.3549C46.7687 37.3983 46.7923 37.4416 46.8159 37.485H40.4217V37.3233ZM40.1661 37.3233H40.4257V37.485H40.1661V37.3233ZM47.508 36.006H47.7675C47.7558 36.0612 47.74 36.1164 47.7282 36.1677H47.4608C47.4765 36.1125 47.4923 36.0612 47.508 36.006ZM40.4217 36.006H47.508C47.4923 36.0612 47.4765 36.1164 47.4608 36.1677H40.4217V36.006ZM40.1661 36.006H40.4217V36.1677H40.1661V36.006ZM47.5945 34.6926H47.8226C47.8305 34.7478 47.8344 34.7991 47.8383 34.8543H47.6063C47.6063 34.7991 47.5985 34.7438 47.5906 34.6926M40.4414 34.6926H47.5945C47.5985 34.7478 47.6063 34.7991 47.6103 34.8543H40.4296C40.4296 34.7991 40.4375 34.7478 40.4414 34.6926ZM40.1779 34.6926H40.4453C40.4414 34.7478 40.4375 34.803 40.4335 34.8543H40.174C40.174 34.7991 40.174 34.7478 40.1818 34.6926M47.2288 33.3713H47.4765C47.5001 33.4265 47.5198 33.4778 47.5395 33.533H47.2996C47.276 33.4778 47.2524 33.4226 47.2288 33.3713ZM40.7717 33.3713H47.2288C47.2524 33.4265 47.276 33.4778 47.2996 33.533H40.7088C40.7285 33.4778 40.7481 33.4226 40.7717 33.3713ZM40.4964 33.3713H40.7717C40.7481 33.4265 40.7285 33.4778 40.7088 33.533H40.4335C40.4532 33.4778 40.4768 33.4226 40.4964 33.3713ZM46.2968 32.0618H46.6704C46.7176 32.1131 46.7608 32.1683 46.8041 32.2235H46.458C46.4069 32.1683 46.3519 32.1131 46.2968 32.0618ZM41.6211 32.0618H46.3007C46.3558 32.1131 46.4109 32.1683 46.462 32.2235H41.4717C41.5189 32.1683 41.57 32.1131 41.6211 32.0618ZM41.3537 32.0618H41.6211C41.57 32.1131 41.5189 32.1683 41.4717 32.2235H41.2082C41.2554 32.1683 41.3026 32.1131 41.3537 32.0618ZM42.7694 45.2195H43.784C44.0632 45.3023 44.366 45.3615 44.6884 45.3812H43.0879C42.9778 45.3299 42.8716 45.2787 42.7733 45.2195M40.4217 45.2195H42.7655C42.8677 45.2787 42.97 45.3339 43.0801 45.3812H40.4178V45.2195H40.4217ZM40.1504 45.2195H40.4217V45.3812H40.1504V45.2195ZM41.4835 43.9022H41.8807C41.9239 43.9574 41.9672 44.0126 42.0104 44.0639H41.5779C41.5464 44.0087 41.511 43.9574 41.4835 43.9022ZM40.4217 43.9022H41.4835C41.5149 43.9574 41.5464 44.0126 41.5779 44.0639H40.4217V43.9022ZM40.1543 43.9022H40.4257V44.0639H40.1543V43.9022ZM41.0391 42.5888H41.2593C41.2711 42.644 41.2869 42.6992 41.3026 42.7505H41.0666C41.0548 42.6952 41.047 42.644 41.0391 42.5888ZM40.4217 42.5888H41.0391C41.047 42.644 41.0548 42.6992 41.0666 42.7505H40.4217V42.5888ZM40.1543 42.5888H40.4217V42.7505H40.1543V42.5888ZM47.0204 29.5888H46.7569C46.6035 29.5297 46.4502 29.4745 46.2929 29.4271H46.6429C46.7726 29.4784 46.8985 29.5336 47.0243 29.5888M48.9473 30.9022H48.8726C48.8136 30.847 48.7507 30.7918 48.6917 30.7405H48.7743C48.8332 30.7957 48.8962 30.847 48.9512 30.9022M50.0366 32.2235H49.9855C49.9501 32.1683 49.9147 32.1131 49.8753 32.0618H49.9225C49.9579 32.117 49.9973 32.1683 50.0326 32.2235M50.7366 33.5369H50.6854C50.6618 33.4817 50.6382 33.4265 50.6146 33.3752H50.6658C50.6894 33.4304 50.713 33.4817 50.7366 33.5369ZM51.1849 34.8543H51.1219C51.1101 34.7991 51.0944 34.7438 51.0787 34.6926H51.1416C51.1573 34.7478 51.1731 34.7991 51.1849 34.8543ZM51.4365 36.1677H51.3618C51.3539 36.1125 51.35 36.0572 51.3421 36.006H51.4169C51.4247 36.0612 51.4326 36.1164 51.4405 36.1677M51.5152 37.485H51.4247C51.4247 37.4298 51.4247 37.3746 51.4247 37.3233H51.5152C51.5152 37.3785 51.5152 37.4298 51.5152 37.485ZM51.4365 38.7984H51.3343C51.3421 38.7432 51.35 38.6919 51.3579 38.6367H51.4601C51.4523 38.6919 51.4483 38.7432 51.4405 38.7984M51.1849 40.1197H51.0669C51.0826 40.0645 51.0983 40.0132 51.1101 39.958H51.2242C51.2124 40.0132 51.1966 40.0684 51.1849 40.1197ZM50.7484 41.4134H50.6146C50.6382 41.3582 50.6618 41.3069 50.6854 41.2517H50.8113C50.7877 41.3069 50.768 41.3621 50.7444 41.4134M50.0366 42.7505H49.8793C49.9147 42.6952 49.954 42.644 49.9894 42.5888H50.1467C50.1113 42.644 50.0759 42.6992 50.0405 42.7505M48.9237 44.0639H48.6838C48.7467 44.0126 48.8096 43.9574 48.8726 43.9022H49.0967C49.0417 43.9574 48.9827 44.0126 48.9237 44.0639ZM46.6468 45.3812H45.3334C45.648 45.3575 45.9822 45.3063 46.3283 45.2195H47.0912C47.0322 45.2432 46.9732 45.2668 46.9142 45.2905C46.8238 45.3221 46.7333 45.3536 46.6468 45.3852M40.4217 46.6946H40.1465V46.5329H40.4217V46.6946ZM40.4217 48.0159H40.1465V47.8542H40.4217V48.0159ZM40.4217 49.3293H40.1425V49.1676H40.4217V49.3293ZM40.4217 50.6151H40.1425V50.4534H40.4217C40.4217 50.5086 40.4217 50.5638 40.4217 50.6151ZM40.4689 51.9285H40.1425V51.9048V51.7668H40.4571C40.4571 51.822 40.465 51.8772 40.4689 51.9285ZM40.6655 53.2459H40.3824C40.3667 53.1906 40.3549 53.1354 40.3391 53.0841H40.6301C40.6419 53.1394 40.6537 53.1946 40.6655 53.2459ZM41.1532 54.5593H40.874C40.8464 54.504 40.8189 54.4528 40.7953 54.3975H41.0666C41.0942 54.4528 41.1217 54.508 41.1492 54.5593M42.2778 55.8805H41.8453C41.7863 55.8293 41.7312 55.7741 41.6801 55.7188H42.0812C42.1441 55.7741 42.211 55.8293 42.2818 55.8805M39.1555 55.7188H39.5094C39.5684 55.7741 39.6274 55.8293 39.6903 55.8805H39.3442C39.2813 55.8293 39.2184 55.7741 39.1594 55.7188M38.2471 54.3975H38.601C38.6246 54.4528 38.6521 54.504 38.6757 54.5593H38.3179C38.2943 54.504 38.2667 54.4528 38.2471 54.3975ZM35.7657 53.0841H36.1236C36.2061 53.1394 36.2926 53.1946 36.3792 53.2459H35.9466C35.8837 53.1946 35.8247 53.1433 35.7657 53.0841ZM36.3438 51.7668H36.8157C36.8078 51.8102 36.7999 51.8496 36.7921 51.8891C36.7842 51.9009 36.7724 51.9167 36.7645 51.9285H36.1904C36.2455 51.8772 36.2966 51.826 36.3438 51.7668ZM36.7488 50.4534H36.8471V50.6151H36.7409C36.7409 50.5638 36.7449 50.5086 36.7449 50.4534M36.7488 49.1637H36.8511V49.3254H36.7488V49.1637ZM36.7488 47.8542H36.8511V48.0159H36.7488V47.8542ZM36.7488 46.5329H36.855V46.6946H36.7488V46.5329ZM36.7488 45.2195H36.8589V45.3812H36.7488V45.2195ZM36.7488 43.9022H36.8589V44.0639H36.7488V43.9022ZM36.7488 42.5888H36.8629V42.7505H36.7488V42.5888ZM36.2887 41.2517H36.5247L36.6662 41.4134H36.4578L36.2848 41.2517H36.2887ZM36.7488 38.6367H36.8589V38.7984H36.7488V38.6367ZM36.7488 37.3233H36.8589V37.485H36.7488V37.3233ZM36.7488 36.006H36.8629V36.1677H36.7488V36.006ZM36.7488 34.6926H36.8668V34.8543H36.7488V34.6926ZM36.4814 33.3713H36.8275C36.8432 33.4226 36.855 33.4778 36.8589 33.533H36.5994C36.564 33.4738 36.5247 33.4186 36.4814 33.3713ZM35.1326 32.0618H35.4C35.3528 32.1131 35.3017 32.1683 35.2545 32.2235H34.9792C35.0303 32.1683 35.0775 32.1131 35.1286 32.0618M39.4307 30.7405H39.8987C39.8397 30.7957 39.7807 30.847 39.7257 30.9022H39.2538C39.3128 30.847 39.3718 30.7918 39.4307 30.7405ZM41.3773 29.4271H41.8217C41.7037 29.4784 41.5897 29.5297 41.4796 29.5888H41.0627C41.1689 29.5336 41.2711 29.4784 41.3812 29.4271M45.7935 28.2715H39.1279C38.5499 28.6462 37.905 29.0367 37.201 29.4271H41.3773C41.2711 29.4784 41.165 29.5336 41.0588 29.5888H36.9061C36.1983 29.9754 35.4314 30.3658 34.6096 30.7405H39.4268C39.3678 30.7957 39.3088 30.847 39.2499 30.9022H34.2478C33.3276 31.3124 32.3405 31.7029 31.2984 32.0579H35.1286C35.0775 32.1091 35.0264 32.1644 34.9792 32.2196H30.8108C30.0164 32.476 29.1946 32.7126 28.3373 32.9138C28.3373 33.0676 28.3373 33.2175 28.3373 33.3673H36.4775C36.5207 33.4186 36.564 33.4699 36.5954 33.529H28.3373C28.3452 33.9195 28.357 34.306 28.3727 34.6847H36.7409V34.8464H28.3805C28.4002 35.2329 28.4277 35.6194 28.4592 35.9981H36.7409V36.1598H28.4749C28.5103 36.5503 28.5496 36.9368 28.5968 37.3154H36.7409V37.4771H28.6165C28.6676 37.8637 28.7227 38.2502 28.7856 38.6288H36.7409V38.7905H28.8131C28.88 39.181 28.9508 39.5675 29.0255 39.9462H36.855L36.6898 40.1079H29.0569C29.1356 40.4905 29.2221 40.8691 29.3125 41.2399H36.2769L36.4499 41.4016H29.3558C29.4541 41.7999 29.5603 42.1904 29.6704 42.5769H36.7409V42.7386H29.7176C29.8316 43.1291 29.9535 43.5117 30.0794 43.8903H36.7409V44.052H30.1344C30.2681 44.4425 30.4058 44.829 30.5513 45.2077H36.7449V45.3694H30.6142C30.7636 45.7599 30.9209 46.1424 31.0821 46.5211H36.7449V46.6828H31.1529C31.326 47.0772 31.499 47.4637 31.6799 47.8384H36.7449V48.0001H31.7585C31.9473 48.3906 32.1439 48.7771 32.3445 49.1518H36.7449V49.3135H32.431C32.6394 49.7001 32.8478 50.0748 33.0641 50.4376H36.7449C36.7449 50.4928 36.7449 50.548 36.7409 50.5993H33.1624C33.3984 50.9937 33.6343 51.3763 33.8781 51.751H36.3398C36.2926 51.8102 36.2415 51.8654 36.1865 51.9127H33.9843C34.2438 52.3111 34.5112 52.6976 34.7747 53.0684H35.7618C35.8208 53.1275 35.8837 53.1827 35.9427 53.2301H34.8888C35.1758 53.6284 35.4668 54.011 35.7539 54.3818H38.2431C38.2667 54.437 38.2903 54.4922 38.3139 54.5435H35.8797C36.1983 54.9497 36.5207 55.3323 36.8353 55.6991H39.1515C39.2105 55.7543 39.2734 55.8096 39.3364 55.8608H36.9769C37.3308 56.2671 37.6808 56.6536 38.0229 57.0125H47.0047C47.3507 56.6536 47.7007 56.271 48.0585 55.8608H42.2739C42.2071 55.8096 42.1402 55.7543 42.0734 55.6991H48.2001C48.5186 55.3323 48.8372 54.9458 49.1596 54.5435H41.1453C41.1178 54.4883 41.0863 54.437 41.0627 54.3818H49.2894C49.5804 54.015 49.8675 53.6284 50.1585 53.2301H40.6616C40.6498 53.1749 40.638 53.1236 40.6262 53.0684H50.2765C50.5439 52.6976 50.8073 52.3111 51.0708 51.9127H40.465C40.4611 51.8575 40.4571 51.8062 40.4532 51.751H51.177C51.4169 51.3803 51.6567 50.9937 51.8927 50.5993H40.4178C40.4178 50.5441 40.4178 50.4928 40.4178 50.4376H51.9871C52.2034 50.0708 52.4118 49.6961 52.6202 49.3135H40.4178V49.1518H52.7067C52.9073 48.7771 53.1 48.3945 53.2887 48.0001H40.4139V47.8384H53.3634C53.5443 47.4598 53.7174 47.0772 53.8904 46.6828H40.4139V46.5211H53.9612C54.1224 46.1464 54.2758 45.7599 54.4252 45.3694H46.6389C46.7294 45.3418 46.8159 45.3102 46.9063 45.2747C46.9653 45.2511 47.0243 45.2274 47.0833 45.2037H54.4881C54.6297 44.8251 54.7673 44.4386 54.901 44.0481H48.9198C48.9787 43.9929 49.0338 43.9416 49.0928 43.8864H54.9561C55.0819 43.5077 55.1999 43.1252 55.3139 42.7347H50.0326C50.068 42.6795 50.1034 42.6282 50.1388 42.573H55.3611C55.4712 42.1865 55.5735 41.796 55.6718 41.3976H50.7444C50.768 41.3424 50.7877 41.2911 50.8113 41.2359H55.7111C55.8016 40.8652 55.8841 40.4865 55.9628 40.1039H51.1809C51.1966 40.0487 51.2084 39.9935 51.2202 39.9422H55.9942C56.069 39.5636 56.1397 39.1771 56.2027 38.7866H51.4287C51.4365 38.7314 51.4405 38.6762 51.4483 38.6249H56.2302C56.2892 38.2462 56.3442 37.8637 56.3914 37.4732H51.5112C51.5112 37.418 51.5112 37.3628 51.5112 37.3115H56.4111C56.4583 36.9289 56.4976 36.5463 56.5291 36.1558H51.4287C51.4208 36.1006 51.4129 36.0454 51.4051 35.9941H56.5409C56.5723 35.6155 56.5959 35.2329 56.6156 34.8424H51.177C51.1613 34.7872 51.1455 34.732 51.1337 34.6807H56.6274C56.6431 34.2982 56.6549 33.9116 56.6588 33.5251H50.7287C50.7051 33.4699 50.6815 33.4147 50.6579 33.3634H56.6628C56.6628 33.2135 56.6628 33.0597 56.6628 32.9098C55.7858 32.7047 54.9443 32.4681 54.1381 32.2156H50.0287C49.9933 32.1604 49.954 32.1052 49.9186 32.0539H53.6387C52.5691 31.699 51.5742 31.3045 50.6461 30.8983H48.9434C48.8844 30.8431 48.8254 30.7879 48.7664 30.7366H50.2843C49.4585 30.3619 48.6917 29.9714 47.9878 29.5849H47.0164C46.8945 29.5257 46.7648 29.4745 46.635 29.4232H47.6928C46.9929 29.0288 46.3558 28.6383 45.7895 28.2675M43.9531 26.9581H41.0116C40.5554 27.3012 40.0088 27.6917 39.3757 28.1098H45.5496C44.9283 27.6917 44.3935 27.3012 43.9531 26.9581ZM41.2239 26.7964H43.7446C43.0997 26.2836 42.6829 25.8932 42.4981 25.7038C42.3211 25.8892 41.8846 26.2836 41.22 26.7964M57.0521 32.6298C57.406 43.6063 51.7865 55.0444 42.5059 61.4891C33.4455 55.1469 27.6177 43.5393 27.9637 32.6337C32.1714 31.6516 37.7398 29.4823 42.5059 25.1714C47.0872 29.4981 52.7106 31.6082 57.056 32.6337" fill="#006637"/>
<path d="M46.2692 11.6274L42.5019 8.88223L38.7346 11.6274L40.1739 7.18624L36.4066 4.44111H41.0626L42.5019 0L43.9412 4.44111H48.5972L44.8299 7.18624L46.2692 11.6274Z" fill="#B52A20"/>
</g>
<defs>
<clipPath id="clip0_1_2">
<rect width="85" height="100" fill="white"/>
</clipPath>
</defs>
</svg>
