<svg width="100" height="100" viewBox="0 0 100 100" fill="none" xmlns="http://www.w3.org/2000/svg">
<path fill-rule="evenodd" clip-rule="evenodd" d="M3.21436 3.22559H96.7857V39.5225L50 96.7743L3.21436 39.5225V3.22559Z" fill="white" stroke="black" stroke-width="2.5"/>
<path d="M92.219 8.2417H7.78113V33.0099H92.219V8.2417Z" fill="black"/>
<path fill-rule="evenodd" clip-rule="evenodd" d="M7.96753 37.4644H42.6374V80.1225L7.96753 37.4644Z" fill="#FE0000"/>
<path fill-rule="evenodd" clip-rule="evenodd" d="M91.8461 37.4644H57.1763V80.1225L91.8461 37.4644Z" fill="black"/>
<path fill-rule="evenodd" clip-rule="evenodd" d="M74.9872 12.3877C72.3583 12.3877 71.8559 13.877 71.8559 14.8191V26.1469C71.7712 28.1292 73.3775 29.1287 74.8607 29.1287H83.3018C85.121 29.1287 87.0065 28.1223 87.0065 25.8913V22.7106H83.0456V23.8324C83.1514 24.6741 82.7523 25.2521 82.1152 25.2239H76.7929C76.0166 25.274 75.2797 25.2797 75.4773 24.23V16.8889C75.634 16.3765 75.0796 15.6262 76.5949 15.5684H82.3241C82.6667 15.7579 83.1845 15.4198 83.187 16.6333L83.2436 17.9538H86.9358V14.7966C86.9358 12.9637 85.3605 12.3877 83.9426 12.3877H74.9872ZM44.1585 12.3877H32.5719V29.0009H36.5984V22.8718H44.1312C45.6992 22.8718 47.3926 22.1224 47.3926 19.9985V15.1708C47.3926 13.8305 46.368 12.4106 44.1585 12.3877ZM15.2428 12.3877C13.6869 12.5104 13.0393 13.2347 13.0643 14.5034V19.9992C13.0643 20.9853 13.9553 21.9158 16.2646 21.9158H23.2778C23.6131 21.9158 23.8012 22.086 23.8012 22.6104V24.372C23.8012 24.8968 23.6143 25.2949 23.1752 25.2949H12.9935V28.8589H25.3627C27.1965 28.8589 27.8895 27.9149 27.8895 26.6161V20.5949C27.8895 18.3481 25.154 18.4792 24.1435 18.4792H17.8452C17.2788 18.5365 16.736 18.0079 16.7847 17.4479V16.2684C16.7251 15.8342 17.1391 15.508 17.6901 15.5116L27.8895 15.4974V12.3877H15.2428ZM52.3483 12.3877V29.0577H56.0263V22.8384H64.3301V19.2034H56.097V15.4974H67.1735V12.3877H52.3483ZM36.5984 16.0369H42.7713C43.2286 16.0369 43.7474 16.0708 43.7474 16.964V18.4859C43.7474 19.403 43.2695 19.4373 42.7854 19.4373H36.5984V16.0369Z" fill="white"/>
</svg>
