<?xml version="1.0" encoding="UTF-8"?>
<svg id="Layer_1" data-name="Layer 1" xmlns="http://www.w3.org/2000/svg" viewBox="0 0 960 960">
  <defs>
    <style>
      .cls-1 {
        fill: none;
      }

      .cls-1, .cls-2, .cls-3, .cls-4 {
        stroke: #000;
      }

      .cls-1, .cls-4 {
        stroke-width: 1.5px;
      }

      .cls-2 {
        stroke-width: 2px;
      }

      .cls-2, .cls-3, .cls-4 {
        fill-rule: evenodd;
      }

      .cls-5, .cls-6, .cls-7, .cls-8 {
        stroke-width: 0px;
      }

      .cls-6 {
        fill: #e71e00;
      }

      .cls-7, .cls-3, .cls-4 {
        fill: #fff;
      }

      .cls-8 {
        fill: #f1a03e;
      }

      .cls-3 {
        stroke-width: 7.4px;
      }
    </style>
  </defs>
  <g id="layer1">
    <path id="path2188" class="cls-3" d="M672.22,70.23c-72.59,246.34,155.26,170.18,155.26,170.18,11.69,296.13-.54,516.97-345.93,691.82C138.06,767.47,119.34,548.75,132.13,240.42c0,0,237.2,74.12,156.9-169.25,0,0,186.61-70.4,383.19-.93Z"/>
    <path id="path3188" class="cls-2" d="M630.28,98.75c-44.07,230.69,164.94,185.28,164.94,185.28,17.44,249.81-19.52,458.88-313.68,611.31C179.07,742.96,145.4,532.62,164,282.35c0,0,210.5,44.98,168.64-182.67,0,0,118.87-57.75,297.65-.93Z"/>
    <path id="rect23770" class="cls-7" d="M634.5,218.25l-440.5,386.23c19.01,51.49,47.31,100.03,88.13,145.38l514.19-448.76c-.34-5.67-.67-11.34-1.07-17.05,0,0-123.75,26.86-160.75-65.81Z"/>
    <path id="path20698" class="cls-4" d="M370.79,276.03s37.1,64.15,10.82,88.88c140.66-23.96,184.71,3.86,184.71,3.86,0,0,30.14-58.74-5.41-89.65-70.51,0-146.84-3.09-190.12-3.09Z"/>
    <path id="path18756" class="cls-4" d="M293.5,568.94s92.59-83.47,38.64-233.4h235.97s38.91,36.32,7.22,199.4c-.88,4.55-115.67-47.92-281.84,34.01Z"/>
    <g id="g23737">
      <path id="path23739" class="cls-1" d="M394.38,288.53v9.86"/>
      <path id="path23741" class="cls-1" d="M418.84,288.53v9.86"/>
      <path id="path23743" class="cls-1" d="M443.3,288.53v9.86"/>
      <path id="path23745" class="cls-1" d="M467.76,288.53v9.86"/>
      <path id="path23747" class="cls-1" d="M492.22,288.53v9.86"/>
      <path id="path23749" class="cls-1" d="M516.68,288.53v9.86"/>
      <path id="path23751" class="cls-1" d="M541.14,288.53v9.86"/>
    </g>
    <g id="g23705">
      <path id="path23672" class="cls-1" d="M355.45,352.52v7.65"/>
      <path id="path23674" class="cls-1" d="M379.91,352.52v7.65"/>
      <path id="path23676" class="cls-1" d="M404.37,352.52v7.65"/>
      <path id="path23678" class="cls-1" d="M428.83,352.52v7.65"/>
      <path id="path23680" class="cls-1" d="M453.29,352.52v7.65"/>
      <path id="path23682" class="cls-1" d="M477.75,352.52v7.65"/>
      <path id="path23684" class="cls-1" d="M502.21,352.52v7.65"/>
      <path id="path23686" class="cls-1" d="M526.67,352.52v7.65"/>
      <path id="path23688" class="cls-1" d="M551.13,352.52v7.65"/>
    </g>
    <path id="path19727" class="cls-4" d="M435.71,363.36s39.42-34.78,2.32-102.79h193.99s21.64,61.83-20.09,112.06c-11.59-10.82-46.37-53.33-176.21-9.27Z"/>
    <path id="path21687" class="cls-4" d="M416.13,205.44s15.97,28.89,6.44,55.13c74.97-33.23,129.84,1.55,129.84,1.55,0,0,10.89-35.96.77-55.65-20.09,0-134.73-1.03-137.05-1.03Z"/>
    <path id="path17785" class="cls-4" d="M334.46,609.13s120.56-105.88,24.73-241.13c74.26,0,305.28-3.09,305.28-3.09,0,0,37.1,148.39-71.1,222.58-17.5,12-82.7-50.24-258.9,21.64Z"/>
    <g id="g23657">
      <path id="path23635" class="cls-1" d="M398.87,384.29v13.97"/>
      <path id="path23637" class="cls-1" d="M423.33,384.29v13.97"/>
      <path id="path23639" class="cls-1" d="M447.79,384.29v13.97"/>
      <path id="path23641" class="cls-1" d="M472.25,384.29v13.97"/>
      <path id="path23643" class="cls-1" d="M496.71,384.29v13.97"/>
      <path id="path23645" class="cls-1" d="M521.17,384.29v13.97"/>
      <path id="path23647" class="cls-1" d="M545.63,384.29v13.97"/>
      <path id="path23649" class="cls-1" d="M570.09,384.29v13.97"/>
      <path id="path23651" class="cls-1" d="M594.55,384.29v13.97"/>
      <path id="path23653" class="cls-1" d="M619.01,384.29v13.97"/>
      <path id="path23655" class="cls-1" d="M643.47,384.29v13.97"/>
    </g>
    <g id="g23717">
      <path id="path23719" class="cls-1" d="M462.26,272.56v9.86"/>
      <path id="path23721" class="cls-1" d="M486.72,272.56v9.86"/>
      <path id="path23723" class="cls-1" d="M511.18,272.56v9.86"/>
      <path id="path23725" class="cls-1" d="M535.64,272.56v9.86"/>
      <path id="path23727" class="cls-1" d="M560.1,272.56v9.86"/>
      <path id="path23729" class="cls-1" d="M584.56,272.56v9.86"/>
      <path id="path23731" class="cls-1" d="M609.02,272.56v9.86"/>
    </g>
    <g id="g23763">
      <rect id="rect23753" class="cls-5" x="431.49" y="216.22" width="3.46" height="4.49"/>
      <rect id="rect23755" class="cls-5" x="455.95" y="216.22" width="3.46" height="4.49"/>
      <rect id="rect23757" class="cls-5" x="480.41" y="216.22" width="3.46" height="4.49"/>
      <rect id="rect23759" class="cls-5" x="504.87" y="216.22" width="3.46" height="4.49"/>
      <rect id="rect23761" class="cls-5" x="529.33" y="216.22" width="3.46" height="4.49"/>
    </g>
    <path id="rect3901" class="cls-6" d="M494.08,419.28c.08-.26,14.8,22.54,16.93,38.83-18.09-.04-35.1-16.03-35.1-16.03v46.52c-.31-.08,17.18-15.82,35.1-15.88-2.12,16.3-16.85,39.18-16.93,38.93h49.81c-6.62-10.82-14.41-26.71-17.17-38.93,14.15.44,27.24,6.8,36.68,15.01v-45.64s-18.52,15.94-36.58,16.03c1.82-12.52,11.17-27.81,17.08-38.83h-49.81Z"/>
    <path id="path3365" class="cls-5" d="M568.5,529.88c1.31-5.83-.29-9.91-4.95-11.95-4.66-2.18-9.61,0-14.71,6.56-32.78,5.97-64.68,16.61-95.42,31.61-6.26,3.06-9.47,8.3-9.32,15.59,0,7.87-4.66,13.55-14.28,17.2-7.43,2.77-13.25,2.33-17.63-1.31-1.61-1.31-3.64-1.75-6.26-1.6-13.69,1.31-22.87,2.77-27.24,4.81-.73,1.17-.73,2.62-.29,4.08,2.62,8.88,7.58,14.71,15.01,17.77.15,1.02.88,2.19,1.89,3.21-.44-.15-7.28-1.17-20.25-2.92-13.11-1.75-29.14,4.66-48.08,19.52,15.01-7.87,35.55-10.05,61.33-6.71,8.45,1.03,15.3,3.79,20.83,8.16,2.77,2.04,5.83,4.23,9.32,6.12l-12.38-3.06c-31.03-3.21-61.04,2.48-90.03,17.34,32.93-8.45,59.15-10.63,78.96-6.7,19.67,3.93,29.58,7.87,30.01,11.94-5.1,2.77-8.89,6.99-11.8,12.82,15.3-1.9,31.9-1.61,50.11.58,15.15,2.05,30.01.59,44.43-4.22,4.66,2.33,10.49,4.08,16.9,4.81-2.04,1.9-4.81,3.06-8.01,3.35,4.37,3.21,11.07,5.39,19.81,6.56,15.01,1.46,30.45.73,45.89-2.62,1.17,3.5,6.12,4.08,14.57,1.89,23.6-5.54,47.93-7.14,72.84-4.95,15.44,1.46,28.55-4.81,39.92-18.36-6.27-3.79-13.69-6.55-22.58-8.16,12.67-1.9,24.18-7.14,34.38-15.88-8.74-10.78-24.33-14.42-46.33-11.37,6.99-3.93,11.79-9.17,14.42-16.02-14.27.44-29.43-2.19-45.02-7.57-15.73-5.39-29.57-4.23-41.81,3.5-12.09,7.87-19.52,10.63-22.14,8.31.44-1.61.58-3.5.87-5.25,3.07-7.14,5.1-13.99,5.97-20.54,2.33-2.19,4.08-4.95,5.39-8.45,1.6-4.52,2.04-7.86,1.02-10.05-5.96-14.28-14.41-26.95-25.34-38.03h0Z"/>
    <path id="path3367" class="cls-8" d="M565.15,528.71c1.31-3.2.44-5.54-2.63-7.29-4.66-2.62-9.32,2.05-13.98,13.7-4.81,11.79-7.14,27.09-6.85,45.89.15,18.65-1.31,32.78-4.22,42.24-3.07,9.32-3.5,13.69-1.61,12.82,2.04-.88,4.66-5.54,7.72-13.84,3.21-8.45,5.68-20.83,7.43-37.15,2.34-20.54,6.99-39.47,14.13-56.37h0Z"/>
    <path id="path3369" class="cls-8" d="M564.57,568.63c-4.52-3.35-7.14-3.06-7.57.58-.58,3.79-1.17,7.14-1.6,10.05-.59,2.77,1.46,5.54,5.97,8.45,4.52,2.92,8.88,6.26,13.11,10.19,4.08,3.79,6.55,3.79,7.43,0,.59-3.64.73-6.99,0-10.63-.58-3.5-2.62-6.56-5.68-9.33-3.2-2.91-7.14-5.97-11.65-9.32h0Z"/>
    <path id="path3371" class="cls-8" d="M560.34,552.89c-.88,4.37-.29,7.43,1.9,9.18,6.99,5.83,13.55,11.21,19.52,16.46,3.65,3.06,5.83,2.92,6.71-.3.58-2.18,1.02-4.66,1.02-6.99.15-2.62-.58-4.95-2.04-7.28-4.95-9.47-10.49-17.92-16.46-25.2-2.33-2.77-4.52-2.33-6.41,1.46-1.75,3.65-3.07,7.87-4.23,12.68h0Z"/>
    <path id="path3373" class="cls-8" d="M553.5,589.17c0,2.63-.44,5.83-1.17,9.47-.58,3.5.88,6.99,4.66,10.2,3.64,3.21,8.16,6.41,13.25,9.47,2.48,1.46,4.37.59,5.68-2.48.88-2.19,1.31-4.52,1.02-6.99-.14-2.92-2.18-6.12-5.83-9.61-3.78-3.64-7.57-6.85-11.51-9.76-3.94-2.92-5.97-3.06-6.12-.29h0Z"/>
    <path id="path3375" class="cls-7" d="M662.03,634.19c-7.72,3.2-15.3,4.37-23.02,3.5-12.09-1.75-22.58,1.75-31.33,10.63,9.47-3.5,19.67-4.22,30.6-2.48,11.95,1.46,19.82-2.34,23.75-11.65h0Z"/>
    <path id="path3377" class="cls-8" d="M567.19,622.24c-3.21-4.52-6.56-7.72-10.49-9.76-3.79-2.19-6.26-1.46-7.28,2.04-1.17,3.5-2.19,7.87-3.35,13.11-1.16,5.1.29,8.3,4.37,9.76,3.64,1.02,7.28,1.61,10.78,1.61s5.83-2.77,6.85-8.16c.73-3.79.44-6.7-.87-8.59h0Z"/>
    <path id="path3379" class="cls-7" d="M590.5,673.81c-1.02,4.22,3.93,4.37,15.01.44,11.07-3.79,24.32-4.95,39.48-3.35-32.2-14.86-50.41-13.84-54.49,2.92h0Z"/>
    <path id="path3381" class="cls-7" d="M580.88,630.83c-4.81.29-9.32,3.64-13.98,9.91,5.1-1.17,13.25-1.6,24.76-1.46,11.51.29,20.4-4.08,26.8-13.11-7.57,4.81-20.1,6.41-37.58,4.66h0Z"/>
    <path id="path3383" class="cls-7" d="M567.63,676.14c4.66-3.35,9.61-6.26,14.57-8.59-6.85-2.63-14.27-1.9-22.14,2.33-5.54,2.92-11.95,5.39-19.52,7.14,2.92,1.61,6.99,2.77,12.38,3.35,5.09.44,10.05-.88,14.71-4.23h0Z"/>
    <path id="path3385" class="cls-7" d="M639.6,607.23c-18.8-3.5-34.53.87-47.06,13.25,13.69-5.1,28.85-5.68,45.31-1.9,16.32,3.93,31.61,1.31,45.75-8.01-17.19.15-31.76-1.02-44-3.35h0Z"/>
    <path id="path3387" class="cls-7" d="M670.62,668.27c14.72,2.92,25.49.59,32.49-6.85-28.55-8.01-44-5.83-46.18,6.27,4.66-.29,9.18-.15,13.69.58h0Z"/>
    <path id="path3389" class="cls-7" d="M685.63,640.74c11.36,1.31,22.14-.59,32.63-5.39-23.31-14.42-41.37-12.24-54.34,6.41,7.14-1.61,14.28-1.9,21.71-1.02h0Z"/>
    <path id="path3391" class="cls-8" d="M545.63,533.37c-.59-3.21-2.19-4.52-4.95-3.79-30.74,7.72-59.58,17.78-86.39,30.01-4.66,2.19-6.85,5.83-6.55,11.07.15,5.1-1.6,9.47-4.95,12.96-5.39,5.39-12.23,8.74-20.4,9.61-4.81.73-9.03-.58-12.52-3.64-1.61-1.31-3.35-1.9-5.25-1.6-6.99.88-12.82,1.9-17.77,2.92-4.81.73-6.7,2.62-5.54,5.54,3.64,8.45,9.03,12.23,16.17,11.65,8.01-.87,23.31-7.14,45.89-18.64,31.61-13.4,61.77-23.74,90.76-31.03,3.35-.73,5.68-3.5,6.85-8.16l4.65-16.91h0Z"/>
    <path id="path3393" class="cls-8" d="M537.91,596.16c.88-2.77,1.02-5.83.44-9.18-.58-2.77-2.62-3.78-6.12-2.92-28.85,6.56-52.88,14.86-72.26,24.77-19.23,10.05-32.34,15.59-39.04,16.76-6.85,1.02-9.17,2.77-7.28,5.24,3.21,3.79,6.27,6.27,9.18,7.73,2.77,1.31,7.72.87,14.57-1.17,6.99-2.18,18.65-7.14,35.26-15.01,16.46-7.87,35.98-14.28,58.57-19.38,3.34-.73,5.53-3.06,6.69-6.85h0Z"/>
    <path id="path3395" class="cls-8" d="M537.47,563.53c-.59-1.9-2.92-2.18-7.14-1.02-37.15,9.32-69.93,21.42-98.48,35.98-9.47,4.81-18.94,9.03-28.99,12.67-3.35,1.17-3.93,3.35-1.9,6.12,2.19,2.92,4.52,4.81,6.99,5.69,3.35,1.16,6.12,1.46,8.16.87,9.76-2.18,19.38-5.82,29.14-10.63,26.95-13.54,55.06-23.89,84.34-31.47,5.97-1.46,8.89-5.1,9.03-10.78,0-2.48-.43-4.96-1.16-7.43h0Z"/>
    <path id="path3397" class="cls-7" d="M540.09,651.67c-8.45,5.54-17.63,9.03-27.39,10.49,9.47,4.22,20.1,4.08,31.47-.29,13.11-5.24,25.93-8.01,38.6-8.3-19.08-7.58-33.36-8.16-42.68-1.89h0Z"/>
    <path id="path3399" class="cls-7" d="M536.3,642.64c-15.15,2.92-30.3,3.5-45.74,1.6-15.59-2.04-35.26,2.04-59,11.95,17.04-4.08,34.96-4.66,53.9-1.6,27.39,4.81,44.44.73,50.84-11.95h0Z"/>
    <path id="path3401" class="cls-8" d="M528.44,632.15c3.93-5.97,6.12-12.82,6.99-20.4.29-3.35-.88-4.66-3.79-4.23-25.2,4.52-49.24,12.97-72.11,25.21-7.43,3.93-14.86,6.7-22.14,8.44,5.68,1.31,12.82,1.46,21.42.15,16.17-2.04,32.63-3.06,49.24-2.92,10.19.73,17.19-1.31,20.39-6.26h0Z"/>
    <path id="path3403" class="cls-7" d="M496.97,661.57c-8.3,1.31-19.38,1.17-33.07-.29-13.84-1.61-26.95.73-39.33,6.99,13.84-2.92,29.43-2.33,46.91,1.61,12.96,2.92,21.41.15,25.49-8.3h0Z"/>
    <path id="path3405" class="cls-7" d="M480.99,171.26h-4.1l-6.49-6.49h14.68v-17.75c-1.71-.85-3.41-1.7-4.95-2.22-3.42-1.36-7-2.38-10.58-2.9h-.17c-.34,1.54-.51,3.24-.85,4.78-13.14,1.54-25.6-1.37-37.55-8.53,11.44-.51,21.68-2.39,30.72-5.8v-11.1c7.51-3.42,15.36-5.12,23.39-5.46l-2.73-2.05,2.73-2.05h3.07l2.9,2.05-2.9,2.05v48.99h14.85l-6.49,6.49h-3.92c14.26,13.53,28.91,25.14,43.92,34.65h-6.21c-11.97-7.91-23.74-17.1-35.33-27.65,4.7,9.81,10.42,19.05,17.14,27.65h-4.36c-7.3-9.64-13.34-20.12-18.24-31.24v31.24h-5.63v-31.24c-4.9,11.11-10.93,21.59-18.24,31.24h-4.36c6.71-8.6,12.43-17.84,17.14-27.65-11.58,10.55-23.36,19.74-35.4,27.65h-6.25c15.12-9.5,29.79-21.11,44.2-34.64h0Z"/>
    <path id="path3542" class="cls-7" d="M239.53,329.33c3.19,0,6.03.36,8.86,1.19,10.5,0,20.08,1.73,28.94,5.2-2.01-3.1-4.38-6.11-7.3-8.95-7.94-8.21-18.07-12.32-30.49-12.23-5.56,0-10.5.82-14.97,2.47-5.47-2.47-9.95-3.47-13.23-3.2-2.83.18-4.29,1.1-4.47,2.74-.28,2.28.64,3.84,2.73,4.84,2.92,1.1,5.29,4.47,7.12,10.04v87.36c4.38,3.47,9.31,5.93,14.79,7.67v-28.21h8.03c3.93,0,7.67-.45,11.32-1.46,8.58,9.76,14.6,22.09,18.17,37.15,3.19,12.6,8.58,20.63,15.97,24.1,2.28.92,5.11,1.64,8.67,1.92,10.13-.27,12.69-5.93,7.85-16.98-.36,0-.64.09-.73.27-4.02,2.1-7.12,2.47-9.4,1.28-3.19-1.46-5.84-6.21-8.03-14.33-3.84-15.25-9.95-28.48-18.44-39.8l4.75-4.29c6.85-6.39,10.95-13.78,12.5-22.18-4.29-3.56-9.04-6.3-14.06-8.3v.64c0,7.39-2.83,13.87-8.4,19.44-1.92,1.92-4.84,3.65-8.67,5.29-4.2,1.64-8.03,2.56-11.5,2.56h-8.03v-53.31c2.29-.73,5.02-1.01,8.03-.91h0Z"/>
    <path id="path3544" class="cls-7" d="M234.87,334.99v15.06c4.19-.91,8.58-1.37,13.32-1.37,14.24,0,26.38,4.2,36.33,12.78l5.66,5.66h5.66v-26.56h-5.38c-2.01,2.65-4.2,3.47-6.66,2.19-10.59-5.84-22.45-8.85-35.6-8.85-4.66,0-9.04.46-13.32,1.1h0Z"/>
    <path id="path3546" class="cls-7" d="M213.24,342.75c-3.65,2.1-7.21,4.57-10.5,7.4-13.15,11.13-19.72,24.55-19.72,40.25s6.57,28.94,19.72,40.35c12.5,10.77,27.66,16.15,45.46,16.15,7.21,0,14.15-.91,20.63-2.65-1.28-2.83-2.28-6.02-3.19-9.49-.37-1.55-.73-3.1-1.19-4.56-5.02,1.37-10.5,2-16.24,2-14.42,0-26.38-4.2-35.87-12.5-9.68-8.49-14.51-18.26-14.51-29.3s4.84-20.99,14.51-28.94c.27-.36.64-.64.91-.91v-17.79h0Z"/>
    <path id="path3548" class="cls-7" d="M231.49,449.36v-.64c-5.21-1.09-10.13-2.73-14.79-4.84v5.48c-1.19,2.83-3.93,4.2-7.85,4.2v10.59h30.49v-10.59c-3.74,0-6.3-1.37-7.85-4.2h0Z"/>
    <path id="path3550" class="cls-7" d="M284.53,419.69c-.18.09-.36.27-.55.46,1.01,3.01,1.83,6.02,2.65,9.22.64,2.19,1.28,4.2,1.92,5.75,1.92-1.28,3.74-2.65,5.57-4.2l5.12-5.12-6.3-15.7c-2.38,3.57-5.12,6.76-8.4,9.59h0Z"/>
    <path id="path3552" class="cls-7" d="M409.53,724.7v11.27c4.57-.29,8.26,1.95,10.98,6.51l5.44,12.14c1.07-1.07,2.14-2.14,3.3-3.11,2.92-2.72,6.02-5.24,9.23-7.39l-.77-1.65c-1.55-4.09-.2-6.31,4.18-6.51v-11.27h-32.36Z"/>
    <path id="path3554" class="cls-7" d="M548.08,735.97v-11.27h-32.45v11.27c4.18.2,5.54,2.42,4.28,6.51l-20.99,46.54h17.2l20.99-46.54c2.43-4.57,6.12-6.8,10.98-6.51h0Z"/>
    <path id="path3556" class="cls-7" d="M532.53,761.62l-8.94,19.92,3.89,3.88,18.55-18.56-3.98-3.98c-3.69,1.56-6.7,1.36-8.84-.49-.19-.29-.38-.48-.67-.77h0Z"/>
    <path id="path3558" class="cls-7" d="M526.9,795.04c-1.55-1.56-3.4-2.33-5.44-2.33h-47.32c-.87,10.79,8.26,15.94,27.1,15.74h12.34v23.71c-5.34,4.67-11.18,8.06-17.49,10.2l-8.06,18.07c14.09-1.85,26.62-7.67,37.31-17.49l.29-.29,1.55-1.27c1.36-1.74,2.04-3.49,2.04-5.54v-35.27c0-2.13-.77-3.98-2.33-5.53h0Z"/>
    <path id="path3560" class="cls-7" d="M507.85,760.26l6.51-14.57c-10.49-6.41-22.44-9.72-35.85-9.72-18.17,0-33.82,6.12-46.83,18.27-13.21,11.76-19.82,26.43-19.82,44.21s6.61,31.97,19.82,44.5c10.88,10.01,23.51,15.84,37.99,17.59l-7.96-17.88c-7.09-2.23-13.5-6.02-19.53-11.27-9.81-9.43-14.67-20.41-14.67-32.94s4.86-23.71,14.67-32.65c10.2-9.42,22.35-14.18,36.34-14.18,10.98,0,20.69,2.91,29.34,8.64h0Z"/>
    <path id="path3562" class="cls-7" d="M444.7,768.51c-3.3,3.02-6.02,6.31-8.06,9.81l42.17,93.37,27.01-59.65h-4.57c-4.66.1-8.74-.2-12.34-.78l-10.1,22.25-30.7-68.01c-1.17.97-2.33,1.94-3.4,3.01h0Z"/>
  </g>
</svg>