<?xml version="1.0" encoding="UTF-8"?>
<svg id="Layer_1" data-name="Layer 1" xmlns="http://www.w3.org/2000/svg" viewBox="0 0 960 960">
  <defs>
    <style>
      .cls-1, .cls-2, .cls-3, .cls-4 {
        fill-rule: evenodd;
        stroke-width: 0px;
      }

      .cls-2 {
        fill: #dc0a17;
      }

      .cls-3 {
        fill: #fff;
      }

      .cls-4 {
        fill: #fdd433;
      }
    </style>
  </defs>
  <path class="cls-3" d="M773.9,582.04v.04s-4.57,14.91-4.57,14.91c-46.53,144.97-146.38,247.5-277.99,319.97l-11.79,6.49-11.79-6.49c-131.61-72.46-231.46-174.99-278-320.02l-4.51-14.78c-.02-.07-.04-.14-.06-.2l-6.85-26.29c-12.12-52.02-16.65-106-17.68-159.31l-.42-21.94,21.76-2.78c113.94-14.55,204.74-70.11,279.04-156.38l18.52-21.51,18.52,21.51c74.3,86.27,165.09,141.83,279.04,156.38l21.76,2.78-.42,21.94c-1.03,53.31-5.56,107.29-17.68,159.31l-6.85,26.29s-.02.06-.02.09Z"/>
  <path class="cls-1" d="M776.95,554.77l-6.83,26.19s0,.02,0,.03c0,.01,0,.02,0,.03l-4.51,14.76c-46.06,143.51-144.83,245.42-276.14,317.72l-9.89,5.45-9.89-5.45c-131.31-72.3-230.08-174.21-276.14-317.72l-4.51-14.76s0-.02,0-.03c0-.01,0-.02,0-.03l-6.83-26.19c-12.04-51.7-16.56-105.81-17.58-158.5l-.35-18.41,18.26-2.33c114.92-14.67,206.57-70.69,281.52-157.71l15.54-18.05,15.54,18.05c74.95,87.03,166.6,143.04,281.52,157.71l18.26,2.33-.35,18.41c-1.02,52.69-5.53,106.79-17.58,158.5Z"/>
  <path class="cls-3" d="M485.15,905.69l-5.59,3.07-5.59-3.07c-140.84-77.54-239.19-186.05-280.43-341.99-13.92-54.36-18.95-111.82-20.02-167.6l-.2-10.39,10.31-1.32c117.12-14.96,210.76-72.04,287.15-160.74l8.78-10.19,8.78,10.19c76.39,88.71,170.03,145.79,287.15,160.74l10.31,1.32-.2,10.39c-1.08,55.77-6.1,113.24-20.02,167.6l-6.54,23.16c-44.48,144.6-142.72,246.6-273.89,318.83Z"/>
  <g>
    <path class="cls-2" d="M479.56,231.21c78.29,90.9,174.48,149.35,294.46,164.67-1.42,73.4-9.72,131.51-23.61,179.4H208.71c-13.89-47.9-22.19-106-23.61-179.4,119.99-15.32,216.18-73.77,294.46-164.67Z"/>
    <path class="cls-1" d="M208.71,575.28c45.44,156.67,152.2,254.94,270.85,320.27,118.65-65.33,225.41-163.6,270.85-320.27H208.71Z"/>
  </g>
  <g>
    <path class="cls-3" d="M282.57,422.34l55.92-22.16h0c-.77,17.32,1.45,38.59,9.39,56.3h0l39.43,89.94-.75,65.43-65.49-144.15h0c-8.03-16.95-24.67-30.6-38.51-45.37h0Z"/>
    <path class="cls-3" d="M631.43,391.38c.78,20.03-2.59,43.48-10.63,62.21h0l-87.6,200.76,37.69-5.27,80.07-180.25h0c8.14-18.18,23.31-33.98,38.72-49.15l-58.25-28.3Z"/>
    <path class="cls-3" d="M384.91,775.58l49.17.25,3.04-186.93h62.47c12.09,0,21.17,11.84,29.3,19.18v-67.77c-8.93,6.65-15.79,19.32-27.92,19.32l-63.28.12.89-60.66-34.9,12.13v232.68c0,12.15-12.26,21.16-18.77,31.68h0Z"/>
    <path class="cls-3" d="M403.57,440.32v-45.34c0-12.26-11.39-21.16-18.66-30.93h187.57v45.84c-13.89-9-38.81-17.41-54.22-17.41l-82.42,1.72.74,35.05-33.01,11.07Z"/>
    <path class="cls-3" d="M534.56,773.62h46.39v-53.71c-5.98.04-6.05,17.97-39.19,24.18l-7.21,29.53Z"/>
    <path class="cls-3" d="M458.32,783.85l27.67,54.58,53.6-121.31-33.42.87-20.09,44.37c-6.81-20.07-15.7-34.66-27.76-40.95v62.44Z"/>
    <path class="cls-3" d="M384.77,643.64c-3.02-1.13,2.97,1.25,0,0-36.72-15.43-64.85-41.41-87.49-69.67,8.88-14.56,22.35-30.37,38.6-38.92l-17.22-24.87c-21.85,14.42-40.38,30.08-52.22,51-4.44,7.63-6,10.64-13.18,14.99,7.42,2.11,6,.64,12.07,9.37,29.48,41.97,71.31,79.89,122.26,95.24l-2.82-37.14Z"/>
    <path class="cls-3" d="M377.31,468.08l16.45,27.26c69.9-31.2,118.24-31.73,193.76-12.75h0l13.02-28.43h0c-84.07-24.37-146.43-18.72-223.24,13.91Z"/>
    <path class="cls-3" d="M661.91,484.92l-12.15,26.83,22.79,14.39h0c6.51,3.35,8.9,12.57,13.02,18.86h0l20.29-42.15h0c-7.27-.96-15.41,1.23-21.92-2.88h0l-22.03-15.05h0Z"/>
    <path class="cls-3" d="M453.52,669.11v30.92c82.52,17.99,169.26-11.39,240.11-53.26l-15.74-35.97c-50.45,43.18-151.24,72.96-224.36,58.31h0Z"/>
  </g>
  <polygon class="cls-4" points="479.56 36.64 496.69 92.42 552.43 92.31 507.27 126.67 524.6 182.38 479.56 147.83 434.52 182.38 451.85 126.67 406.69 92.31 462.44 92.42 479.56 36.64"/>
</svg>